<svg xmlns="http://www.w3.org/2000/svg" xmlns:xlink="http://www.w3.org/1999/xlink" width="600" zoomAndPan="magnify" viewBox="0 0 450 457.91998" height="601" preserveAspectRatio="xMidYMid meet" version="1.0"><defs><clipPath id="bb2dbff7f4"><path d="M 81.210938 2.40625 L 369 2.40625 L 369 448.578125 L 81.210938 448.578125 Z M 81.210938 2.40625 " clip-rule="nonzero"/></clipPath></defs><g clip-path="url(#bb2dbff7f4)"><path fill="#f08632" d="M 272.164062 2.757812 C 271.535156 2.90625 270.78125 3.261719 270.480469 3.542969 C 270.183594 3.828125 269.441406 4.058594 268.828125 4.058594 C 268.214844 4.058594 266.0625 5.019531 264.039062 6.195312 C 262.015625 7.371094 259.703125 8.6875 258.898438 9.125 C 256.34375 10.503906 246.03125 21.277344 243.300781 25.425781 C 240.089844 30.296875 235.988281 38.398438 235.222656 41.378906 C 235.058594 42.007812 234.292969 44.316406 233.523438 46.507812 C 232.75 48.703125 231.953125 51.433594 231.753906 52.578125 C 231.21875 55.667969 230.324219 56.148438 227.351562 54.933594 C 224.230469 53.65625 215.027344 53.523438 212.050781 54.714844 C 207.5625 56.507812 205.929688 57.378906 203.117188 59.480469 C 198.144531 63.191406 194.425781 68.976562 191.589844 77.402344 C 190.617188 80.300781 190.398438 82.339844 190.398438 88.617188 C 190.398438 92.835938 190.679688 97.011719 191.023438 97.894531 C 191.367188 98.777344 191.964844 100.6875 192.347656 102.140625 L 193.046875 104.78125 L 190.570312 105.984375 C 189.203125 106.648438 187.808594 107.191406 187.46875 107.191406 C 187.125 107.191406 184.503906 108.359375 181.640625 109.792969 C 173.191406 114.015625 171.554688 115.109375 167.609375 119.171875 C 164.742188 122.121094 163.816406 123.570312 161.609375 128.558594 C 160.359375 131.382812 159.707031 136.855469 160.230469 140.125 C 160.496094 141.789062 160.578125 143.488281 160.421875 143.90625 C 160.257812 144.324219 158.414062 145.234375 156.320312 145.925781 C 140.757812 151.0625 130.171875 160.972656 126.78125 173.570312 C 125.792969 177.246094 125.617188 186.078125 126.515625 187.171875 C 128.023438 189.003906 127.058594 193.226562 125.136719 193.226562 C 123.933594 193.226562 118.917969 195.929688 117.777344 197.191406 C 117.195312 197.832031 116.417969 198.355469 116.042969 198.355469 C 114.273438 198.355469 104.367188 210.527344 104.359375 212.714844 C 104.355469 213.121094 103.964844 214.199219 103.492188 215.113281 C 103.015625 216.023438 102.339844 219.296875 101.988281 222.386719 C 101.253906 228.855469 101.878906 234.273438 103.9375 239.296875 L 105.191406 242.351562 L 103.722656 243.570312 C 102.914062 244.242188 101.664062 245.179688 100.945312 245.648438 C 94.773438 249.683594 87.226562 258.234375 85.855469 262.742188 C 85.613281 263.527344 85.222656 264.421875 84.980469 264.738281 C 84.738281 265.050781 84.210938 267.644531 83.8125 270.503906 C 83.085938 275.671875 83.359375 278.394531 85.359375 286.003906 C 85.636719 287.054688 85.285156 287.683594 83.675781 289.011719 C 82.554688 289.933594 81.484375 291.171875 81.296875 291.765625 C 80.953125 292.84375 82.421875 297.847656 84.378906 302.265625 C 84.953125 303.5625 85.984375 306.03125 86.671875 307.753906 C 87.359375 309.480469 88.519531 312.171875 89.246094 313.738281 C 89.976562 315.304688 91.136719 317.996094 91.828125 319.71875 C 92.519531 321.445312 93.3125 323.097656 93.59375 323.394531 C 93.875 323.691406 94.105469 324.296875 94.105469 324.734375 C 94.105469 325.5625 94.648438 326.910156 98.34375 335.246094 C 98.796875 336.265625 99.964844 339.148438 100.941406 341.65625 C 101.917969 344.164062 103.0625 346.984375 103.480469 347.925781 C 104.261719 349.679688 104.578125 350.429688 106.628906 355.332031 C 107.285156 356.898438 108.066406 358.625 108.371094 359.171875 C 108.671875 359.714844 108.921875 360.574219 108.921875 361.078125 C 108.921875 361.582031 109.277344 362.675781 109.714844 363.507812 C 110.148438 364.339844 110.949219 366.171875 111.492188 367.582031 C 112.039062 368.992188 112.8125 370.914062 113.222656 371.855469 C 113.628906 372.796875 115.160156 376.515625 116.632812 380.117188 C 118.101562 383.722656 119.664062 387.5 120.109375 388.515625 C 120.554688 389.527344 121.265625 391.195312 121.695312 392.21875 C 122.125 393.242188 122.742188 394.71875 123.074219 395.503906 C 123.402344 396.285156 124.207031 398.207031 124.863281 399.777344 C 125.515625 401.34375 126.300781 403.070312 126.601562 403.613281 C 126.90625 404.15625 127.152344 404.886719 127.152344 405.238281 C 127.152344 405.585938 127.503906 406.679688 127.9375 407.667969 C 130.167969 412.789062 132.285156 418.183594 132.613281 419.582031 C 132.8125 420.445312 133.207031 421.292969 133.484375 421.464844 C 133.761719 421.636719 133.992188 422.410156 133.992188 423.183594 C 133.992188 425.015625 136.296875 428.625 138.347656 430 C 141.765625 432.289062 147.03125 434.65625 152.792969 436.492188 C 156.082031 437.539062 159.289062 438.582031 159.914062 438.8125 C 160.542969 439.042969 163.105469 439.679688 165.613281 440.230469 C 168.121094 440.785156 171.453125 441.5625 173.019531 441.96875 C 174.585938 442.371094 177.40625 443.007812 179.289062 443.382812 C 182.640625 444.050781 183.734375 444.230469 192.964844 445.613281 C 195.46875 445.992188 200.085938 446.691406 203.21875 447.171875 C 213.613281 448.765625 243.8125 448.558594 253.929688 446.832031 C 257.042969 446.296875 263.355469 445.382812 268.460938 444.722656 C 269.558594 444.578125 271.734375 444.105469 273.304688 443.667969 C 274.871094 443.234375 278.074219 442.457031 280.425781 441.941406 C 286.703125 440.570312 296.480469 437.890625 298.109375 437.097656 C 298.589844 436.863281 299.863281 436.480469 300.9375 436.242188 C 302.015625 436.003906 303.289062 435.617188 303.769531 435.378906 C 304.246094 435.140625 306.179688 434.242188 308.058594 433.386719 C 309.941406 432.527344 312.6875 431.054688 314.164062 430.105469 C 316.621094 428.53125 316.949219 428.042969 318.058594 424.335938 C 318.726562 422.109375 320.167969 417.722656 321.269531 414.589844 C 322.367188 411.457031 323.480469 408.121094 323.742188 407.183594 C 324.5625 404.257812 326.039062 400.460938 327.476562 397.59375 C 328.238281 396.078125 328.855469 394.496094 328.855469 394.078125 C 328.855469 393.660156 329.226562 392.589844 329.675781 391.703125 C 330.691406 389.703125 331.820312 386.960938 333.15625 383.25 C 333.71875 381.683594 334.351562 380.148438 334.558594 379.832031 C 334.769531 379.519531 335.546875 377.597656 336.289062 375.558594 C 337.027344 373.523438 337.964844 371.214844 338.371094 370.429688 C 338.777344 369.648438 339.109375 368.726562 339.109375 368.382812 C 339.113281 367.789062 340.285156 365.015625 341.429688 362.890625 C 341.722656 362.347656 341.960938 361.53125 341.960938 361.085938 C 341.960938 360.636719 342.328125 359.542969 342.773438 358.65625 C 343.21875 357.765625 344.019531 355.886719 344.550781 354.476562 C 345.085938 353.066406 345.855469 351.144531 346.253906 350.203125 C 346.65625 349.265625 347.429688 347.339844 347.96875 345.929688 C 348.511719 344.519531 349.304688 342.558594 349.730469 341.570312 C 350.160156 340.582031 350.507812 339.515625 350.507812 339.195312 C 350.507812 338.878906 350.882812 337.890625 351.335938 337.003906 C 351.792969 336.117188 352.960938 333.339844 353.929688 330.832031 C 354.902344 328.324219 355.925781 325.761719 356.207031 325.132812 C 356.488281 324.507812 357.519531 321.941406 358.503906 319.4375 C 359.484375 316.929688 361.039062 313.28125 361.953125 311.328125 C 362.867188 309.375 363.613281 307.4375 363.613281 307.023438 C 363.613281 306.605469 363.992188 305.765625 364.449219 305.15625 C 364.910156 304.550781 365.296875 303.527344 365.304688 302.882812 C 365.316406 302.242188 365.558594 301.472656 365.847656 301.175781 C 366.742188 300.25 368.742188 293.929688 368.742188 292.027344 C 368.742188 290.164062 367.324219 288.742188 365.015625 288.296875 C 363.964844 288.09375 363.898438 287.554688 363.875 278.972656 C 363.847656 268.269531 362.859375 264.554688 358.203125 257.640625 C 354.71875 252.46875 346.910156 244.054688 343.820312 242.148438 C 341.304688 240.589844 341.410156 238.6875 344.328125 232.953125 C 344.609375 232.394531 345.375 229.316406 346.027344 226.117188 C 347.644531 218.15625 347.117188 210.683594 344.414062 203.199219 C 343.226562 199.914062 340.214844 193.75 338.984375 192.089844 C 336.449219 188.667969 329.953125 182.683594 326.152344 180.269531 L 322.019531 177.644531 L 322.019531 171.488281 C 322.019531 165.269531 321.75 164.039062 319.058594 157.902344 C 316.449219 151.949219 310.925781 145.898438 304.640625 142.117188 C 299.105469 138.78125 299.226562 138.976562 299.226562 133.597656 C 299.226562 123.863281 294.417969 115.039062 285.554688 108.511719 C 281.859375 105.792969 275.125 102.0625 273.910156 102.0625 C 272.199219 102.0625 271.761719 99.976562 272.703125 96.300781 C 273.742188 92.257812 273.863281 83.855469 272.941406 79.992188 C 271.222656 72.792969 267.25 66.234375 262.582031 62.894531 C 256.25 58.359375 253.910156 57.585938 245.667969 57.3125 C 239.230469 57.097656 239.117188 57.074219 239.269531 55.789062 C 239.667969 52.363281 243.910156 40.257812 245.714844 37.390625 C 246.308594 36.453125 247.046875 35.101562 247.359375 34.390625 C 249.21875 30.160156 258.511719 19.863281 263.617188 16.375 C 267.875 13.464844 276.054688 9.757812 278.210938 9.757812 C 279.703125 9.757812 282.136719 7.5 282.136719 6.121094 C 282.136719 5.417969 281.613281 4.28125 280.972656 3.597656 C 280.019531 2.574219 279.222656 2.363281 276.558594 2.414062 C 274.765625 2.453125 272.789062 2.605469 272.164062 2.757812 M 212.945312 63.910156 C 208.476562 65.78125 204.40625 70.015625 202.007812 75.292969 C 199.363281 81.09375 199.230469 81.75 199.230469 88.9375 C 199.230469 97.164062 199.855469 99.386719 203.917969 105.605469 C 209.144531 113.609375 216.777344 117.921875 228.109375 119.269531 C 233.863281 119.953125 236.480469 119.671875 243.105469 117.644531 C 247.941406 116.164062 252.203125 113.714844 255.355469 110.597656 C 256.835938 109.136719 261.621094 101.671875 261.621094 100.832031 C 261.621094 100.394531 261.976562 99.53125 262.410156 98.914062 C 262.84375 98.292969 263.652344 95.011719 264.210938 91.621094 C 265.160156 85.835938 265.164062 85.265625 264.277344 82.453125 C 263.757812 80.804688 263.332031 79.054688 263.332031 78.566406 C 263.332031 77.351562 259.769531 72.148438 257.804688 70.496094 C 254.285156 67.53125 250.828125 66.078125 246.613281 65.785156 C 241.53125 65.433594 238.054688 66.121094 237.78125 67.53125 C 237.605469 68.460938 237.878906 68.527344 240.453125 68.171875 C 244.058594 67.675781 245.46875 68.117188 246.472656 70.058594 C 247.144531 71.359375 247.148438 71.820312 246.488281 73.078125 C 245.113281 75.699219 242.125 76.667969 235.65625 76.589844 C 230.519531 76.523438 229.53125 76.335938 226.222656 74.769531 C 224.1875 73.808594 221.945312 72.410156 221.242188 71.65625 C 219.871094 70.199219 219.4375 67.097656 220.457031 66.078125 C 221.054688 65.480469 224.460938 65.667969 227.578125 66.46875 C 228.800781 66.78125 229.144531 66.667969 229.144531 65.960938 C 229.144531 64.359375 225.785156 63.171875 220.617188 62.945312 C 216.65625 62.773438 215.234375 62.953125 212.945312 63.910156 M 267.355469 109.710938 C 267.015625 110.121094 266.035156 111.46875 265.179688 112.710938 C 263.210938 115.546875 259.488281 118.890625 255.019531 121.828125 C 239.15625 132.257812 212.882812 129.074219 200.21875 115.195312 L 198.089844 112.859375 L 193.53125 114.605469 C 187.371094 116.96875 183.332031 118.976562 178.148438 122.261719 C 175.363281 124.027344 171.492188 128.375 170.289062 131.085938 C 169.03125 133.925781 168.390625 139.859375 169.132812 141.796875 L 169.621094 143.070312 L 191.261719 143.363281 C 204.417969 143.539062 214.695312 143.429688 217.464844 143.078125 C 227.382812 141.816406 228.1875 141.8125 229.6875 143.003906 C 230.695312 143.8125 231.082031 144.679688 231.082031 146.136719 C 231.082031 149.363281 229.839844 150.195312 223.292969 151.367188 C 218.25 152.265625 215.15625 152.375 200.371094 152.164062 C 173.792969 151.78125 168.550781 151.953125 163.003906 153.378906 C 160.367188 154.058594 157.949219 154.796875 157.636719 155.019531 C 157.324219 155.242188 155.785156 155.890625 154.21875 156.457031 C 152.652344 157.023438 150.964844 157.835938 150.46875 158.265625 C 149.972656 158.691406 149.359375 159.039062 149.097656 159.039062 C 148.835938 159.039062 147.273438 160.085938 145.621094 161.359375 C 141.292969 164.699219 138.03125 169.320312 135.445312 175.777344 C 134.375 178.445312 134.257812 186.246094 135.257812 188.4375 L 135.953125 189.964844 L 141.382812 189.5 C 144.367188 189.242188 148.734375 189.03125 151.082031 189.035156 C 156.574219 189.035156 172.882812 190.285156 175.859375 190.929688 C 177.117188 191.203125 180.585938 191.578125 183.5625 191.761719 C 186.539062 191.945312 191.28125 192.375 194.101562 192.710938 C 200.546875 193.484375 218.308594 193.023438 226.296875 191.875 C 234.527344 190.691406 238.945312 189.847656 240.042969 189.253906 C 240.554688 188.976562 241.964844 188.566406 243.175781 188.351562 C 244.390625 188.132812 245.640625 187.761719 245.953125 187.53125 C 246.820312 186.894531 252.136719 186.351562 252.847656 186.828125 C 254.066406 187.640625 254.859375 189.890625 254.5 191.519531 C 254.128906 193.214844 251.710938 195.046875 249.0625 195.644531 C 248.292969 195.820312 246.894531 196.230469 245.953125 196.554688 C 241.171875 198.21875 232.464844 200.015625 225.441406 200.789062 C 214.800781 201.964844 177.34375 201.21875 175.027344 199.789062 C 174.628906 199.542969 154.039062 198.050781 148.519531 197.867188 C 145.6875 197.773438 136.214844 199.144531 132.933594 200.125 C 123.558594 202.921875 117.699219 207.542969 113.234375 215.65625 L 110.996094 219.722656 L 111 226.847656 C 111.003906 233.132812 111.15625 234.269531 112.304688 236.53125 C 115.257812 242.351562 120.234375 247.4375 126.011719 250.546875 C 127.109375 251.136719 128.390625 251.894531 128.863281 252.230469 C 129.332031 252.566406 130.871094 253.308594 132.28125 253.878906 C 133.738281 254.472656 135.191406 255.078125 136.640625 255.695312 C 137.628906 256.125 138.910156 256.484375 139.488281 256.496094 C 140.070312 256.503906 141.183594 256.882812 141.96875 257.328125 C 142.75 257.777344 144.300781 258.152344 145.414062 258.164062 C 146.527344 258.175781 147.679688 258.414062 147.980469 258.699219 C 149.007812 259.679688 164.976562 262.128906 181.851562 263.886719 C 197.222656 265.492188 242.066406 265.015625 259.058594 263.066406 C 263.132812 262.597656 268.929688 261.957031 271.9375 261.644531 C 274.945312 261.328125 278.105469 260.804688 278.953125 260.480469 C 279.804688 260.15625 281.316406 259.894531 282.3125 259.894531 C 283.3125 259.898438 285.28125 259.539062 286.691406 259.097656 C 288.105469 258.65625 291.949219 257.621094 295.238281 256.796875 C 305.609375 254.199219 307.621094 253.472656 316.035156 249.277344 C 328.390625 243.121094 333.925781 236.894531 337.074219 225.617188 C 338.632812 220.035156 337.882812 209.019531 335.675781 205.058594 C 335.375 204.515625 335.125 203.757812 335.125 203.378906 C 335.125 202.144531 329.882812 194.714844 327.285156 192.269531 C 325.890625 190.957031 323.6875 189.164062 322.390625 188.28125 C 321.089844 187.398438 319.894531 186.507812 319.738281 186.296875 C 319.292969 185.714844 317.828125 187.03125 316.476562 189.238281 C 314.71875 192.101562 311.035156 195.46875 305.640625 199.144531 C 303.058594 200.90625 300.804688 202.34375 300.632812 202.34375 C 300.460938 202.34375 298.230469 203.371094 295.671875 204.625 C 293.113281 205.878906 290.753906 206.90625 290.425781 206.90625 C 290.09375 206.910156 289.140625 207.269531 288.296875 207.707031 C 287.457031 208.148438 285.917969 208.6875 284.878906 208.910156 C 283.839844 209.132812 282.734375 209.472656 282.421875 209.664062 C 280.632812 210.753906 275.753906 211.996094 273.199219 212.011719 C 269.625 212.035156 268.460938 211.078125 268.460938 208.109375 C 268.460938 206.40625 268.800781 205.726562 270.148438 204.730469 C 271.074219 204.046875 272.089844 203.484375 272.40625 203.484375 C 272.71875 203.484375 274.207031 203.097656 275.703125 202.628906 C 277.203125 202.160156 279.839844 201.339844 281.566406 200.8125 C 283.289062 200.28125 285.207031 199.511719 285.824219 199.101562 C 286.441406 198.691406 287.269531 198.355469 287.660156 198.355469 C 288.875 198.355469 295.886719 194.777344 300.082031 192.015625 C 304.46875 189.128906 309.015625 184.769531 310.40625 182.117188 C 312.152344 178.785156 313.59375 172.035156 313.207031 169.011719 C 312.464844 163.183594 311.621094 161.207031 307.578125 155.761719 C 305.429688 152.871094 298.527344 147.640625 296.871094 147.648438 C 296.445312 147.652344 295.589844 148.804688 294.972656 150.207031 C 292.042969 156.878906 285.925781 160.183594 283.144531 156.605469 C 281.613281 154.632812 281.941406 152.847656 284.449219 149.527344 C 288.550781 144.097656 289.679688 141.210938 289.984375 135.402344 C 290.234375 130.613281 290.125 129.914062 288.5625 126.1875 C 287.628906 123.972656 286.140625 121.207031 285.253906 120.042969 C 283.066406 117.171875 278.070312 113.441406 273.589844 111.328125 C 268.621094 108.988281 268.074219 108.84375 267.355469 109.710938 M 333.132812 248.746094 C 330.621094 251.652344 323.148438 256.054688 312.902344 260.664062 C 308.03125 262.855469 299.0625 265.515625 291.25 267.082031 L 282.703125 268.792969 C 280.355469 269.265625 276.378906 269.875 273.871094 270.148438 C 271.367188 270.425781 267.90625 270.90625 266.179688 271.222656 C 264.457031 271.535156 260.738281 271.941406 257.917969 272.121094 C 255.097656 272.300781 250.613281 272.730469 247.949219 273.078125 C 239.90625 274.121094 193.757812 273.910156 182.136719 272.773438 C 170.617188 271.648438 160.265625 270.332031 156.941406 269.574219 C 155.621094 269.269531 153.058594 268.859375 151.246094 268.65625 C 149.433594 268.449219 147.695312 268.09375 147.378906 267.863281 C 147.066406 267.632812 145.597656 267.269531 144.117188 267.054688 C 142.636719 266.839844 141.292969 266.453125 141.132812 266.195312 C 140.972656 265.933594 139.691406 265.550781 138.285156 265.339844 C 136.878906 265.128906 135.578125 264.714844 135.394531 264.417969 C 135.210938 264.125 134.679688 263.882812 134.210938 263.882812 C 133.320312 263.882812 130.195312 262.574219 124.875 259.972656 C 121.878906 258.511719 115.519531 254.40625 112.207031 251.796875 C 110.800781 250.6875 110.503906 250.648438 109.074219 251.363281 C 107.246094 252.28125 100.707031 257.488281 98.765625 259.570312 C 97.121094 261.335938 94.675781 264.910156 94.675781 265.546875 C 94.675781 265.808594 94.324219 266.3125 93.890625 266.671875 C 93.230469 267.21875 92.449219 270.90625 92.304688 274.136719 C 92.195312 276.585938 93.234375 282.613281 94.019531 284.109375 C 97.660156 291.027344 98.890625 292.101562 101.195312 290.359375 C 101.800781 289.898438 103.492188 289.523438 104.949219 289.523438 C 107.234375 289.523438 107.824219 289.78125 109.253906 291.410156 C 110.167969 292.445312 111.222656 293.792969 111.597656 294.402344 C 111.972656 295.007812 113.332031 297.234375 114.613281 299.351562 C 115.898438 301.464844 117.207031 303.195312 117.527344 303.195312 C 118 303.195312 121.171875 301.035156 124.019531 298.773438 C 125.503906 297.59375 130.46875 294.789062 131.996094 294.265625 C 133.1875 293.859375 134.246094 293.871094 135.496094 294.308594 C 137.445312 294.988281 140.855469 298.480469 142.238281 301.203125 C 144.683594 306.027344 147.660156 308.855469 148.738281 307.382812 C 149.453125 306.402344 154.839844 302.269531 158.460938 299.925781 C 161.449219 297.988281 162.710938 297.503906 164.773438 297.503906 C 166.195312 297.5 167.898438 297.878906 168.566406 298.347656 C 169.890625 299.273438 176.15625 307.371094 176.15625 308.15625 C 176.15625 308.859375 178.316406 310.605469 179.1875 310.605469 C 179.59375 310.605469 180.5 310.070312 181.199219 309.421875 C 183.699219 307.089844 189.582031 302.839844 191.625 301.886719 C 196.027344 299.835938 199.351562 301.308594 205.449219 308.003906 C 207.894531 310.6875 210.285156 312.882812 210.761719 312.882812 C 211.242188 312.882812 213.511719 311.101562 215.804688 308.921875 C 220.035156 304.902344 225.171875 301.503906 227.03125 301.492188 C 229.140625 301.480469 232.867188 304.019531 237.136719 308.375 C 239.566406 310.855469 241.800781 312.882812 242.097656 312.882812 C 242.398438 312.882812 244.285156 311.09375 246.292969 308.902344 C 251.316406 303.425781 254.109375 301.488281 256.980469 301.488281 C 258.242188 301.488281 259.433594 301.742188 259.628906 302.058594 C 259.820312 302.371094 260.386719 302.628906 260.886719 302.628906 C 261.609375 302.628906 266.074219 305.785156 267.320312 307.179688 C 268.578125 308.589844 272.542969 311.171875 273.445312 311.171875 C 274.230469 311.171875 275.558594 309.628906 277.902344 305.980469 C 283.761719 296.863281 286.519531 296 293.621094 301.058594 C 304.261719 308.644531 304.222656 308.621094 305.492188 307.472656 C 306.121094 306.90625 306.636719 306.257812 306.636719 306.035156 C 306.636719 305.105469 312.417969 296.957031 314.058594 295.578125 C 317.230469 292.910156 320.535156 293.800781 328.996094 299.601562 C 331.421875 301.265625 333.683594 302.628906 334.023438 302.628906 C 335.015625 302.628906 335.84375 301.472656 338.257812 296.722656 C 341.519531 290.308594 345.007812 288.210938 348.800781 290.378906 C 351.605469 291.980469 352.484375 291.53125 353.527344 287.953125 C 355.246094 282.058594 355.726562 277.300781 355.015625 273.222656 C 354.453125 269.988281 353.714844 268.226562 350.269531 261.886719 C 348.730469 259.050781 341.910156 252.082031 338.402344 249.761719 C 337.226562 248.984375 336.265625 248.125 336.265625 247.851562 C 336.265625 246.878906 334.246094 247.453125 333.132812 248.746094 M 101.796875 298.886719 C 100.859375 299.335938 98.871094 300.238281 97.382812 300.894531 C 94.109375 302.335938 94.027344 302.953125 96.386719 308.324219 C 97.324219 310.464844 98.09375 312.542969 98.09375 312.933594 C 98.09375 313.328125 98.425781 314.054688 98.832031 314.546875 C 99.234375 315.042969 99.90625 316.472656 100.316406 317.726562 C 100.726562 318.980469 101.53125 321.03125 102.101562 322.285156 C 105.234375 329.15625 106.070312 331.078125 106.070312 331.398438 C 106.070312 331.589844 106.597656 332.953125 107.242188 334.421875 C 107.886719 335.894531 108.621094 337.613281 108.875 338.238281 C 109.128906 338.867188 109.882812 340.558594 110.550781 342.003906 C 111.222656 343.449219 111.769531 344.796875 111.769531 345 C 111.769531 345.199219 112.410156 346.695312 113.191406 348.320312 C 113.976562 349.945312 114.617188 351.496094 114.617188 351.773438 C 114.617188 352.046875 115.222656 353.601562 115.964844 355.226562 C 116.703125 356.851562 117.507812 358.820312 117.75 359.605469 C 117.992188 360.390625 118.539062 361.535156 118.96875 362.15625 C 119.394531 362.773438 119.746094 363.738281 119.746094 364.296875 C 119.746094 364.859375 119.996094 365.765625 120.304688 366.308594 C 120.613281 366.851562 121.785156 369.734375 122.90625 372.710938 C 124.027344 375.6875 125.570312 379.410156 126.332031 380.980469 C 127.097656 382.550781 127.722656 384.179688 127.722656 384.597656 C 127.722656 385.011719 128.097656 386.035156 128.554688 386.867188 C 129.011719 387.699219 130.199219 390.429688 131.191406 392.9375 C 132.179688 395.445312 133.730469 399.101562 134.628906 401.058594 C 135.53125 403.019531 136.269531 404.789062 136.269531 404.992188 C 136.269531 405.195312 137.039062 406.992188 137.980469 408.980469 C 138.917969 410.96875 139.6875 412.933594 139.6875 413.34375 C 139.6875 413.753906 140.066406 414.585938 140.523438 415.195312 C 140.984375 415.800781 141.390625 416.8125 141.425781 417.4375 C 141.5625 419.886719 143.929688 423.105469 146.527344 424.378906 C 149.777344 425.972656 151.9375 426.117188 151.390625 424.703125 C 151.179688 424.15625 150.875 422.9375 150.714844 421.996094 C 150.558594 421.058594 150.097656 419.390625 149.691406 418.292969 C 149.285156 417.195312 148.5625 415.015625 148.085938 413.449219 C 145.546875 405.09375 142.25 394.746094 141.007812 391.230469 C 140.230469 389.035156 139.402344 386.46875 139.164062 385.527344 C 138.925781 384.585938 138.46875 383.300781 138.148438 382.679688 C 137.472656 381.371094 136.378906 378.320312 135.699219 375.84375 C 135.441406 374.90625 134.671875 372.726562 133.992188 371 C 133.308594 369.277344 132.535156 367.097656 132.269531 366.160156 C 131.652344 363.96875 130.394531 360.640625 129.878906 359.839844 C 129.660156 359.5 129.234375 358.21875 128.9375 356.992188 C 128.347656 354.578125 127.40625 351.8125 126.203125 348.980469 C 125.785156 347.992188 125.445312 346.789062 125.445312 346.304688 C 125.445312 345.824219 125.1875 345.269531 124.875 345.074219 C 124.558594 344.882812 124.300781 344.289062 124.300781 343.761719 C 124.300781 343.230469 123.9375 342.109375 123.5 341.269531 C 123.058594 340.425781 122.519531 338.890625 122.296875 337.851562 C 122.074219 336.808594 121.71875 335.703125 121.507812 335.390625 C 121.296875 335.078125 120.660156 333.28125 120.09375 331.402344 C 119.527344 329.519531 118.703125 327.140625 118.265625 326.113281 C 117.828125 325.082031 117.464844 323.886719 117.464844 323.449219 C 117.464844 323.015625 117.09375 321.9375 116.632812 321.046875 C 116.175781 320.160156 115.355469 317.898438 114.816406 316.015625 C 114.273438 314.136719 112.886719 311.316406 111.734375 309.75 C 110.582031 308.183594 108.976562 305.746094 108.164062 304.335938 C 107.355469 302.925781 105.972656 300.941406 105.097656 299.925781 C 103.566406 298.144531 103.445312 298.105469 101.796875 298.886719 M 345.792969 301.453125 C 343.003906 306.828125 339.789062 312.039062 338.597656 313.117188 C 337.941406 313.710938 337.402344 314.683594 337.402344 315.273438 C 337.402344 315.863281 335.890625 320.886719 334.035156 326.4375 C 332.183594 331.988281 330.5 337.359375 330.289062 338.375 C 330.078125 339.390625 329.671875 340.367188 329.382812 340.542969 C 329.09375 340.722656 328.855469 341.394531 328.855469 342.03125 C 328.855469 342.671875 328.515625 344.003906 328.097656 344.988281 C 327.054688 347.441406 326 350.433594 325.449219 352.484375 C 325.046875 353.96875 323.847656 357.546875 321.152344 365.304688 C 320.769531 366.402344 320.019531 368.707031 319.480469 370.429688 C 318.945312 372.15625 318.3125 374.078125 318.074219 374.703125 C 317.835938 375.332031 317.070312 377.640625 316.367188 379.832031 C 315.667969 382.027344 314.878906 384.335938 314.621094 384.960938 C 314.066406 386.308594 309.320312 401.25 308.015625 405.757812 C 307.515625 407.480469 306.847656 409.660156 306.53125 410.601562 C 306.214844 411.542969 305.746094 413.207031 305.492188 414.304688 C 305.238281 415.402344 304.398438 418.222656 303.621094 420.574219 C 302.84375 422.921875 302.324219 425.042969 302.46875 425.28125 C 302.609375 425.523438 303.542969 425.292969 304.539062 424.773438 C 305.535156 424.253906 306.992188 423.496094 307.777344 423.09375 C 309.5 422.203125 309.488281 422.230469 311.753906 415.265625 C 312.757812 412.191406 313.9375 408.988281 314.375 408.144531 C 314.816406 407.300781 315.175781 406.207031 315.179688 405.710938 C 315.179688 405.214844 315.355469 404.636719 315.566406 404.425781 C 315.777344 404.210938 316.632812 401.992188 317.460938 399.492188 C 318.292969 396.988281 319.144531 394.769531 319.355469 394.558594 C 319.566406 394.34375 319.742188 393.804688 319.742188 393.355469 C 319.742188 392.910156 320.089844 391.730469 320.519531 390.746094 C 320.945312 389.757812 321.738281 387.796875 322.28125 386.386719 C 322.820312 384.976562 323.59375 383.050781 323.996094 382.113281 C 324.394531 381.171875 325.117188 379.378906 325.59375 378.125 C 326.753906 375.089844 331.597656 363.238281 333.949219 357.683594 C 334.597656 356.152344 335.125 354.597656 335.125 354.226562 C 335.125 353.855469 335.753906 352.246094 336.527344 350.648438 C 337.296875 349.050781 338.09375 347.078125 338.296875 346.261719 C 338.503906 345.445312 338.898438 344.640625 339.175781 344.46875 C 339.457031 344.292969 339.683594 343.675781 339.683594 343.09375 C 339.683594 342.511719 340.0625 341.308594 340.523438 340.421875 C 340.988281 339.535156 342.550781 335.859375 344.003906 332.257812 C 345.453125 328.652344 346.996094 324.894531 347.433594 323.910156 C 347.871094 322.921875 348.238281 321.765625 348.246094 321.34375 C 348.257812 320.921875 348.644531 320.078125 349.101562 319.46875 C 349.5625 318.859375 349.9375 318.046875 349.9375 317.65625 C 349.9375 317.269531 350.707031 315.289062 351.648438 313.257812 C 352.589844 311.226562 353.359375 309.324219 353.359375 309.03125 C 353.359375 308.503906 354.617188 305.585938 355.714844 303.570312 C 356.027344 302.988281 356.199219 302.429688 356.09375 302.324219 C 355.515625 301.746094 348.742188 298.636719 348.058594 298.636719 C 347.613281 298.636719 346.59375 299.90625 345.792969 301.453125 M 131.113281 304.085938 C 130.707031 304.578125 129.070312 305.851562 127.480469 306.917969 C 125.890625 307.988281 123.855469 309.457031 122.960938 310.183594 L 121.332031 311.507812 L 122.761719 315.46875 C 123.546875 317.652344 124.734375 320.972656 125.394531 322.855469 C 126.058594 324.734375 126.851562 326.71875 127.160156 327.261719 C 127.46875 327.804688 127.730469 328.574219 127.742188 328.972656 C 127.753906 329.367188 128.257812 330.71875 128.863281 331.972656 C 129.46875 333.222656 129.972656 334.574219 129.984375 334.96875 C 129.992188 335.367188 130.234375 336.136719 130.519531 336.679688 C 130.804688 337.222656 131.675781 339.59375 132.457031 341.941406 C 133.234375 344.292969 134.769531 348.78125 135.863281 351.914062 C 136.960938 355.046875 138.777344 360.433594 139.902344 363.878906 C 142.949219 373.21875 144.933594 379.125 145.457031 380.402344 C 145.710938 381.027344 146.464844 383.207031 147.128906 385.246094 C 147.941406 387.726562 148.785156 390.195312 149.660156 392.652344 C 150.390625 394.691406 151.558594 398.28125 152.261719 400.628906 C 152.964844 402.980469 153.722656 405.289062 153.949219 405.757812 C 154.171875 406.230469 155.148438 409.175781 156.117188 412.3125 C 157.082031 415.445312 158.6875 420.644531 159.683594 423.863281 C 160.679688 427.082031 161.710938 429.851562 161.980469 430.019531 C 162.523438 430.351562 168.546875 431.96875 169.257812 431.96875 C 169.84375 431.96875 167.441406 419.265625 166.40625 416.871094 C 166.136719 416.242188 165.660156 414.320312 165.34375 412.597656 C 164.390625 407.339844 163.269531 402.101562 162.90625 401.199219 C 162.714844 400.730469 162.277344 398.808594 161.933594 396.925781 C 161.589844 395.046875 160.925781 391.714844 160.457031 389.519531 C 159.988281 387.316406 159.53125 385.113281 159.097656 382.90625 C 158.816406 381.460938 158.324219 379.28125 158.007812 378.0625 C 157.261719 375.207031 156.003906 369.640625 154.792969 363.878906 C 154.269531 361.371094 153.476562 358.015625 153.03125 356.421875 C 152.585938 354.828125 152.222656 353.011719 152.222656 352.390625 C 152.222656 351.769531 151.875 350.128906 151.445312 348.738281 C 150.527344 345.757812 149.414062 341.414062 148.75 338.238281 C 148.042969 334.847656 146.769531 329.808594 146.375 328.835938 C 146.046875 328.023438 145.414062 325.367188 144.210938 319.746094 C 143.914062 318.351562 143.054688 316.558594 142.300781 315.757812 C 140.652344 314.003906 135.699219 306.792969 135.699219 306.140625 C 135.699219 305.480469 133.183594 303.195312 132.457031 303.195312 C 132.125 303.195312 131.519531 303.597656 131.113281 304.085938 M 317.558594 305.25 C 316.667969 306.335938 315.367188 308.363281 314.671875 309.753906 C 313.976562 311.148438 313.1875 312.425781 312.917969 312.589844 C 311.429688 313.507812 307.539062 320.304688 306.898438 323.101562 C 306.347656 325.492188 305.78125 327.878906 305.203125 330.261719 C 304.671875 332.457031 304.023438 335.40625 303.765625 336.8125 C 302.859375 341.796875 301.554688 347.671875 301.25 348.167969 C 301.078125 348.445312 300.699219 350.171875 300.40625 352.003906 C 300.113281 353.832031 299.460938 357 298.957031 359.035156 C 298.453125 361.074219 297.679688 364.535156 297.246094 366.726562 C 296.808594 368.921875 296.039062 372.640625 295.53125 374.992188 C 293.554688 384.199219 292.910156 387.359375 292.390625 390.375 C 292.09375 392.097656 291.585938 394.402344 291.265625 395.5 C 290.945312 396.59375 290.679688 398.367188 290.679688 399.4375 C 290.679688 400.507812 290.308594 402.6875 289.855469 404.285156 C 289.402344 405.878906 288.605469 409.363281 288.085938 412.027344 C 287.570312 414.691406 286.398438 419.804688 285.492188 423.394531 C 283.371094 431.777344 283.445312 432.039062 287.667969 430.964844 C 292.253906 429.796875 293.53125 428.828125 293.53125 426.515625 C 293.53125 425.472656 293.769531 424.027344 294.0625 423.304688 C 294.355469 422.585938 295.023438 420.457031 295.542969 418.578125 C 296.511719 415.109375 297.648438 411.308594 298.949219 407.183594 C 299.347656 405.929688 300.492188 402.210938 301.496094 398.921875 C 302.5 395.628906 303.648438 392.039062 304.046875 390.945312 C 304.449219 389.847656 305.613281 386.257812 306.636719 382.964844 C 309.914062 372.445312 313.640625 361.085938 314.421875 359.234375 C 314.839844 358.246094 315.183594 357.152344 315.183594 356.804688 C 315.183594 356.457031 315.410156 355.726562 315.6875 355.183594 C 315.96875 354.636719 316.773438 352.269531 317.480469 349.917969 C 318.1875 347.570312 318.984375 345.402344 319.253906 345.105469 C 319.519531 344.808594 319.742188 344.078125 319.742188 343.480469 C 319.742188 342.886719 320.09375 341.589844 320.527344 340.605469 C 321.382812 338.644531 323.449219 332.734375 324.539062 329.121094 C 324.917969 327.867188 325.503906 326.203125 325.839844 325.417969 C 327.363281 321.875 329.585938 314.667969 329.796875 312.597656 L 330.027344 310.320312 L 319.183594 303.28125 Z M 159.660156 310.175781 C 157.652344 311.824219 155.144531 314.003906 154.089844 315.027344 C 151.886719 317.164062 151.890625 317.328125 154.351562 326.558594 C 155.144531 329.535156 156 332.996094 156.253906 334.25 C 156.503906 335.503906 157.113281 338.195312 157.609375 340.234375 C 158.921875 345.644531 160.207031 351.4375 160.964844 355.332031 C 161.328125 357.210938 161.789062 359.007812 161.988281 359.320312 C 162.1875 359.632812 162.523438 361.042969 162.738281 362.453125 C 162.953125 363.863281 163.378906 365.824219 163.683594 366.8125 C 163.988281 367.800781 164.472656 369.851562 164.761719 371.371094 C 165.375 374.640625 166.621094 380.550781 167.863281 386.101562 C 168.46875 388.847656 169.039062 391.601562 169.578125 394.363281 C 170.863281 401.027344 171.503906 403.957031 172.820312 409.175781 C 173.492188 411.839844 174.25 415.175781 174.5 416.585938 C 175.089844 419.859375 176.035156 424.300781 177.277344 429.617188 C 178.222656 433.65625 178.34375 433.851562 180.378906 434.550781 C 181.546875 434.949219 184.277344 435.457031 186.449219 435.675781 L 190.398438 436.074219 L 190.398438 434.3125 C 190.398438 433.347656 190.144531 431.460938 189.835938 430.125 C 189.238281 427.542969 187.75 418.5625 186.980469 412.882812 C 185.753906 403.835938 184.753906 397.417969 184.453125 396.640625 C 184.269531 396.171875 183.878906 394.121094 183.582031 392.082031 C 183.042969 388.398438 182.054688 382.207031 180.433594 372.425781 C 179.96875 369.605469 179.210938 364.863281 178.753906 361.886719 C 177.992188 356.96875 177.175781 351.800781 175.648438 342.226562 C 175.347656 340.347656 174.808594 336.886719 174.453125 334.535156 C 174.09375 332.183594 173.433594 328.46875 172.976562 326.273438 C 172.523438 324.078125 172.144531 321.515625 172.140625 320.574219 C 172.132812 319.636719 171.753906 318.367188 171.292969 317.761719 C 170.832031 317.152344 170.457031 316.292969 170.457031 315.847656 C 170.457031 315.40625 169.6875 314.070312 168.746094 312.882812 C 167.808594 311.695312 167.03125 310.503906 167.019531 310.238281 C 166.984375 309.371094 164.882812 307.183594 164.085938 307.183594 C 163.660156 307.183594 161.667969 308.53125 159.660156 310.175781 M 286.742188 309.101562 C 286.089844 310.15625 285.554688 311.15625 285.554688 311.320312 C 285.554688 311.480469 284.507812 313.179688 283.230469 315.089844 C 281.550781 317.609375 280.78125 319.46875 280.433594 321.851562 C 280.171875 323.65625 279.8125 325.519531 279.636719 325.988281 C 279.460938 326.457031 279.050781 328.765625 278.722656 331.117188 C 278.265625 334.347656 277.785156 337.578125 277.285156 340.804688 C 276.820312 343.78125 276.191406 348.394531 275.886719 351.058594 C 275.582031 353.722656 275.089844 356.800781 274.796875 357.894531 C 274.5 358.992188 273.957031 362.070312 273.585938 364.734375 C 273.21875 367.398438 272.554688 371.628906 272.117188 374.136719 C 271.679688 376.640625 271.058594 380.875 270.742188 383.535156 C 270.425781 386.199219 270.019531 388.765625 269.839844 389.234375 C 269.496094 390.125 268.113281 398.0625 267.351562 403.480469 C 267.113281 405.203125 266.640625 408.40625 266.308594 410.601562 C 265.980469 412.796875 265.292969 417.796875 264.789062 421.710938 C 264.28125 425.628906 263.625 430.214844 263.328125 431.902344 C 263.03125 433.589844 262.941406 435.21875 263.128906 435.519531 C 263.773438 436.5625 273.578125 434.839844 275.167969 433.40625 C 275.570312 433.046875 276.28125 430.589844 276.75 427.945312 C 278.199219 419.800781 279.15625 414.769531 280.105469 410.316406 C 280.609375 407.964844 281.40625 404.121094 281.878906 401.769531 C 282.351562 399.417969 282.957031 396.472656 283.222656 395.21875 C 283.488281 393.964844 284.148438 390.503906 284.683594 387.527344 C 285.222656 384.546875 285.777344 381.921875 285.921875 381.691406 C 286.0625 381.464844 286.410156 379.925781 286.691406 378.273438 C 286.972656 376.625 287.746094 372.96875 288.40625 370.148438 C 289.066406 367.328125 289.835938 363.863281 290.113281 362.457031 C 291.339844 356.246094 292.957031 348.738281 295.019531 339.664062 C 295.480469 337.625 296.214844 334.292969 296.648438 332.257812 C 298.308594 324.425781 298.644531 323.089844 299.210938 322.03125 C 299.535156 321.425781 299.800781 319.957031 299.808594 318.761719 C 299.816406 316.878906 299.449219 316.261719 297.101562 314.171875 C 295.605469 312.84375 294.105469 311.753906 293.761719 311.75 C 293.417969 311.746094 292.648438 311.203125 292.050781 310.542969 C 291.453125 309.882812 290.285156 308.855469 289.449219 308.257812 L 287.929688 307.175781 Z M 190.574219 313.308594 C 188.421875 315.113281 186.027344 317.183594 185.253906 317.917969 C 184.480469 318.648438 183.140625 319.617188 182.28125 320.070312 C 180.488281 321.007812 180.324219 322.355469 181.328125 327.984375 C 181.992188 331.699219 183.300781 340.050781 184.140625 345.929688 C 184.433594 347.96875 184.832031 350.273438 185.023438 351.058594 C 185.457031 352.796875 186.886719 361.882812 187.566406 367.207031 C 187.839844 369.351562 188.320312 372.429688 188.636719 374.046875 C 189.566406 378.765625 190.859375 386.234375 191.8125 392.367188 C 192.296875 395.503906 193.078125 400.152344 193.542969 402.699219 C 194.007812 405.25 194.386719 408.480469 194.386719 409.878906 C 194.386719 411.28125 194.652344 413.183594 194.972656 414.105469 C 195.296875 415.03125 195.800781 417.953125 196.101562 420.601562 C 196.398438 423.25 196.992188 427.804688 197.417969 430.722656 C 198.488281 438.015625 198.976562 438.457031 206.171875 438.722656 L 211.660156 438.921875 L 211.269531 431.3125 C 211.054688 427.128906 210.648438 417.9375 210.367188 410.886719 C 209.890625 398.945312 209.574219 394.339844 208.046875 377.269531 C 207.722656 373.664062 207.210938 365.460938 206.90625 359.035156 C 206.605469 352.613281 206.109375 344.792969 205.804688 341.65625 C 205.503906 338.523438 205.246094 332.542969 205.234375 328.371094 C 205.21875 323.09375 204.996094 320.554688 204.5 320.042969 C 203.539062 319.050781 201.445312 316.613281 198.464844 313.019531 C 197.105469 311.378906 195.652344 310.035156 195.242188 310.035156 C 194.828125 310.035156 192.730469 311.507812 190.574219 313.308594 M 223.847656 313.027344 C 219.105469 317.519531 216.890625 319.429688 214.753906 320.859375 L 212.628906 322.285156 L 212.625 327.144531 C 212.621094 329.816406 212.898438 334.175781 213.234375 336.828125 C 213.570312 339.484375 214.078125 345.761719 214.359375 350.773438 C 214.644531 355.789062 215.121094 363.738281 215.425781 368.4375 C 215.726562 373.136719 216.128906 379.421875 216.3125 382.398438 C 216.5 385.375 216.773438 389.734375 216.925781 392.082031 C 217.273438 397.511719 218.125 412.464844 218.925781 427.125 C 219.265625 433.394531 219.742188 438.726562 219.984375 438.976562 C 220.226562 439.226562 223.09375 439.582031 226.359375 439.765625 C 231.046875 440.03125 232.425781 439.9375 232.921875 439.3125 C 233.285156 438.859375 233.699219 434.738281 233.898438 429.6875 C 234.308594 419.167969 235.277344 401.253906 235.71875 396.070312 C 236.289062 389.359375 236.445312 386.765625 236.804688 377.839844 C 237 372.980469 237.398438 366.316406 237.691406 363.023438 C 237.980469 359.734375 238.371094 353.066406 238.558594 348.210938 C 238.742188 343.351562 239.117188 338.097656 239.390625 336.53125 C 239.664062 334.960938 240.042969 331.078125 240.238281 327.902344 L 240.585938 322.121094 L 238.710938 320.960938 C 237.679688 320.324219 234.769531 317.734375 232.238281 315.203125 C 229.710938 312.671875 227.363281 310.605469 227.023438 310.605469 C 226.679688 310.605469 225.25 311.695312 223.847656 313.027344 M 255.96875 312.121094 C 254.773438 312.957031 252.996094 314.78125 249.453125 318.804688 C 247.824219 320.65625 247.566406 321.839844 247.453125 327.984375 C 247.394531 331.117188 247.078125 337.398438 246.75 341.941406 C 246.417969 346.488281 245.914062 354.691406 245.625 360.175781 C 245.335938 365.660156 244.742188 375.789062 244.300781 382.683594 C 243.855469 389.578125 243.210938 400.859375 242.863281 407.753906 C 242.515625 414.648438 241.972656 424.371094 241.652344 429.359375 C 241.191406 436.601562 241.222656 438.535156 241.804688 438.933594 C 242.207031 439.207031 244.84375 439.273438 247.664062 439.078125 C 254.125 438.632812 254.542969 438.257812 255.296875 432.253906 C 255.613281 429.746094 256.125 426.15625 256.4375 424.277344 C 256.75 422.394531 257.394531 417.910156 257.875 414.304688 C 258.355469 410.703125 258.882812 406.855469 259.050781 405.757812 C 259.214844 404.660156 259.609375 401.457031 259.921875 398.636719 C 260.234375 395.816406 260.746094 392.917969 261.058594 392.199219 C 261.367188 391.480469 261.621094 389.929688 261.621094 388.757812 C 261.621094 387.585938 262.007812 385.148438 262.476562 383.34375 C 262.949219 381.539062 263.332031 379.40625 263.332031 378.605469 C 263.332031 377.804688 263.699219 375.445312 264.152344 373.363281 C 265.277344 368.175781 265.804688 364.953125 268.453125 347.070312 C 268.707031 345.347656 269.21875 341.371094 269.589844 338.238281 C 269.957031 335.105469 270.625 330.949219 271.070312 329.003906 C 271.953125 325.148438 272.097656 322.046875 271.441406 321.132812 C 271.210938 320.8125 270.363281 320.261719 269.558594 319.910156 C 268.238281 319.332031 266.488281 317.953125 260.570312 312.824219 C 258.363281 310.914062 257.808594 310.828125 255.96875 312.121094 " fill-opacity="1" fill-rule="evenodd"/></g></svg>