<svg xmlns="http://www.w3.org/2000/svg" xmlns:xlink="http://www.w3.org/1999/xlink" width="600" zoomAndPan="magnify" viewBox="0 0 450 457.91998" height="601" preserveAspectRatio="xMidYMid meet" version="1.0"><defs><clipPath id="599533b3d1"><path d="M 18.359375 18.953125 L 431.535156 18.953125 L 431.535156 431.378906 L 18.359375 431.378906 Z M 18.359375 18.953125 " clip-rule="nonzero"/></clipPath></defs><g clip-path="url(#599533b3d1)"><path fill="#f08632" d="M 371.621094 315.46875 L 367.289062 315.722656 C 350.328125 316.734375 332.839844 317.773438 302.433594 317.972656 C 302.78125 316.292969 303.117188 314.609375 303.410156 312.914062 C 304.808594 304.820312 305.519531 296.546875 305.519531 288.167969 C 305.519531 282.664062 305.207031 277.210938 304.597656 271.820312 L 336.449219 271.820312 C 339.292969 271.820312 341.605469 274.132812 341.605469 276.972656 L 341.605469 277.175781 C 341.605469 280.503906 343.03125 283.710938 345.507812 285.964844 C 347.988281 288.207031 351.316406 289.316406 354.644531 288.996094 C 360.753906 288.398438 365.355469 283.234375 365.355469 276.972656 C 365.355469 274.132812 367.667969 271.820312 370.511719 271.820312 L 417.554688 271.820312 C 416.792969 282.886719 412.105469 293.179688 404.179688 301.089844 C 395.621094 309.628906 384.0625 314.734375 371.621094 315.46875 Z M 393.542969 365.515625 L 381.601562 365.515625 C 380.5 365.515625 379.425781 365.667969 378.410156 365.953125 C 373.40625 367.355469 369.730469 371.945312 369.730469 377.386719 L 369.730469 381.824219 C 369.730469 384.683594 367.589844 387.128906 364.867188 387.394531 C 364.484375 387.433594 364.101562 387.429688 363.726562 387.390625 C 362.730469 387.277344 361.792969 386.882812 360.988281 386.246094 C 360.898438 386.167969 360.804688 386.097656 360.714844 386.015625 C 359.582031 384.988281 358.933594 383.535156 358.933594 382.023438 L 358.933594 377.386719 C 358.933594 372.316406 355.730469 367.976562 351.238281 366.277344 C 349.941406 365.785156 348.527344 365.515625 347.058594 365.515625 C 345.949219 365.515625 344.878906 365.667969 343.859375 365.953125 C 338.863281 367.359375 335.183594 371.953125 335.183594 377.386719 L 335.183594 384.960938 C 335.183594 387.738281 333.171875 390.117188 330.558594 390.496094 C 330.480469 390.511719 330.40625 390.523438 330.324219 390.53125 C 329.398438 390.621094 328.5 390.476562 327.679688 390.125 C 327.136719 389.894531 326.625 389.570312 326.167969 389.15625 C 325.039062 388.128906 324.390625 386.671875 324.390625 385.160156 L 324.390625 377.386719 C 324.390625 372 320.78125 367.445312 315.851562 366 C 314.789062 365.6875 313.671875 365.515625 312.515625 365.515625 L 282.949219 365.515625 C 291.101562 352.820312 297.15625 338.96875 300.925781 324.390625 C 329.359375 324.238281 346.691406 323.359375 362.535156 322.429688 C 364.261719 322.324219 365.96875 322.226562 367.675781 322.125 L 370.976562 321.929688 C 395.09375 322.628906 414.695312 341.640625 416.335938 365.515625 Z M 86.28125 402.554688 C 87.441406 402.578125 88.605469 402.59375 89.765625 402.601562 C 91.777344 402.613281 93.816406 402.632812 95.757812 402.738281 C 98.804688 402.910156 101.597656 403.308594 103.640625 404.292969 C 104.9375 404.921875 106.199219 405.695312 107.449219 406.566406 C 109.34375 407.878906 111.214844 409.410156 113.148438 411 C 117.945312 414.941406 122.90625 419.019531 129.230469 420.457031 C 135.394531 421.855469 141.707031 420.800781 147.816406 419.78125 C 151.628906 419.148438 155.570312 418.492188 159.289062 418.492188 C 163.0625 418.492188 166.925781 419.234375 171.019531 420.023438 C 175.152344 420.824219 179.382812 421.640625 183.589844 421.640625 C 185.5625 421.640625 187.527344 421.460938 189.476562 421.015625 C 196.761719 419.363281 203.378906 415.8125 209.777344 412.386719 C 212.277344 411.046875 214.640625 409.777344 217.027344 408.628906 C 220.398438 407 225.632812 406.660156 230.699219 406.332031 C 231.058594 406.3125 231.421875 406.289062 231.777344 406.261719 C 210.867188 418.671875 186.933594 425.296875 161.984375 425.296875 C 134.648438 425.296875 108.535156 417.351562 86.28125 402.554688 Z M 39.261719 243.007812 C 37.242188 248.613281 35.496094 254.503906 34.203125 260.179688 C 33.425781 263.613281 30.441406 267.175781 27.289062 270.949219 C 26.757812 271.582031 26.230469 272.214844 25.707031 272.855469 C 26.746094 263.511719 28.734375 254.320312 31.664062 245.382812 C 34.320312 244.960938 36.875 244.152344 39.261719 243.007812 Z M 175.953125 151.738281 C 174.691406 152.523438 173.441406 153.347656 172.195312 154.175781 C 167.667969 157.167969 162.988281 160.261719 159.289062 160.261719 C 155.234375 160.261719 152.414062 159.570312 149.683594 158.902344 C 146.046875 158.011719 142.285156 157.09375 136.46875 157.933594 C 134.855469 158.171875 130.859375 158.402344 127.921875 158.542969 C 127.941406 158.097656 127.953125 157.648438 127.953125 157.191406 C 127.953125 156.570312 127.933594 155.945312 127.898438 155.3125 C 138.996094 152.476562 150.449219 151.039062 161.984375 151.039062 C 166.679688 151.039062 171.339844 151.277344 175.953125 151.738281 Z M 296.753906 217.917969 C 293.3125 217.84375 290.121094 217.792969 287.136719 217.757812 C 286.359375 216.378906 285.554688 215.019531 284.730469 213.667969 C 278.816406 203.96875 271.714844 194.90625 263.480469 186.667969 C 258.519531 181.707031 253.257812 177.160156 247.734375 173.027344 L 291.332031 173.027344 C 294.175781 173.027344 296.488281 175.339844 296.488281 178.183594 L 296.488281 183.136719 C 296.488281 186.46875 297.910156 189.667969 300.394531 191.921875 C 302.867188 194.171875 306.199219 195.277344 309.523438 194.953125 C 315.632812 194.363281 320.238281 189.195312 320.238281 182.9375 L 320.238281 178.183594 C 320.238281 175.339844 322.550781 173.027344 325.398438 173.027344 C 327.210938 173.027344 328.691406 174.507812 328.691406 176.324219 L 328.691406 202.660156 C 328.691406 205.996094 330.109375 209.199219 332.59375 211.453125 C 333.117188 211.921875 333.671875 212.34375 334.261719 212.714844 C 336.152344 213.898438 338.347656 214.535156 340.585938 214.535156 C 340.964844 214.535156 341.347656 214.519531 341.726562 214.480469 C 344.027344 214.261719 346.113281 213.382812 347.824219 212.046875 C 350.648438 209.835938 352.441406 206.363281 352.441406 202.464844 L 352.441406 178.425781 C 352.441406 175.449219 354.859375 173.027344 357.835938 173.027344 L 358.996094 173.027344 C 361.421875 173.027344 363.398438 175.003906 363.398438 177.4375 C 363.398438 183.691406 368 188.863281 374.113281 189.453125 C 377.441406 189.777344 380.765625 188.671875 383.238281 186.421875 C 385.722656 184.167969 387.148438 180.96875 387.148438 177.632812 L 387.148438 177.433594 C 387.148438 175.003906 389.121094 173.027344 391.550781 173.027344 L 422.316406 173.027344 C 420.875 196.964844 403.457031 214.371094 378.960938 215.8125 C 357.492188 217.074219 335.292969 217.917969 296.753906 217.917969 Z M 397.429688 265.34375 L 370.511719 265.34375 C 369.738281 265.34375 368.980469 265.417969 368.253906 265.566406 C 362.917969 266.617188 358.878906 271.335938 358.878906 276.972656 C 358.878906 279.71875 356.910156 282.082031 354.335938 282.5 C 354.230469 282.519531 354.125 282.535156 354.015625 282.546875 C 352.914062 282.652344 351.84375 282.421875 350.898438 281.90625 C 350.53125 281.703125 350.1875 281.460938 349.867188 281.167969 C 348.730469 280.140625 348.082031 278.683594 348.082031 277.175781 L 348.082031 276.972656 C 348.082031 271.363281 344.09375 266.671875 338.800781 265.582031 C 338.042969 265.421875 337.253906 265.34375 336.449219 265.34375 L 303.722656 265.34375 C 301.433594 250.984375 297.007812 237.167969 290.59375 224.273438 C 290.765625 224.273438 290.933594 224.277344 291.109375 224.277344 C 292.003906 224.277344 292.902344 224.273438 293.800781 224.273438 C 294.734375 224.289062 295.679688 224.308594 296.648438 224.328125 C 296.671875 224.328125 296.695312 224.328125 296.722656 224.328125 C 328.625 224.328125 349.386719 223.753906 367.785156 222.84375 C 371.714844 222.644531 375.535156 222.4375 379.335938 222.210938 C 379.527344 222.199219 379.71875 222.1875 379.902344 222.175781 C 401.660156 225.167969 418.699219 243.15625 420.222656 265.34375 Z M 234.847656 411.898438 C 239.941406 408.882812 244.863281 405.550781 249.585938 401.894531 C 249.796875 401.746094 250.007812 401.597656 250.210938 401.4375 C 250.304688 401.363281 250.390625 401.277344 250.480469 401.203125 C 255.003906 397.644531 259.347656 393.796875 263.480469 389.664062 C 269.015625 384.128906 274.035156 378.21875 278.527344 371.992188 L 312.515625 371.992188 C 315.492188 371.992188 317.914062 374.414062 317.914062 377.386719 L 317.914062 385.160156 C 317.914062 388.492188 319.332031 391.699219 321.816406 393.953125 C 324.011719 395.941406 326.871094 397.035156 329.808594 397.035156 C 330.183594 397.035156 330.570312 397.019531 330.949219 396.980469 C 337.054688 396.386719 341.660156 391.222656 341.660156 384.960938 L 341.660156 377.386719 C 341.660156 374.414062 344.082031 371.992188 347.058594 371.992188 C 350.035156 371.992188 352.457031 374.414062 352.457031 377.386719 L 352.457031 382.023438 C 352.457031 385.355469 353.878906 388.558594 356.359375 390.8125 C 358.835938 393.058594 362.164062 394.167969 365.492188 393.839844 C 371.597656 393.25 376.207031 388.082031 376.207031 381.824219 L 376.207031 377.386719 C 376.207031 374.414062 378.625 371.992188 381.601562 371.992188 L 413.671875 371.992188 C 412.042969 396.335938 392.144531 415.632812 367.921875 415.636719 L 348.476562 415.636719 C 333.109375 415.640625 314.742188 415.648438 286.8125 415.648438 C 260.398438 415.648438 242.773438 415.640625 228.097656 415.640625 C 230.382812 414.453125 232.632812 413.207031 234.847656 411.898438 Z M 39.578125 346.386719 C 42.558594 352.554688 47.167969 357.367188 51.625 362.011719 C 53.984375 364.472656 56.214844 366.800781 58.230469 369.324219 C 60.511719 372.183594 61.433594 376.6875 62.414062 381.457031 C 62.5 381.882812 62.589844 382.308594 62.679688 382.734375 C 43.09375 362.191406 30.597656 336.609375 26.414062 308.964844 C 28.203125 312.203125 29.757812 315.289062 30.410156 318.148438 C 32.371094 326.777344 34.992188 336.878906 39.578125 346.386719 Z M 263.65625 196.144531 C 269.585938 202.683594 274.8125 209.699219 279.3125 217.105469 C 277.539062 216.457031 275.691406 215.871094 273.851562 215.296875 C 273.5625 215.203125 273.273438 215.117188 272.988281 215.027344 C 267.449219 213.308594 261.722656 211.53125 259.539062 208.792969 C 257.242188 205.917969 255.527344 202.40625 253.710938 198.683594 C 251.015625 193.164062 248.230469 187.457031 243.238281 183.472656 C 238.246094 179.488281 232.085938 177.882812 226.125 176.339844 C 222.179688 175.316406 218.453125 174.347656 215.140625 172.75 C 211.972656 171.222656 208.839844 166.507812 205.8125 161.945312 C 204.722656 160.316406 203.628906 158.667969 202.496094 157.097656 C 223.582031 163.585938 242.90625 175.160156 258.945312 191.199219 C 260.5625 192.816406 262.132812 194.464844 263.65625 196.144531 Z M 299.113281 288.167969 C 299.113281 324.796875 284.847656 359.230469 258.945312 385.128906 C 258.28125 385.800781 257.605469 386.457031 256.925781 387.105469 C 257.160156 385.832031 257.371094 384.539062 257.582031 383.257812 C 258.398438 378.253906 259.246094 373.078125 261.503906 370.246094 C 263.3125 367.980469 265.328125 365.730469 267.277344 363.554688 C 271.839844 358.457031 276.558594 353.1875 279.683594 346.714844 C 282.539062 340.792969 283.234375 334.316406 283.914062 328.046875 C 284.289062 324.546875 284.679688 320.917969 285.449219 317.53125 C 286.097656 314.679688 286.921875 311.886719 287.800781 308.933594 C 289.695312 302.554688 291.65625 295.957031 291.65625 288.738281 C 291.65625 279.855469 291.339844 269.386719 289.007812 259.128906 C 288.179688 255.484375 289.445312 250.355469 290.667969 245.390625 C 290.902344 244.441406 291.136719 243.484375 291.363281 242.527344 C 296.453125 257 299.113281 272.378906 299.113281 288.167969 Z M 197.382812 125.960938 C 201.652344 126.214844 205.988281 126.464844 210.582031 126.707031 C 225.660156 127.492188 243.519531 128.128906 271.027344 128.128906 C 271.054688 128.128906 271.078125 128.128906 271.101562 128.128906 C 282.691406 127.875 291.167969 127.804688 298.648438 127.746094 C 315.148438 127.609375 326.054688 127.519531 352.378906 125.574219 C 355.375 125.355469 358.300781 124.917969 361.132812 124.292969 C 365.074219 124.015625 368.46875 123.757812 371.191406 123.546875 C 375.195312 123.226562 377.742188 123 378.378906 122.941406 C 403.058594 123.019531 423.308594 142.269531 424.972656 166.550781 L 391.550781 166.550781 C 390.753906 166.550781 389.980469 166.640625 389.230469 166.804688 C 384.339844 167.871094 380.671875 172.230469 380.671875 177.433594 L 380.671875 177.632812 C 380.671875 179.140625 380.019531 180.601562 378.886719 181.625 C 378.046875 182.394531 377.019531 182.859375 375.921875 182.988281 C 375.53125 183.035156 375.132812 183.046875 374.734375 183.003906 C 373.707031 182.90625 372.757812 182.492188 371.980469 181.863281 C 370.699219 180.828125 369.875 179.210938 369.875 177.433594 C 369.875 172.792969 366.953125 168.820312 362.855469 167.261719 C 361.65625 166.804688 360.351562 166.550781 358.996094 166.550781 L 357.835938 166.550781 C 356.945312 166.550781 356.078125 166.652344 355.238281 166.839844 C 349.941406 168.03125 345.964844 172.773438 345.964844 178.425781 L 345.964844 202.464844 C 345.964844 205.039062 344.226562 207.273438 341.890625 207.886719 C 341.636719 207.953125 341.375 208.007812 341.101562 208.03125 C 339.941406 208.144531 338.824219 207.894531 337.851562 207.324219 C 337.535156 207.136719 337.234375 206.910156 336.949219 206.65625 C 335.816406 205.628906 335.167969 204.171875 335.167969 202.660156 L 335.167969 176.324219 C 335.167969 172.476562 332.933594 169.148438 329.695312 167.550781 C 328.398438 166.914062 326.9375 166.550781 325.390625 166.550781 C 324.535156 166.550781 323.695312 166.648438 322.886719 166.824219 C 317.675781 167.976562 313.761719 172.628906 313.761719 178.183594 L 313.761719 182.9375 C 313.761719 185.027344 312.613281 186.894531 310.933594 187.851562 C 310.316406 188.199219 309.632812 188.433594 308.902344 188.507812 C 308.09375 188.585938 307.308594 188.480469 306.578125 188.222656 C 305.914062 187.984375 305.292969 187.621094 304.75 187.125 C 303.617188 186.097656 302.964844 184.644531 302.964844 183.136719 L 302.964844 178.183594 C 302.964844 172.582031 298.984375 167.890625 293.703125 166.796875 C 292.9375 166.636719 292.144531 166.550781 291.332031 166.550781 L 238.320312 166.550781 C 223.859375 157.441406 207.929688 151.03125 191.164062 147.585938 C 191.019531 147.546875 190.875 147.507812 190.726562 147.476562 C 190.414062 147.402344 190.097656 147.351562 189.785156 147.304688 C 188.929688 147.140625 188.074219 146.980469 187.214844 146.832031 C 182.894531 146.066406 178.519531 145.507812 174.109375 145.140625 C 179.511719 136.441406 187.683594 129.636719 197.382812 125.960938 Z M 157.480469 75.535156 L 160.316406 75.535156 C 163.164062 75.535156 165.476562 77.84375 165.476562 80.691406 L 165.476562 88.445312 C 165.476562 94.703125 170.082031 99.871094 176.1875 100.464844 C 176.566406 100.496094 176.949219 100.515625 177.328125 100.515625 C 180.265625 100.515625 183.125 99.421875 185.320312 97.429688 C 187.800781 95.179688 189.222656 91.976562 189.222656 88.644531 L 189.222656 80.691406 C 189.222656 77.84375 191.535156 75.535156 194.378906 75.535156 L 397.886719 75.535156 C 397.117188 86.546875 392.4375 96.785156 384.507812 104.648438 C 375.988281 113.101562 364.410156 118.261719 351.90625 119.1875 C 325.789062 121.109375 314.96875 121.203125 298.589844 121.335938 C 291.101562 121.394531 282.613281 121.464844 271 121.71875 C 233.976562 121.714844 214.523438 120.558594 195.707031 119.441406 L 191.378906 119.179688 C 183.53125 118.71875 176.035156 116.519531 169.417969 112.808594 C 165.550781 110.640625 161.980469 107.953125 158.820312 104.808594 C 150.890625 96.890625 146.210938 86.597656 145.445312 75.535156 Z M 30.835938 303.59375 C 29.980469 302.070312 29.117188 300.535156 28.324219 298.996094 C 26.402344 295.28125 24.886719 291.585938 24.886719 288.167969 C 24.886719 283.914062 28.464844 279.636719 32.253906 275.109375 C 35.765625 270.910156 39.394531 266.570312 40.519531 261.621094 C 42.488281 252.957031 45.550781 243.800781 49.039062 236.085938 C 65.757812 239.542969 79.621094 231.769531 86.714844 214.886719 C 100.117188 211.183594 109.773438 200.183594 113.460938 184.359375 C 113.878906 184.039062 114.292969 183.71875 114.699219 183.410156 C 121.421875 178.246094 126.859375 174.066406 128.363281 165.007812 C 131.203125 164.871094 135.464844 164.628906 137.402344 164.347656 C 141.96875 163.683594 144.695312 164.347656 148.140625 165.195312 C 151.101562 165.921875 154.457031 166.738281 159.289062 166.738281 C 164.933594 166.738281 170.441406 163.101562 175.769531 159.578125 C 180.671875 156.339844 185.742188 152.988281 189.292969 153.792969 C 191.039062 154.1875 192.738281 155.507812 194.398438 157.324219 C 196.453125 159.570312 198.453125 162.578125 200.414062 165.53125 C 203.925781 170.820312 207.558594 176.285156 212.328125 178.585938 C 216.210938 180.457031 220.421875 181.550781 224.496094 182.609375 C 230.042969 184.046875 235.28125 185.40625 239.195312 188.53125 C 243.046875 191.613281 245.402344 196.425781 247.890625 201.523438 C 249.78125 205.398438 251.738281 209.402344 254.476562 212.835938 C 257.902344 217.121094 264.59375 219.203125 271.066406 221.210938 C 274.007812 222.125 277.136719 223.097656 279.757812 224.253906 C 282.484375 225.460938 284.65625 226.863281 285.496094 228.605469 C 287.246094 232.226562 285.789062 238.128906 284.378906 243.839844 C 282.976562 249.53125 281.523438 255.421875 282.691406 260.566406 C 284.878906 270.199219 285.179688 280.210938 285.179688 288.738281 C 285.179688 295.015625 283.433594 300.882812 281.589844 307.089844 C 280.726562 310.015625 279.828125 313.035156 279.132812 316.09375 C 278.277344 319.851562 277.867188 323.664062 277.46875 327.355469 C 276.828125 333.339844 276.21875 338.988281 273.851562 343.902344 C 271.128906 349.546875 266.914062 354.253906 262.453125 359.230469 C 260.445312 361.476562 258.363281 363.796875 256.441406 366.207031 C 253.125 370.359375 252.140625 376.386719 251.1875 382.210938 C 250.25 387.953125 249.285156 393.890625 246.171875 396.375 C 242.808594 399.0625 236.441406 399.472656 230.28125 399.871094 C 224.597656 400.238281 218.722656 400.621094 214.210938 402.796875 C 211.699219 404.003906 209.167969 405.363281 206.714844 406.675781 C 200.699219 409.902344 194.472656 413.242188 188.042969 414.699219 C 183.253906 415.789062 177.90625 414.757812 172.246094 413.664062 C 168.035156 412.851562 163.679688 412.015625 159.289062 412.015625 C 155.035156 412.015625 150.824219 412.714844 146.753906 413.394531 C 141.007812 414.355469 135.585938 415.257812 130.664062 414.136719 C 127.433594 413.40625 124.503906 411.628906 121.59375 409.449219 C 120.15625 408.375 118.71875 407.195312 117.261719 405.996094 C 113.894531 403.230469 110.414062 400.367188 106.453125 398.460938 C 104.773438 397.648438 102.902344 397.125 100.917969 396.789062 C 97.421875 396.183594 93.578125 396.15625 89.8125 396.125 C 83.707031 396.078125 77.390625 396.023438 74.160156 393.441406 C 73.332031 392.785156 72.648438 391.945312 72.070312 390.96875 C 70.40625 388.175781 69.597656 384.25 68.757812 380.15625 C 67.671875 374.84375 66.542969 369.355469 63.292969 365.28125 C 61.09375 362.53125 58.65625 359.988281 56.296875 357.53125 C 52.003906 353.046875 47.945312 348.816406 45.414062 343.570312 C 45.125 342.972656 44.847656 342.375 44.574219 341.773438 C 40.777344 333.363281 38.480469 324.433594 36.722656 316.714844 C 36.71875 316.6875 36.710938 316.660156 36.703125 316.636719 C 35.6875 312.238281 33.222656 307.84375 30.835938 303.59375 Z M 189.417969 25.449219 C 189.480469 25.449219 189.574219 25.457031 189.6875 25.464844 C 193.863281 25.710938 233.148438 27.988281 271.894531 27.988281 C 302.195312 27.988281 332.753906 26.585938 346.496094 25.859375 C 350.730469 25.636719 353.367188 25.480469 353.917969 25.449219 C 378.617188 25.5 398.886719 44.761719 400.554688 69.058594 L 194.378906 69.058594 C 194.085938 69.058594 193.792969 69.070312 193.503906 69.09375 C 187.496094 69.542969 182.746094 74.574219 182.746094 80.691406 L 182.746094 88.644531 C 182.746094 90.152344 182.097656 91.605469 180.964844 92.632812 C 180.898438 92.695312 180.832031 92.746094 180.761719 92.804688 C 179.648438 93.722656 178.261719 94.152344 176.8125 94.015625 C 176.675781 94.003906 176.542969 93.976562 176.40625 93.957031 C 173.878906 93.5 171.953125 91.160156 171.953125 88.445312 L 171.953125 80.691406 C 171.953125 75.136719 168.039062 70.480469 162.824219 69.332031 C 162.019531 69.152344 161.179688 69.058594 160.316406 69.058594 L 142.777344 69.058594 C 144.445312 44.761719 164.71875 25.496094 189.417969 25.449219 Z M 414.808594 206.347656 C 423.15625 197.582031 428.039062 185.832031 428.738281 173 C 430.328125 172.792969 431.558594 171.4375 431.558594 169.789062 C 431.558594 140.957031 408.558594 117.398438 379.9375 116.496094 C 393.976562 107.457031 403.269531 92.59375 404.3125 75.507812 C 405.910156 75.308594 407.144531 73.949219 407.144531 72.296875 C 407.144531 42.890625 383.222656 18.96875 353.816406 18.96875 C 353.753906 18.96875 353.683594 18.96875 353.617188 18.980469 C 353.210938 19 312.328125 21.511719 271.894531 21.511719 C 231.320312 21.511719 190.125 19 189.714844 18.980469 C 189.648438 18.96875 189.582031 18.96875 189.515625 18.96875 C 160.113281 18.96875 136.191406 42.890625 136.191406 72.296875 C 136.191406 73.949219 137.425781 75.308594 139.023438 75.507812 C 139.792969 88.292969 145.144531 100.210938 154.292969 109.34375 C 162.59375 117.628906 173.375 123.046875 185.125 124.933594 C 177.484375 129.855469 171.183594 136.675781 166.878906 144.71875 C 165.25 144.667969 163.621094 144.628906 161.984375 144.628906 C 148.964844 144.628906 136.046875 146.382812 123.582031 149.832031 C 122.027344 150.261719 121.035156 151.78125 121.265625 153.375 C 121.449219 154.65625 121.542969 155.9375 121.542969 157.191406 C 121.542969 164.136719 118.894531 170.609375 114.242188 175.46875 C 113.21875 176.335938 112.066406 177.261719 110.753906 178.269531 C 110.042969 178.816406 109.3125 179.378906 108.5625 179.960938 C 107.960938 180.433594 107.542969 181.097656 107.386719 181.84375 C 106.472656 186.171875 105.058594 190.078125 103.214844 193.511719 C 98.976562 200.8125 92.171875 206.453125 84.214844 208.839844 C 84.015625 208.886719 83.816406 208.945312 83.613281 208.988281 C 82.554688 209.226562 81.6875 209.980469 81.300781 210.992188 C 78.257812 218.945312 73.757812 224.5625 67.933594 227.679688 C 62.242188 230.730469 55.558594 231.242188 48.074219 229.199219 C 46.636719 228.804688 45.125 229.449219 44.402344 230.730469 C 40.71875 235.65625 35.132812 238.757812 29.011719 239.25 C 27.742188 239.355469 26.65625 240.203125 26.242188 241.402344 C 21.1875 256.078125 18.570312 271.433594 18.453125 287.058594 C 18.425781 287.421875 18.410156 287.796875 18.410156 288.167969 C 18.410156 288.609375 18.429688 289.050781 18.460938 289.488281 C 18.796875 327.332031 33.683594 362.867188 60.484375 389.664062 C 63.269531 392.449219 66.152344 395.101562 69.121094 397.628906 C 69.4375 397.929688 69.765625 398.226562 70.117188 398.507812 C 70.234375 398.597656 70.359375 398.679688 70.480469 398.769531 C 96.164062 420.097656 128.179688 431.710938 161.984375 431.710938 C 180.046875 431.710938 197.601562 428.386719 213.953125 422.050781 L 226.066406 422.050781 C 241.144531 422.054688 259.167969 422.058594 286.8125 422.058594 C 314.742188 422.058594 333.109375 422.054688 348.480469 422.050781 L 367.925781 422.046875 C 395.683594 422.046875 418.460938 399.859375 420.09375 371.964844 C 421.6875 371.761719 422.921875 370.40625 422.921875 368.753906 C 422.921875 345.78125 408.320312 326.15625 387.90625 318.667969 C 395.722656 315.910156 402.835938 311.488281 408.707031 305.628906 C 417.855469 296.5 423.207031 284.582031 423.976562 271.792969 C 425.574219 271.589844 426.808594 270.234375 426.808594 268.582031 C 426.808594 246.472656 413.285156 227.464844 394.074219 219.394531 C 402.042969 216.726562 409.152344 212.289062 414.808594 206.347656 " fill-opacity="1" fill-rule="nonzero"/></g><path fill="#f08632" d="M 155.855469 268.582031 C 155.855469 270.234375 157.09375 271.59375 158.691406 271.792969 C 159.847656 290.792969 171.207031 307.039062 187.945312 315.589844 C 181.171875 322.003906 172.027344 325.949219 161.984375 325.949219 C 141.148438 325.949219 124.199219 309 124.199219 288.167969 C 124.199219 268.335938 139.5625 252.019531 159.015625 250.5 C 156.972656 256.148438 155.855469 262.238281 155.855469 268.582031 Z M 175.886719 265.34375 L 162.445312 265.34375 C 162.800781 260.148438 164.007812 255.183594 165.929688 250.589844 C 170.195312 251.035156 174.25 252.191406 177.976562 253.941406 C 183.546875 256.558594 188.378906 260.492188 192.070312 265.34375 Z M 190.015625 309.414062 C 185.777344 307.152344 181.890625 304.308594 178.492188 300.933594 C 170.5625 293.070312 165.882812 282.832031 165.113281 271.820312 L 196.042969 271.820312 C 198.425781 276.769531 199.765625 282.316406 199.765625 288.167969 C 199.765625 294.789062 198.050781 301.015625 195.046875 306.433594 C 194.375 307.648438 193.632812 308.824219 192.832031 309.953125 C 192.679688 310.167969 192.523438 310.386719 192.367188 310.597656 C 191.570312 310.222656 190.785156 309.828125 190.015625 309.414062 Z M 161.984375 332.425781 C 186.386719 332.425781 206.242188 312.570312 206.242188 288.167969 C 206.242188 284.015625 205.664062 279.996094 204.59375 276.183594 C 200.5 261.652344 189.15625 250.132812 174.734375 245.785156 C 170.695312 244.566406 166.414062 243.90625 161.984375 243.90625 C 137.578125 243.90625 117.722656 263.761719 117.722656 288.167969 C 117.722656 295.472656 119.503906 302.367188 122.652344 308.449219 C 127.523438 317.859375 135.675781 325.308594 145.585938 329.277344 C 150.660156 331.308594 156.191406 332.425781 161.984375 332.425781 " fill-opacity="1" fill-rule="nonzero"/><path fill="#f08632" d="M 136.160156 199.117188 C 136.636719 200.050781 137.503906 200.652344 138.460938 200.835938 C 138.65625 200.875 138.855469 200.894531 139.054688 200.894531 C 139.546875 200.894531 140.042969 200.789062 140.511719 200.550781 L 156.574219 192.445312 C 157.886719 191.78125 158.550781 190.34375 158.296875 188.964844 C 158.242188 188.667969 158.148438 188.378906 158.003906 188.09375 C 157.199219 186.5 155.25 185.855469 153.65625 186.664062 L 137.59375 194.769531 C 135.996094 195.570312 135.355469 197.519531 136.160156 199.117188 " fill-opacity="1" fill-rule="nonzero"/><path fill="#f08632" d="M 82.542969 329.675781 L 100.414062 327.609375 C 102.191406 327.402344 103.464844 325.796875 103.261719 324.023438 C 103.25 323.945312 103.238281 323.871094 103.222656 323.796875 C 102.914062 322.140625 101.371094 320.976562 99.671875 321.175781 L 81.800781 323.242188 C 80.023438 323.445312 78.75 325.050781 78.953125 326.828125 C 79.121094 328.277344 80.21875 329.390625 81.582031 329.640625 C 81.773438 329.675781 81.96875 329.695312 82.167969 329.695312 C 82.292969 329.695312 82.417969 329.6875 82.542969 329.675781 " fill-opacity="1" fill-rule="nonzero"/><path fill="#f08632" d="M 190.960938 361.183594 C 189.605469 362.351562 189.453125 364.390625 190.617188 365.746094 L 191.703125 367.011719 L 202.347656 379.386719 C 202.992188 380.132812 203.894531 380.511719 204.808594 380.511719 C 205.554688 380.511719 206.304688 380.257812 206.917969 379.730469 C 207.402344 379.316406 207.726562 378.785156 207.902344 378.21875 C 208.210938 377.191406 208.011719 376.03125 207.257812 375.160156 L 195.527344 361.523438 C 194.359375 360.167969 192.316406 360.015625 190.960938 361.183594 " fill-opacity="1" fill-rule="nonzero"/><path fill="#f08632" d="M 277.492188 286.390625 C 278.132812 287.136719 279.039062 287.519531 279.949219 287.519531 C 280.699219 287.519531 281.449219 287.265625 282.0625 286.734375 C 283.417969 285.570312 283.566406 283.523438 282.402344 282.167969 L 278.636719 277.789062 L 270.667969 268.53125 C 269.503906 267.175781 267.457031 267.023438 266.101562 268.191406 C 264.746094 269.355469 264.59375 271.398438 265.761719 272.753906 L 267.085938 274.300781 L 277.492188 286.390625 " fill-opacity="1" fill-rule="nonzero"/><path fill="#f08632" d="M 259.882812 320.007812 C 261.300781 318.917969 261.5625 316.882812 260.476562 315.46875 L 250.695312 302.761719 L 249.503906 301.210938 C 248.410156 299.792969 246.378906 299.527344 244.960938 300.621094 C 243.542969 301.710938 243.277344 303.746094 244.367188 305.160156 L 255.339844 319.414062 C 255.71875 319.902344 256.203125 320.253906 256.742188 320.460938 C 257.117188 320.601562 257.511719 320.679688 257.910156 320.679688 C 258.601562 320.679688 259.296875 320.460938 259.882812 320.007812 " fill-opacity="1" fill-rule="nonzero"/><path fill="#f08632" d="M 240.21875 221.992188 C 238.480469 222.40625 237.40625 224.152344 237.820312 225.890625 L 241.976562 243.398438 C 242.277344 244.679688 243.3125 245.597656 244.527344 245.828125 C 244.722656 245.863281 244.921875 245.890625 245.125 245.890625 C 245.371094 245.890625 245.621094 245.859375 245.875 245.796875 C 247.617188 245.382812 248.691406 243.640625 248.277344 241.898438 L 244.15625 224.554688 L 244.121094 224.398438 C 243.703125 222.65625 241.964844 221.578125 240.21875 221.992188 " fill-opacity="1" fill-rule="nonzero"/><path fill="#f08632" d="M 202.828125 199.945312 C 202.984375 199.964844 203.140625 199.980469 203.292969 199.980469 C 204.878906 199.980469 206.261719 198.816406 206.496094 197.203125 C 206.546875 196.84375 206.535156 196.492188 206.472656 196.148438 C 206.226562 194.824219 205.164062 193.742188 203.75 193.535156 L 185.945312 190.96875 C 184.179688 190.714844 182.535156 191.941406 182.28125 193.710938 C 182.03125 195.4375 183.195312 197.039062 184.890625 197.355469 C 184.9375 197.363281 184.976562 197.371094 185.023438 197.382812 L 202.828125 199.945312 " fill-opacity="1" fill-rule="nonzero"/><path fill="#f08632" d="M 101.890625 236.433594 C 102.007812 236.453125 102.125 236.46875 102.25 236.480469 L 120.191406 237.777344 C 120.269531 237.78125 120.351562 237.785156 120.425781 237.785156 C 122.109375 237.785156 123.53125 236.484375 123.652344 234.777344 C 123.675781 234.492188 123.652344 234.21875 123.605469 233.953125 C 123.34375 232.535156 122.15625 231.425781 120.660156 231.316406 L 102.714844 230.019531 C 100.933594 229.886719 99.378906 231.230469 99.25 233.011719 C 99.132812 234.679688 100.289062 236.136719 101.890625 236.433594 " fill-opacity="1" fill-rule="nonzero"/><path fill="#f08632" d="M 45.203125 292.566406 L 46.390625 293.136719 L 61.421875 300.34375 C 61.875 300.5625 62.351562 300.660156 62.820312 300.660156 C 64.027344 300.660156 65.1875 299.984375 65.742188 298.824219 C 65.964844 298.359375 66.0625 297.867188 66.058594 297.390625 C 66.042969 296.195312 65.371094 295.054688 64.222656 294.503906 L 48 286.722656 C 46.390625 285.949219 44.453125 286.632812 43.679688 288.242188 C 42.90625 289.859375 43.585938 291.792969 45.203125 292.566406 " fill-opacity="1" fill-rule="nonzero"/><path fill="#f08632" d="M 88.332031 367.367188 L 102.46875 356.242188 C 103.714844 355.265625 104.042969 353.558594 103.335938 352.203125 C 103.246094 352.027344 103.140625 351.855469 103.011719 351.695312 C 101.90625 350.289062 99.871094 350.046875 98.464844 351.152344 L 84.324219 362.277344 C 82.921875 363.378906 82.675781 365.417969 83.78125 366.824219 C 84.359375 367.558594 85.1875 367.964844 86.050781 368.042969 C 86.140625 368.050781 86.234375 368.058594 86.332031 368.058594 C 87.03125 368.058594 87.738281 367.832031 88.332031 367.367188 " fill-opacity="1" fill-rule="nonzero"/><path fill="#f08632" d="M 224.4375 285.265625 L 238.574219 274.140625 C 239.554688 273.371094 239.96875 272.152344 239.757812 271.007812 C 239.664062 270.503906 239.457031 270.023438 239.117188 269.59375 C 238.011719 268.1875 235.976562 267.945312 234.574219 269.050781 L 220.429688 280.171875 C 219.027344 281.28125 218.78125 283.316406 219.890625 284.71875 C 220.394531 285.363281 221.09375 285.761719 221.839844 285.898438 C 222.039062 285.933594 222.234375 285.957031 222.4375 285.957031 C 223.136719 285.957031 223.84375 285.730469 224.4375 285.265625 " fill-opacity="1" fill-rule="nonzero"/><path fill="#f08632" d="M 75.945312 269.21875 C 76.140625 269.253906 76.339844 269.273438 76.539062 269.273438 C 77.242188 269.273438 77.945312 269.050781 78.539062 268.582031 L 92.679688 257.460938 C 93.65625 256.691406 94.070312 255.46875 93.859375 254.324219 C 93.765625 253.824219 93.558594 253.339844 93.222656 252.914062 C 92.117188 251.503906 90.082031 251.265625 88.671875 252.371094 L 74.535156 263.492188 C 73.128906 264.597656 72.886719 266.636719 73.992188 268.039062 C 74.5 268.683594 75.199219 269.082031 75.945312 269.21875 " fill-opacity="1" fill-rule="nonzero"/><path fill="#f08632" d="M 150.621094 351.644531 L 138.382812 338.457031 C 138.335938 338.40625 138.28125 338.359375 138.234375 338.3125 C 137.003906 337.144531 135.066406 337.117188 133.804688 338.285156 C 132.496094 339.503906 132.417969 341.554688 133.636719 342.863281 L 145.871094 356.046875 C 146.507812 356.738281 147.375 357.085938 148.246094 357.085938 C 148.371094 357.085938 148.492188 357.078125 148.617188 357.0625 C 149.277344 356.984375 149.921875 356.710938 150.449219 356.222656 C 151.761719 355.003906 151.835938 352.957031 150.621094 351.644531 " fill-opacity="1" fill-rule="nonzero"/><path fill="#f08632" d="M 144.1875 409.695312 C 144.710938 409.695312 145.242188 409.570312 145.734375 409.304688 C 147.304688 408.449219 147.882812 406.480469 147.027344 404.90625 L 139.09375 390.34375 L 138.421875 389.109375 C 137.566406 387.539062 135.597656 386.960938 134.027344 387.816406 C 132.457031 388.671875 131.878906 390.640625 132.734375 392.207031 L 141.265625 407.867188 L 141.339844 408.007812 C 141.929688 409.085938 143.039062 409.695312 144.1875 409.695312 " fill-opacity="1" fill-rule="nonzero"/><path fill="#f08632" d="M 242.160156 357.121094 C 242.203125 357.121094 242.25 357.125 242.296875 357.125 C 244.019531 357.125 245.457031 355.761719 245.53125 354.019531 C 245.539062 353.773438 245.515625 353.53125 245.476562 353.292969 C 245.207031 351.84375 243.96875 350.710938 242.429688 350.648438 L 224.457031 349.890625 C 222.667969 349.804688 221.160156 351.203125 221.082031 352.988281 C 221.015625 354.621094 222.167969 356.019531 223.730469 356.308594 C 223.878906 356.332031 224.027344 356.355469 224.183594 356.359375 L 242.160156 357.121094 " fill-opacity="1" fill-rule="nonzero"/></svg>