<svg xmlns="http://www.w3.org/2000/svg" xmlns:xlink="http://www.w3.org/1999/xlink" width="788" zoomAndPan="magnify" viewBox="0 0 591 591.000005" height="788" preserveAspectRatio="xMidYMid meet" version="1.0"><defs><clipPath id="3dd6e34460"><path d="M 23.804688 14.75 L 567.664062 14.75 L 567.664062 150.449219 L 23.804688 150.449219 Z M 23.804688 14.75 " clip-rule="nonzero"/></clipPath><clipPath id="288960a39e"><path d="M 51.507812 14.75 L 539.492188 14.75 C 546.839844 14.75 553.886719 17.667969 559.082031 22.863281 C 564.277344 28.058594 567.195312 35.105469 567.195312 42.453125 L 567.195312 122.746094 C 567.195312 130.09375 564.277344 137.140625 559.082031 142.335938 C 553.886719 147.53125 546.839844 150.449219 539.492188 150.449219 L 51.507812 150.449219 C 44.160156 150.449219 37.113281 147.53125 31.917969 142.335938 C 26.722656 137.140625 23.804688 130.09375 23.804688 122.746094 L 23.804688 42.453125 C 23.804688 35.105469 26.722656 28.058594 31.917969 22.863281 C 37.113281 17.667969 44.160156 14.75 51.507812 14.75 Z M 51.507812 14.75 " clip-rule="nonzero"/></clipPath><clipPath id="1036b1e6ca"><path d="M 0.804688 0.75 L 544.378906 0.75 L 544.378906 136.449219 L 0.804688 136.449219 Z M 0.804688 0.75 " clip-rule="nonzero"/></clipPath><clipPath id="5a5706ffb6"><path d="M 28.507812 0.75 L 516.492188 0.75 C 523.839844 0.75 530.886719 3.667969 536.082031 8.863281 C 541.277344 14.058594 544.195312 21.105469 544.195312 28.453125 L 544.195312 108.746094 C 544.195312 116.09375 541.277344 123.140625 536.082031 128.335938 C 530.886719 133.53125 523.839844 136.449219 516.492188 136.449219 L 28.507812 136.449219 C 21.160156 136.449219 14.113281 133.53125 8.917969 128.335938 C 3.722656 123.140625 0.804688 116.09375 0.804688 108.746094 L 0.804688 28.453125 C 0.804688 21.105469 3.722656 14.058594 8.917969 8.863281 C 14.113281 3.667969 21.160156 0.75 28.507812 0.75 Z M 28.507812 0.75 " clip-rule="nonzero"/></clipPath><clipPath id="01f174b1a6"><rect x="0" width="545" y="0" height="137"/></clipPath><clipPath id="bb28013ed4"><path d="M 23.804688 227.152344 L 567.664062 227.152344 L 567.664062 362.851562 L 23.804688 362.851562 Z M 23.804688 227.152344 " clip-rule="nonzero"/></clipPath><clipPath id="7c84957dcf"><path d="M 51.507812 227.152344 L 539.492188 227.152344 C 546.839844 227.152344 553.886719 230.070312 559.082031 235.265625 C 564.277344 240.460938 567.195312 247.507812 567.195312 254.855469 L 567.195312 335.148438 C 567.195312 342.496094 564.277344 349.542969 559.082031 354.738281 C 553.886719 359.933594 546.839844 362.851562 539.492188 362.851562 L 51.507812 362.851562 C 44.160156 362.851562 37.113281 359.933594 31.917969 354.738281 C 26.722656 349.542969 23.804688 342.496094 23.804688 335.148438 L 23.804688 254.855469 C 23.804688 247.507812 26.722656 240.460938 31.917969 235.265625 C 37.113281 230.070312 44.160156 227.152344 51.507812 227.152344 Z M 51.507812 227.152344 " clip-rule="nonzero"/></clipPath><clipPath id="f1fdcebb0c"><path d="M 0.804688 0.152344 L 544.378906 0.152344 L 544.378906 135.851562 L 0.804688 135.851562 Z M 0.804688 0.152344 " clip-rule="nonzero"/></clipPath><clipPath id="da43a6550e"><path d="M 28.507812 0.152344 L 516.492188 0.152344 C 523.839844 0.152344 530.886719 3.070312 536.082031 8.265625 C 541.277344 13.460938 544.195312 20.507812 544.195312 27.855469 L 544.195312 108.148438 C 544.195312 115.496094 541.277344 122.542969 536.082031 127.738281 C 530.886719 132.933594 523.839844 135.851562 516.492188 135.851562 L 28.507812 135.851562 C 21.160156 135.851562 14.113281 132.933594 8.917969 127.738281 C 3.722656 122.542969 0.804688 115.496094 0.804688 108.148438 L 0.804688 27.855469 C 0.804688 20.507812 3.722656 13.460938 8.917969 8.265625 C 14.113281 3.070312 21.160156 0.152344 28.507812 0.152344 Z M 28.507812 0.152344 " clip-rule="nonzero"/></clipPath><clipPath id="049e505ae0"><rect x="0" width="545" y="0" height="136"/></clipPath><clipPath id="c77ff40808"><path d="M 23.804688 439.222656 L 567.664062 439.222656 L 567.664062 574.921875 L 23.804688 574.921875 Z M 23.804688 439.222656 " clip-rule="nonzero"/></clipPath><clipPath id="026fa8e4aa"><path d="M 51.507812 439.222656 L 539.492188 439.222656 C 546.839844 439.222656 553.886719 442.140625 559.082031 447.335938 C 564.277344 452.53125 567.195312 459.578125 567.195312 466.925781 L 567.195312 547.21875 C 567.195312 554.566406 564.277344 561.613281 559.082031 566.808594 C 553.886719 572.003906 546.839844 574.921875 539.492188 574.921875 L 51.507812 574.921875 C 44.160156 574.921875 37.113281 572.003906 31.917969 566.808594 C 26.722656 561.613281 23.804688 554.566406 23.804688 547.21875 L 23.804688 466.925781 C 23.804688 459.578125 26.722656 452.53125 31.917969 447.335938 C 37.113281 442.140625 44.160156 439.222656 51.507812 439.222656 Z M 51.507812 439.222656 " clip-rule="nonzero"/></clipPath><clipPath id="048538a50b"><path d="M 0.804688 0.222656 L 544.378906 0.222656 L 544.378906 135.921875 L 0.804688 135.921875 Z M 0.804688 0.222656 " clip-rule="nonzero"/></clipPath><clipPath id="c507b9af4e"><path d="M 28.507812 0.222656 L 516.492188 0.222656 C 523.839844 0.222656 530.886719 3.140625 536.082031 8.335938 C 541.277344 13.53125 544.195312 20.578125 544.195312 27.925781 L 544.195312 108.21875 C 544.195312 115.566406 541.277344 122.613281 536.082031 127.808594 C 530.886719 133.003906 523.839844 135.921875 516.492188 135.921875 L 28.507812 135.921875 C 21.160156 135.921875 14.113281 133.003906 8.917969 127.808594 C 3.722656 122.613281 0.804688 115.566406 0.804688 108.21875 L 0.804688 27.925781 C 0.804688 20.578125 3.722656 13.53125 8.917969 8.335938 C 14.113281 3.140625 21.160156 0.222656 28.507812 0.222656 Z M 28.507812 0.222656 " clip-rule="nonzero"/></clipPath><clipPath id="c51c2a372d"><rect x="0" width="545" y="0" height="136"/></clipPath></defs><g clip-path="url(#3dd6e34460)"><g clip-path="url(#288960a39e)"><g transform="matrix(1, 0, 0, 1, 23, 14)"><g clip-path="url(#01f174b1a6)"><g clip-path="url(#1036b1e6ca)"><g clip-path="url(#5a5706ffb6)"><path fill="#000000" d="M 0.804688 0.75 L 544.136719 0.75 L 544.136719 136.449219 L 0.804688 136.449219 Z M 0.804688 0.75 " fill-opacity="1" fill-rule="nonzero"/></g></g></g></g></g></g><g clip-path="url(#bb28013ed4)"><g clip-path="url(#7c84957dcf)"><g transform="matrix(1, 0, 0, 1, 23, 227)"><g clip-path="url(#049e505ae0)"><g clip-path="url(#f1fdcebb0c)"><g clip-path="url(#da43a6550e)"><path fill="#000000" d="M 0.804688 0.152344 L 544.136719 0.152344 L 544.136719 135.851562 L 0.804688 135.851562 Z M 0.804688 0.152344 " fill-opacity="1" fill-rule="nonzero"/></g></g></g></g></g></g><g clip-path="url(#c77ff40808)"><g clip-path="url(#026fa8e4aa)"><g transform="matrix(1, 0, 0, 1, 23, 439)"><g clip-path="url(#c51c2a372d)"><g clip-path="url(#048538a50b)"><g clip-path="url(#c507b9af4e)"><path fill="#000000" d="M 0.804688 0.222656 L 544.136719 0.222656 L 544.136719 135.921875 L 0.804688 135.921875 Z M 0.804688 0.222656 " fill-opacity="1" fill-rule="nonzero"/></g></g></g></g></g></g></svg>