<svg xmlns="http://www.w3.org/2000/svg" xmlns:xlink="http://www.w3.org/1999/xlink" width="600" zoomAndPan="magnify" viewBox="0 0 450 450.749984" height="601" preserveAspectRatio="xMidYMid meet" version="1.0"><path fill="#f08632" d="M 21.445312 332.667969 L 21.539062 332.667969 Z M 348.199219 21.753906 C 341.6875 21.753906 335.492188 24.320312 330.828125 28.949219 L 24.296875 335.484375 C 19.070312 340.710938 16.503906 347.941406 17.222656 355.296875 C 17.941406 362.648438 21.886719 369.222656 28.019531 373.320312 C 125.003906 437.851562 255.222656 424.832031 337.714844 342.371094 C 420.175781 259.875 433.195312 129.65625 368.664062 32.707031 C 364.566406 26.539062 357.992188 22.597656 350.640625 21.878906 C 349.824219 21.785156 349.011719 21.753906 348.199219 21.753906 Z M 163.621094 422.203125 C 115.019531 422.203125 66.199219 408.339844 23.605469 379.988281 C 15.4375 374.542969 10.210938 365.839844 9.242188 356.078125 C 8.273438 346.3125 11.683594 336.738281 18.628906 329.820312 L 325.164062 23.285156 C 332.113281 16.371094 341.625 12.957031 351.421875 13.898438 C 361.1875 14.867188 369.886719 20.09375 375.332031 28.261719 C 441.957031 128.375 428.53125 262.851562 343.347656 348.035156 C 294.433594 396.949219 229.246094 422.203125 163.621094 422.203125 " fill-opacity="1" fill-rule="nonzero"/><path fill="#f08632" d="M 346.101562 71.886719 C 344.820312 71.886719 343.566406 71.292969 342.816406 70.167969 C 341.53125 68.351562 342.003906 65.847656 343.816406 64.59375 L 378.023438 41.03125 C 379.867188 39.777344 382.371094 40.21875 383.59375 42.03125 C 384.875 43.878906 384.40625 46.351562 382.589844 47.601562 L 348.386719 71.199219 C 347.699219 71.667969 346.882812 71.886719 346.101562 71.886719 " fill-opacity="1" fill-rule="nonzero"/><path fill="#f08632" d="M 369.230469 118.859375 C 367.601562 118.859375 366.066406 117.859375 365.472656 116.234375 C 364.691406 114.167969 365.753906 111.851562 367.820312 111.101562 L 403.152344 97.863281 C 405.21875 97.109375 407.535156 98.144531 408.316406 100.210938 C 409.066406 102.304688 408.035156 104.589844 405.96875 105.375 L 370.636719 118.609375 C 370.167969 118.765625 369.699219 118.859375 369.230469 118.859375 " fill-opacity="1" fill-rule="nonzero"/><path fill="#f08632" d="M 378.585938 166.367188 C 376.550781 166.367188 374.832031 164.800781 374.613281 162.738281 C 374.390625 160.546875 376.019531 158.574219 378.210938 158.355469 L 413.136719 154.914062 C 415.421875 154.695312 417.296875 156.320312 417.515625 158.511719 C 417.734375 160.703125 416.140625 162.675781 413.917969 162.894531 L 378.992188 166.335938 C 378.867188 166.335938 378.742188 166.367188 378.585938 166.367188 " fill-opacity="1" fill-rule="nonzero"/><path fill="#f08632" d="M 409.378906 218.847656 C 409.160156 218.847656 408.941406 218.816406 408.722656 218.785156 L 374.519531 213.339844 C 372.328125 212.996094 370.855469 210.929688 371.199219 208.742188 C 371.542969 206.582031 373.609375 205.078125 375.800781 205.421875 L 410.007812 210.867188 C 412.195312 211.210938 413.667969 213.277344 413.324219 215.46875 C 413.011719 217.441406 411.320312 218.847656 409.378906 218.847656 " fill-opacity="1" fill-rule="nonzero"/><path fill="#f08632" d="M 392.542969 273.144531 C 392.011719 273.144531 391.480469 273.050781 390.949219 272.832031 L 357.804688 258.65625 C 355.773438 257.78125 354.832031 255.433594 355.679688 253.398438 C 356.554688 251.363281 358.902344 250.425781 360.9375 251.269531 L 394.109375 265.445312 C 396.140625 266.324219 397.082031 268.703125 396.238281 270.734375 C 395.578125 272.238281 394.078125 273.144531 392.542969 273.144531 " fill-opacity="1" fill-rule="nonzero"/><path fill="#f08632" d="M 362.25 324.34375 C 361.4375 324.34375 360.621094 324.09375 359.902344 323.59375 L 329.140625 301.3125 C 327.355469 300.027344 326.949219 297.523438 328.230469 295.742188 C 329.546875 293.925781 332.050781 293.519531 333.835938 294.832031 L 364.597656 317.113281 C 366.414062 318.398438 366.789062 320.902344 365.503906 322.6875 C 364.722656 323.78125 363.5 324.34375 362.25 324.34375 " fill-opacity="1" fill-rule="nonzero"/><path fill="#f08632" d="M 319.625 367.9375 C 318.53125 367.9375 317.433594 367.46875 316.621094 366.59375 L 290.992188 337.675781 C 289.519531 336.015625 289.675781 333.484375 291.335938 332.011719 C 292.960938 330.539062 295.527344 330.699219 297 332.355469 L 322.628906 361.273438 C 324.101562 362.929688 323.945312 365.464844 322.285156 366.9375 C 321.535156 367.59375 320.566406 367.9375 319.625 367.9375 " fill-opacity="1" fill-rule="nonzero"/><path fill="#f08632" d="M 269.710938 398.859375 C 268.269531 398.859375 266.894531 398.105469 266.175781 396.730469 L 247.835938 362.460938 C 246.800781 360.488281 247.523438 358.082031 249.492188 357.015625 C 251.433594 355.984375 253.84375 356.734375 254.90625 358.675781 L 273.246094 392.972656 C 274.28125 394.914062 273.558594 397.355469 271.621094 398.386719 C 270.992188 398.703125 270.367188 398.859375 269.710938 398.859375 " fill-opacity="1" fill-rule="nonzero"/><path fill="#f08632" d="M 214.253906 417.195312 C 212.503906 417.195312 210.875 416.007812 210.40625 414.222656 L 200.296875 376.324219 C 199.734375 374.199219 201.019531 372.007812 203.144531 371.445312 C 205.273438 370.847656 207.496094 372.132812 208.058594 374.261719 L 218.136719 412.160156 C 218.699219 414.316406 217.449219 416.507812 215.289062 417.070312 C 214.945312 417.164062 214.601562 417.195312 214.253906 417.195312 " fill-opacity="1" fill-rule="nonzero"/><path fill="#f08632" d="M 154.261719 422.171875 C 152.105469 422.171875 150.351562 420.484375 150.257812 418.324219 L 148.816406 378.734375 C 148.722656 376.511719 150.476562 374.667969 152.667969 374.574219 C 154.703125 374.449219 156.734375 376.230469 156.828125 378.453125 L 158.269531 418.011719 C 158.363281 420.230469 156.609375 422.078125 154.417969 422.171875 C 154.355469 422.171875 154.324219 422.171875 154.261719 422.171875 " fill-opacity="1" fill-rule="nonzero"/><path fill="#f08632" d="M 96.492188 413.035156 C 96.148438 413.035156 95.804688 413.003906 95.460938 412.910156 C 93.332031 412.316406 92.046875 410.125 92.644531 407.996094 L 103.191406 368.910156 C 103.785156 366.75 105.976562 365.464844 108.101562 366.0625 C 110.261719 366.65625 111.515625 368.847656 110.949219 370.972656 L 100.375 410.0625 C 99.871094 411.875 98.277344 413.035156 96.492188 413.035156 " fill-opacity="1" fill-rule="nonzero"/><path fill="#f08632" d="M 41.132812 390.03125 C 40.472656 390.03125 39.785156 389.875 39.191406 389.53125 C 37.25 388.46875 36.5625 386.027344 37.625 384.085938 L 59.910156 344.183594 C 60.972656 342.246094 63.414062 341.558594 65.355469 342.652344 C 67.292969 343.714844 67.984375 346.15625 66.886719 348.097656 L 44.636719 388 C 43.886719 389.3125 42.539062 390.03125 41.132812 390.03125 " fill-opacity="1" fill-rule="nonzero"/></svg>