<svg xmlns="http://www.w3.org/2000/svg" xmlns:xlink="http://www.w3.org/1999/xlink" width="600" zoomAndPan="magnify" viewBox="0 0 450 457.91998" height="601" preserveAspectRatio="xMidYMid meet" version="1.0"><defs><clipPath id="6e62fcacca"><path d="M 83 9 L 368.628906 9 L 368.628906 443 L 83 443 Z M 83 9 " clip-rule="nonzero"/></clipPath></defs><g clip-path="url(#6e62fcacca)"><path fill="#f08632" d="M 283.78125 105.703125 C 288.554688 100.597656 294.539062 94.523438 295.5 87.304688 C 295.503906 87.21875 295.535156 87.148438 295.597656 87.089844 C 295.65625 87.03125 295.730469 87 295.8125 87 C 295.898438 87 295.972656 87.03125 296.03125 87.089844 C 296.09375 87.148438 296.125 87.21875 296.128906 87.304688 C 296.382812 94.859375 289.542969 101.679688 284.136719 106.054688 C 284.019531 106.167969 283.902344 106.164062 283.785156 106.050781 C 283.671875 105.9375 283.667969 105.820312 283.78125 105.703125 Z M 274.25 150.3125 C 273.980469 150.539062 274.339844 151.007812 274.628906 150.804688 C 287.808594 141.644531 302.519531 130.898438 307.136719 114.644531 C 307.21875 114.355469 306.78125 114.160156 306.648438 114.4375 C 299.417969 129.449219 286.976562 140 274.25 150.3125 Z M 368.160156 290.660156 C 367.902344 309.226562 368.398438 328.855469 364.523438 347.117188 C 362.609375 356.128906 357.570312 358.175781 349.695312 361.488281 C 316.417969 375.554688 282.003906 387.148438 247.828125 398.808594 C 208.320312 412.285156 168.585938 425.707031 128.179688 436.335938 C 118.289062 438.945312 106.816406 442.980469 96.429688 442.472656 C 86.078125 441.976562 86.121094 426.707031 85.382812 419.167969 C 81.546875 379.3125 83.3125 338.625 84.542969 298.679688 C 84.914062 286.5625 85.757812 276.695312 90.605469 265.183594 C 104.316406 232.683594 123.085938 202.066406 142.433594 172.667969 C 141.296875 170.390625 140.292969 168.160156 139.433594 166.074219 C 132.203125 148.480469 130.839844 125.351562 144.507812 110.285156 C 156.203125 97.382812 176.042969 93.414062 192.515625 98.132812 C 193.160156 98.316406 193.785156 98.519531 194.414062 98.71875 C 187.8125 81.875 181.195312 65.027344 174.570312 48.175781 C 172.515625 42.9375 170.460938 37.699219 168.40625 32.457031 C 166.472656 27.523438 173.796875 19.449219 177.445312 17.523438 C 183.8125 14.152344 196.472656 12.84375 199.65625 20.734375 C 202.515625 27.84375 205.386719 34.964844 208.265625 42.097656 C 208.75 43.289062 209.230469 44.453125 209.710938 45.640625 C 209.402344 38.96875 209.09375 32.292969 208.789062 25.613281 C 208.585938 21.121094 208.734375 18.566406 212.171875 15.210938 C 212.9375 14.4375 213.765625 13.734375 214.652344 13.101562 C 215.539062 12.46875 216.472656 11.914062 217.449219 11.433594 C 218.429688 10.957031 219.441406 10.566406 220.488281 10.257812 C 221.53125 9.949219 222.597656 9.730469 223.675781 9.601562 C 224.757812 9.472656 225.84375 9.433594 226.933594 9.488281 C 228.019531 9.539062 229.097656 9.683594 230.160156 9.914062 C 231.226562 10.148438 232.261719 10.46875 233.273438 10.875 C 234.285156 11.28125 235.253906 11.769531 236.183594 12.339844 C 242.375 15.984375 241.90625 18.578125 242.25 24.917969 C 242.691406 32.898438 243.128906 40.886719 243.5625 48.878906 C 244.160156 59.761719 244.757812 70.636719 245.355469 81.5 C 246.652344 80.996094 247.871094 80.34375 249.011719 79.542969 C 250.148438 78.742188 251.175781 77.816406 252.089844 76.765625 C 253.003906 75.714844 253.777344 74.570312 254.414062 73.332031 C 255.050781 72.09375 255.527344 70.796875 255.847656 69.441406 C 257.476562 62.460938 256.242188 55.09375 249.207031 51.859375 C 248.996094 51.78125 248.796875 51.679688 248.609375 51.558594 C 248.417969 51.4375 248.246094 51.300781 248.085938 51.140625 C 247.925781 50.984375 247.78125 50.8125 247.65625 50.628906 C 247.53125 50.441406 247.429688 50.246094 247.34375 50.039062 C 247.261719 49.828125 247.199219 49.617188 247.15625 49.394531 C 247.117188 49.175781 247.101562 48.953125 247.105469 48.726562 C 247.113281 48.503906 247.140625 48.28125 247.191406 48.066406 C 247.246094 47.847656 247.316406 47.636719 247.414062 47.433594 L 247.414062 47.394531 C 247.464844 46.933594 247.605469 46.5 247.824219 46.089844 C 248.042969 45.683594 248.332031 45.328125 248.6875 45.03125 C 249.042969 44.734375 249.441406 44.515625 249.882812 44.371094 C 250.320312 44.226562 250.773438 44.167969 251.234375 44.195312 C 260.585938 44.410156 271.050781 45.574219 278.417969 51.9375 C 279.929688 53.253906 281.289062 54.714844 282.496094 56.3125 C 283.703125 57.914062 284.730469 59.621094 285.582031 61.433594 C 286.4375 63.246094 287.09375 65.128906 287.554688 67.078125 C 288.015625 69.03125 288.273438 71.007812 288.324219 73.011719 C 293.777344 72.527344 299.609375 73.171875 303.890625 76.378906 C 310.398438 81.261719 312.449219 88.664062 311.109375 96.246094 C 323.824219 102.0625 329.332031 116.101562 322.863281 128.992188 C 330.589844 134.257812 334.011719 144.808594 332.929688 154.578125 C 345.65625 165.125 360.472656 177.992188 365.230469 194.449219 C 367.21875 201.347656 367.210938 208.554688 367.421875 215.679688 C 368.183594 240.652344 368.503906 265.664062 368.160156 290.660156 Z M 317.605469 135.203125 C 315.84375 144.875 319.820312 154.871094 319.910156 164.804688 C 327.914062 157.507812 326.5 140.984375 317.605469 135.203125 Z M 180.855469 201.746094 C 181.199219 203.234375 181.832031 204.585938 182.75 205.804688 C 183.671875 207.023438 184.800781 208.003906 186.136719 208.738281 C 203.722656 219.097656 230.609375 218.539062 248.292969 209.007812 C 258.65625 202.9375 268.042969 193.402344 268.40625 180.664062 C 268.445312 177.765625 268.199219 174.894531 267.664062 172.046875 C 267.128906 169.199219 266.316406 166.433594 265.226562 163.75 C 264.136719 161.0625 262.789062 158.511719 261.1875 156.097656 C 259.585938 153.683594 257.761719 151.449219 255.714844 149.402344 C 236.183594 130.164062 208.441406 142.316406 194.519531 162.082031 C 188.585938 170.515625 183.609375 180.03125 181.445312 190.207031 C 180.730469 193.117188 180.410156 196.066406 180.480469 199.058594 C 180.949219 199.90625 181.074219 200.804688 180.855469 201.746094 Z M 237.011719 75.816406 C 233.488281 78.074219 230.621094 80.980469 228.414062 84.535156 C 231.433594 84.269531 234.460938 84.035156 237.441406 83.597656 C 237.304688 81.003906 237.164062 78.410156 237.011719 75.816406 Z M 235.78125 53.222656 C 228.441406 56.46875 223.132812 64.132812 220.058594 71.324219 C 221.394531 74.664062 222.746094 77.992188 224.097656 81.335938 C 225.660156 78.914062 227.511719 76.734375 229.644531 74.796875 C 231.78125 72.855469 234.128906 71.226562 236.691406 69.90625 C 236.382812 64.34375 236.089844 58.78125 235.78125 53.222656 Z M 234.429688 28.710938 C 232.351562 29.695312 230.425781 30.917969 228.652344 32.382812 C 226.882812 33.851562 225.320312 35.515625 223.964844 37.375 C 222.613281 39.234375 221.511719 41.234375 220.664062 43.371094 C 219.8125 45.507812 219.242188 47.71875 218.949219 50 C 218.894531 50.691406 218.578125 51.226562 218 51.601562 C 218.175781 55.335938 218.34375 59.0625 218.507812 62.777344 C 222.542969 56.066406 228.203125 50 235.476562 47.566406 C 235.128906 41.28125 234.78125 34.996094 234.429688 28.710938 Z M 212.988281 75.121094 C 211.238281 77.664062 209.824219 80.382812 208.738281 83.273438 C 207.652344 86.160156 206.929688 89.140625 206.566406 92.207031 C 209.847656 89.570312 213.5 87.628906 217.519531 86.378906 C 216.007812 82.625 214.496094 78.871094 212.988281 75.121094 Z M 256.273438 139.421875 C 261.605469 137.484375 266.691406 135.03125 271.53125 132.066406 C 276.367188 129.097656 280.859375 125.679688 285.003906 121.804688 C 289.390625 117.847656 293.386719 113.53125 296.988281 108.855469 C 297.695312 107.917969 298.328125 106.929688 298.945312 105.929688 C 284.472656 119.140625 266.8125 129.519531 247.859375 134.554688 C 250.855469 135.847656 253.660156 137.46875 256.273438 139.421875 Z M 247.988281 118.597656 C 240.730469 124.257812 231.207031 130.40625 221.761719 129.605469 C 221.984375 130.570312 222.191406 131.550781 222.359375 132.546875 C 222.476562 132.546875 222.59375 132.542969 222.707031 132.542969 C 224.582031 132.09375 226.476562 131.773438 228.390625 131.582031 C 229.273438 131.496094 230.15625 131.4375 231.03125 131.410156 C 237.214844 127.839844 242.867188 123.570312 247.988281 118.597656 Z M 264.890625 98.605469 C 260.554688 101.109375 255.929688 102.851562 251.019531 103.824219 C 237.21875 106.496094 223 104.371094 209.320312 107.394531 C 212.316406 110.203125 214.847656 113.386719 216.910156 116.9375 C 218.976562 120.488281 220.488281 124.261719 221.445312 128.257812 C 237.070312 126.582031 248.488281 116.816406 258.734375 105.601562 C 255.640625 107.105469 252.441406 108.328125 249.132812 109.269531 C 241.570312 111.519531 233.386719 113.128906 225.464844 112.472656 C 225.289062 112.464844 225.203125 112.375 225.203125 112.203125 C 225.203125 112.027344 225.289062 111.9375 225.464844 111.929688 C 232.859375 111.175781 240.242188 110.390625 247.351562 108.121094 C 253.660156 106.082031 259.417969 103.011719 264.628906 98.914062 C 264.714844 98.8125 264.804688 98.710938 264.890625 98.605469 Z M 308.746094 163.625 C 309.675781 160.320312 310.417969 156.972656 310.96875 153.582031 C 310.015625 155.882812 309.03125 158.167969 307.996094 160.425781 C 305.339844 166.714844 302.070312 172.664062 298.191406 178.28125 C 298.359375 178.265625 298.535156 178.246094 298.703125 178.230469 C 301.082031 176.363281 303.128906 174.1875 304.839844 171.695312 C 306.554688 169.207031 307.855469 166.515625 308.746094 163.625 Z M 275.773438 171.214844 C 283.871094 166.894531 290.835938 161.1875 296.667969 154.101562 C 299.71875 150.367188 302.507812 146.445312 305.035156 142.335938 C 295.621094 151.1875 286.089844 160.03125 274.089844 164.617188 C 274.804688 166.777344 275.367188 168.976562 275.773438 171.214844 Z M 275.984375 184.859375 C 275.890625 185.460938 275.769531 186.050781 275.652344 186.628906 C 280.285156 184.578125 284.761719 181.960938 289.4375 180.21875 C 296.3125 174.085938 300.605469 164.179688 304.117188 156.070312 C 306.917969 149.59375 309.4375 142.972656 311.585938 136.242188 C 311.328125 136.476562 311.074219 136.703125 310.816406 136.941406 C 309.296875 139.902344 307.585938 142.746094 305.679688 145.472656 C 303.121094 149.449219 300.273438 153.210938 297.144531 156.753906 C 291.253906 163.285156 284.351562 169.34375 275.960938 172.261719 C 276.644531 176.460938 276.652344 180.660156 275.984375 184.859375 Z M 301.320312 177.925781 C 303.746094 177.738281 305.988281 177.003906 308.046875 175.714844 C 310.410156 173.777344 312.496094 171.578125 314.304688 169.113281 C 315.257812 163.761719 314.53125 158.457031 313.632812 153.171875 C 312.804688 157.902344 311.453125 162.484375 309.585938 166.910156 C 307.847656 171.011719 305.128906 175.332031 301.320312 177.925781 Z M 305.15625 102.527344 C 304.949219 102.453125 304.746094 102.363281 304.554688 102.257812 C 300.230469 111.394531 290.953125 119.867188 283.96875 125.5625 C 276.105469 131.980469 267.308594 137.585938 257.519531 140.367188 C 260.269531 142.582031 262.746094 145.074219 264.941406 147.839844 C 267.839844 151.472656 270.242188 155.414062 272.148438 159.652344 C 288.9375 153.332031 300.730469 137.894531 314.40625 126.777344 C 314.636719 126.207031 315.03125 125.789062 315.589844 125.535156 C 320.472656 115.804688 315.9375 105.734375 305.15625 102.527344 Z M 289.875 80.910156 C 288.550781 93.652344 277.226562 106.800781 267.488281 113.605469 C 267.246094 113.777344 266.96875 113.40625 267.175781 113.199219 C 272.402344 108.121094 277.355469 102.988281 281.078125 96.65625 C 283.765625 91.761719 285.785156 86.609375 287.132812 81.191406 C 286.839844 81.234375 286.539062 81.277344 286.25 81.324219 C 283.855469 88.339844 278.851562 93.765625 273.902344 99.308594 C 268.1875 105.703125 262.445312 112.097656 256.257812 118.042969 C 251.808594 122.417969 247.113281 126.511719 242.171875 130.320312 C 244.191406 129.527344 246.210938 128.789062 248.050781 127.945312 C 253.253906 125.582031 258.199219 122.761719 262.878906 119.476562 C 263.128906 119.300781 263.421875 119.695312 263.203125 119.894531 C 259.742188 122.929688 256 125.558594 251.964844 127.773438 C 271.597656 121.363281 289.46875 109.023438 303.304688 94.050781 C 303.925781 89.316406 302.835938 84.398438 297.992188 82.234375 C 295.390625 81.148438 292.6875 80.710938 289.875 80.910156 Z M 261.921875 53.207031 C 261.980469 53.320312 262.019531 53.4375 262.082031 53.550781 C 268.578125 59.75 270.933594 73.289062 267.75 81.191406 C 265.214844 87.496094 260.128906 91.429688 253.679688 93.347656 C 239.1875 97.664062 222.988281 94.726562 209.546875 101.886719 C 220.234375 99.851562 231.011719 100.773438 241.9375 99.75 C 257.992188 98.257812 270.085938 90.402344 279.667969 78.21875 C 279.492188 77.339844 279.609375 76.5 280.011719 75.695312 C 281.667969 68.128906 276.546875 59.078125 269.769531 55.761719 C 267.265625 54.566406 264.648438 53.714844 261.921875 53.207031 Z M 209.132812 100.753906 C 218.976562 94.316406 234.484375 95.410156 245.140625 93.542969 C 251.886719 92.359375 259.957031 90.558594 263.714844 84.164062 C 264.839844 82.15625 265.625 80.023438 266.070312 77.765625 C 266.515625 75.507812 266.597656 73.234375 266.316406 70.949219 C 266.023438 68.457031 265.433594 66.035156 264.550781 63.683594 C 264.796875 71.601562 261.644531 79.886719 255.59375 84.707031 C 241.632812 95.851562 222.164062 88.546875 209.132812 100.753906 Z M 216.664062 22.226562 C 216.6875 22.84375 216.714844 23.472656 216.742188 24.085938 C 216.875 26.960938 217.011719 29.851562 217.144531 32.726562 C 217.226562 34.410156 217.289062 36.09375 217.371094 37.765625 C 218.277344 36.089844 219.324219 34.511719 220.511719 33.023438 C 221.699219 31.535156 223.007812 30.164062 224.4375 28.90625 C 225.867188 27.652344 227.394531 26.527344 229.023438 25.542969 C 230.648438 24.554688 232.351562 23.71875 234.125 23.03125 C 234.074219 22.179688 234.03125 21.320312 233.976562 20.464844 C 228.066406 17.042969 220.980469 15.929688 216.664062 22.226562 Z M 204.050781 52.96875 C 197.449219 59.757812 194.644531 70.695312 196.21875 79.769531 C 196.308594 80.257812 196.273438 80.734375 196.113281 81.203125 C 197.808594 85.507812 199.496094 89.8125 201.175781 94.117188 C 201.207031 85.480469 205.363281 75.839844 210.648438 69.316406 L 210.648438 69.308594 C 208.441406 63.851562 206.25 58.425781 204.050781 52.96875 Z M 201.929688 47.714844 C 200.152344 43.300781 198.386719 38.902344 196.59375 34.488281 C 189.359375 40.289062 186.121094 52.433594 188.199219 61.027344 L 188.199219 61.054688 C 189.160156 63.476562 190.109375 65.882812 191.042969 68.300781 C 191.652344 64.359375 192.890625 60.621094 194.757812 57.09375 C 196.621094 53.566406 199.011719 50.4375 201.929688 47.714844 Z M 176.472656 31.144531 C 178.664062 36.761719 180.867188 42.375 183.078125 47.992188 C 184.679688 40.519531 188.628906 33.378906 194.535156 29.355469 C 193.785156 27.496094 193.035156 25.652344 192.289062 23.792969 C 186.726562 22.546875 180.722656 22.828125 177.664062 28.445312 C 177.179688 29.308594 176.78125 30.207031 176.472656 31.144531 Z M 149.195312 168.1875 C 154.078125 177.523438 162.007812 190.460938 172.488281 195.597656 C 172.730469 192.582031 173.246094 189.613281 174.039062 186.691406 C 175.664062 180.53125 177.933594 174.621094 180.859375 168.957031 C 183.78125 163.296875 187.285156 158.023438 191.371094 153.132812 C 194.519531 149.28125 198.0625 145.839844 202.003906 142.808594 C 205.945312 139.773438 210.183594 137.230469 214.710938 135.175781 C 212.640625 120 203.144531 107.941406 187.300781 105.148438 C 173.394531 102.714844 156.136719 105.886719 148.089844 118.71875 C 138.648438 133.789062 141.269531 153.050781 149.195312 168.1875 Z M 251 266.535156 C 249.457031 267.257812 247.972656 268.085938 246.546875 269.011719 C 242.265625 271.957031 239.042969 272.273438 233.839844 271.792969 C 226.464844 271.085938 219.246094 269.828125 212.847656 274.609375 C 206.632812 279.261719 203.132812 286.351562 197.472656 291.527344 C 186.429688 301.636719 173.996094 300.339844 162.0625 292.277344 C 152.703125 285.949219 151.550781 300 146.214844 304.523438 C 145.347656 305.242188 144.402344 305.835938 143.378906 306.308594 C 142.355469 306.777344 141.289062 307.109375 140.179688 307.300781 C 139.070312 307.492188 137.957031 307.535156 136.832031 307.433594 C 135.710938 307.332031 134.625 307.089844 133.566406 306.703125 C 131.871094 306.109375 128.339844 304.09375 126.574219 305.230469 C 123.765625 307.046875 122.121094 310.375 120.664062 313.292969 C 118.375 317.851562 116.265625 323.335938 112.375 326.8125 C 108.390625 330.367188 102.992188 332.199219 97.773438 330.074219 C 95.542969 329.195312 93.527344 327.96875 91.71875 326.394531 C 91.535156 333.921875 91.371094 341.464844 91.308594 348.992188 C 91.570312 348.921875 91.839844 348.855469 92.105469 348.789062 C 134.621094 338.335938 176.765625 326.0625 218.867188 314.015625 C 260.304688 302.167969 302.722656 291.53125 341.9375 273.332031 C 341.644531 262.140625 340.722656 250.9375 339.828125 239.789062 C 339.210938 240.222656 338.523438 240.453125 337.769531 240.480469 C 337.015625 240.503906 336.316406 240.324219 335.667969 239.9375 C 333.304688 238.515625 329.089844 249.976562 327.246094 252.367188 C 322.699219 258.222656 316.039062 258.105469 310.0625 254.402344 C 307.839844 252.769531 306.25 250.65625 305.300781 248.0625 C 304.378906 245.941406 302.390625 241.363281 299.3125 244.773438 C 295.179688 249.375 294.96875 256.914062 292.242188 262.378906 C 286.355469 274.238281 273.589844 280.859375 261.757812 272.039062 C 258.804688 269.832031 256.558594 267.113281 253.832031 264.707031 C 254.554688 265.546875 251.785156 266.148438 251 266.535156 Z M 342.035156 279.144531 C 340.40625 279.894531 338.769531 280.632812 337.125 281.335938 C 297.65625 298.503906 255.527344 309.148438 214.242188 320.894531 C 173.410156 332.527344 132.550781 344.632812 91.25 354.5 C 91.226562 357.894531 91.214844 361.300781 91.238281 364.710938 C 93.886719 364.097656 96.519531 363.414062 99.140625 362.742188 C 141.042969 352.089844 182.648438 340.175781 224.203125 328.277344 C 263.832031 316.925781 304.277344 306.632812 341.914062 289.519531 C 341.96875 287.792969 341.992188 286.082031 342.015625 284.359375 C 342.046875 282.621094 342.046875 280.882812 342.035156 279.144531 Z M 93.109375 416.320312 C 95.433594 415.753906 97.765625 415.105469 100.066406 414.460938 C 141.230469 403.121094 181.953125 390.074219 222.679688 377.265625 C 243.765625 370.621094 264.847656 363.9375 285.851562 357.054688 C 304.15625 351.046875 322.175781 344.84375 339.464844 336.277344 C 340.332031 322.679688 341.253906 309.066406 341.722656 295.441406 C 331.09375 300.214844 320.253906 304.667969 309.222656 308.414062 C 270.316406 321.597656 230.40625 332.179688 190.871094 343.292969 C 168.863281 349.484375 146.828125 355.5625 124.769531 361.53125 C 113.671875 364.511719 102.546875 367.90625 91.265625 370.207031 C 91.386719 383.484375 91.8125 396.746094 92.667969 409.96875 C 92.816406 412.066406 92.941406 414.191406 93.109375 416.320312 Z M 360.246094 269.304688 C 360.203125 250.183594 359.945312 231.050781 359.28125 211.949219 C 359.078125 205.988281 358.960938 200.046875 356.753906 194.390625 C 351.820312 181.8125 341.042969 171.8125 330.691406 163.109375 C 329.769531 165.34375 328.503906 167.363281 326.894531 169.167969 C 325.285156 170.96875 323.425781 172.457031 321.3125 173.632812 C 321.125 173.726562 320.933594 173.8125 320.734375 173.882812 C 318.167969 176.988281 315.679688 180.890625 312.097656 182.640625 C 307.699219 184.792969 303.488281 185.222656 298.753906 186.105469 C 289.394531 187.851562 281.320312 193.925781 272.082031 196.449219 C 267.75 204.632812 260.640625 211.078125 252.347656 215.933594 C 252.171875 216.023438 252.003906 216.117188 251.828125 216.195312 C 239.285156 222.804688 224.433594 224.953125 210.390625 223.617188 C 199.589844 222.605469 185.792969 220.464844 177.714844 212.359375 C 175.527344 210.152344 174.035156 207.542969 173.238281 204.539062 C 162.421875 201.289062 153.339844 191.128906 146.832031 180.566406 C 130.035156 206.292969 113.914062 232.921875 101.1875 260.878906 C 96.386719 271.429688 93.152344 280.878906 92.777344 292.296875 C 92.53125 299.3125 92.300781 306.347656 92.085938 313.398438 C 94.585938 317.929688 99.675781 326.328125 105.625 322.035156 C 108.984375 319.597656 110.746094 315.269531 112.523438 311.675781 C 115.785156 305.054688 120.050781 296.554688 128.632812 297.003906 C 133.566406 297.257812 140.011719 302.753906 143.0625 295.921875 C 145.601562 290.214844 147.378906 284.558594 154.316406 282.890625 C 162.59375 280.878906 166.324219 287.148438 173.503906 289.601562 C 181.285156 292.246094 187.476562 290.667969 193.0625 284.585938 C 202.316406 274.515625 209.347656 262.671875 224.695312 262.914062 C 231.007812 263.015625 236.984375 265.5625 242.492188 262.078125 C 246.289062 259.691406 251.730469 256 256.480469 257.042969 C 258.804688 257.566406 260.386719 260.105469 261.949219 261.65625 C 264.890625 264.582031 269.074219 268.3125 273.578125 268.179688 C 281.371094 267.953125 285.277344 259.78125 287.1875 253.234375 C 288.6875 248.125 290.238281 240.332031 295.519531 237.632812 C 299.398438 235.652344 305.601562 234.597656 308.890625 238.378906 C 311.628906 241.546875 312.925781 249.503906 318.261719 249.183594 C 321.351562 248.996094 323.046875 244.035156 324.144531 241.722656 C 326.753906 236.226562 330.480469 230.332031 336.417969 231.625 C 337.460938 230.382812 338.53125 229.167969 339.5625 227.886719 C 341.417969 225.554688 344.078125 226.46875 345.375 228.417969 C 345.910156 228.765625 346.339844 229.214844 346.660156 229.765625 C 346.980469 230.316406 347.15625 230.910156 347.195312 231.546875 C 349.082031 256.175781 350.46875 280.496094 349.238281 305.1875 C 348.675781 316.382812 348.039062 327.578125 347.324219 338.777344 C 347.101562 342.398438 343.207031 343.402344 340.417969 344.75 C 335.949219 346.890625 331.429688 348.929688 326.855469 350.871094 C 321.527344 353.148438 316.121094 355.25 310.640625 357.171875 C 271.847656 370.769531 232.425781 382.691406 193.183594 394.875 C 171.363281 401.652344 149.53125 408.363281 127.617188 414.863281 C 116.53125 418.148438 105.316406 422.042969 93.9375 424.394531 C 94.257812 426.6875 94.703125 428.957031 95.273438 431.199219 C 95.472656 432 96.039062 433.847656 96.132812 434.019531 C 96.226562 434.207031 96.304688 434.351562 96.359375 434.460938 C 96.601562 434.460938 96.933594 434.476562 97.386719 434.460938 C 108.257812 434.15625 120.035156 430.265625 130.703125 427.351562 C 171.65625 416.1875 212.023438 402.652344 252.140625 388.859375 C 284.621094 377.695312 317.832031 367.066406 349.214844 353.03125 C 350.816406 352.304688 352.433594 351.582031 353.996094 350.742188 C 354.421875 350.5 354.839844 350.285156 355.242188 350.015625 C 357.488281 346.125 357.808594 339.175781 358.25 334.375 C 360.265625 312.78125 360.296875 290.96875 360.246094 269.304688 Z M 222.640625 202.226562 C 221.152344 204.402344 222.558594 208.160156 225.242188 208.621094 C 225.449219 208.652344 225.65625 208.707031 225.863281 208.753906 C 227.394531 209.078125 228.863281 208.886719 230.261719 208.175781 C 231.707031 207.65625 232.800781 206.722656 233.539062 205.375 C 234.125 204.300781 234.273438 203.167969 233.984375 201.976562 C 233.683594 200.808594 233.007812 199.929688 231.957031 199.339844 C 230.644531 198.65625 229.257812 198.460938 227.804688 198.753906 C 227.398438 198.824219 226.996094 198.945312 226.597656 199.046875 C 225.761719 199.3125 225.003906 199.71875 224.320312 200.265625 C 223.636719 200.8125 223.078125 201.46875 222.640625 202.226562 Z M 246.222656 196.984375 C 246.246094 197.085938 246.292969 197.171875 246.359375 197.25 C 246.425781 197.328125 246.503906 197.390625 246.597656 197.429688 C 246.695312 197.46875 246.792969 197.484375 246.894531 197.480469 C 246.996094 197.472656 247.09375 197.445312 247.179688 197.390625 C 248.367188 197.359375 249.160156 196.476562 250.089844 195.941406 C 250.695312 195.722656 251.238281 195.402344 251.722656 194.980469 C 251.875 194.824219 251.992188 194.644531 252.074219 194.441406 C 252.15625 194.238281 252.199219 194.027344 252.199219 193.8125 C 252.199219 193.59375 252.15625 193.382812 252.074219 193.179688 C 251.992188 192.976562 251.875 192.796875 251.722656 192.640625 C 250.691406 191.4375 248.695312 192.488281 247.640625 193.125 C 247.023438 193.441406 246.546875 193.902344 246.214844 194.515625 C 246.074219 194.828125 245.957031 195.148438 245.871094 195.480469 C 245.792969 195.753906 245.792969 196.023438 245.871094 196.296875 C 245.949219 196.546875 246.066406 196.773438 246.222656 196.984375 Z M 208.960938 196.199219 C 208.71875 195.222656 208.839844 194.289062 209.320312 193.40625 C 209.621094 192.660156 210.078125 192.03125 210.699219 191.515625 C 211.203125 191.066406 211.789062 190.773438 212.453125 190.636719 C 213.117188 190.5 213.769531 190.542969 214.414062 190.761719 C 214.582031 190.75 214.75 190.765625 214.910156 190.816406 C 215.074219 190.867188 215.21875 190.945312 215.355469 191.046875 C 215.488281 191.152344 215.597656 191.277344 215.683594 191.425781 C 215.769531 191.570312 215.828125 191.726562 215.855469 191.894531 C 215.914062 191.96875 215.96875 192.03125 216.046875 192.117188 C 216.203125 192.414062 216.332031 192.71875 216.441406 193.03125 C 216.59375 193.613281 216.597656 194.191406 216.453125 194.773438 C 216.382812 195.394531 216.1875 195.976562 215.871094 196.519531 C 215.773438 196.703125 215.675781 196.882812 215.574219 197.0625 C 215.394531 197.367188 215.175781 197.644531 214.914062 197.886719 C 214.652344 198.128906 214.363281 198.328125 214.042969 198.484375 C 213.722656 198.640625 213.386719 198.75 213.035156 198.804688 C 212.6875 198.863281 212.332031 198.871094 211.980469 198.824219 C 211.628906 198.777344 211.289062 198.683594 210.964844 198.535156 C 210.640625 198.390625 210.34375 198.199219 210.074219 197.964844 C 209.804688 197.734375 209.574219 197.464844 209.386719 197.164062 C 209.195312 196.863281 209.054688 196.539062 208.957031 196.199219 Z M 215.644531 191.648438 C 215.636719 191.613281 215.636719 191.578125 215.628906 191.539062 C 215.429688 191.363281 215.449219 191.40625 215.644531 191.648438 Z M 216.441406 194.859375 C 216.449219 194.832031 216.445312 194.800781 216.453125 194.773438 C 216.472656 194.625 216.492188 194.480469 216.515625 194.3125 C 216.488281 194.496094 216.464844 194.675781 216.441406 194.859375 Z M 222.519531 179.4375 C 221.621094 179.605469 222.8125 179.417969 223.113281 179.332031 C 223.503906 179.183594 223.878906 179 224.238281 178.78125 C 224.496094 178.632812 224.71875 178.449219 224.914062 178.226562 C 225.109375 178 225.261719 177.753906 225.375 177.480469 C 225.484375 177.203125 225.550781 176.917969 225.566406 176.625 C 225.585938 176.328125 225.550781 176.039062 225.472656 175.753906 C 225.386719 175.472656 225.261719 175.214844 225.097656 174.972656 C 224.929688 174.734375 224.730469 174.523438 224.496094 174.347656 C 224.265625 174.171875 224.011719 174.035156 223.738281 173.9375 C 223.460938 173.839844 223.175781 173.785156 222.886719 173.777344 C 222.492188 173.738281 222.101562 173.769531 221.71875 173.871094 C 221.332031 173.972656 220.980469 174.140625 220.65625 174.371094 C 220.332031 174.601562 220.0625 174.882812 219.839844 175.210938 C 219.617188 175.542969 219.460938 175.902344 219.371094 176.289062 C 219.25 176.730469 219.246094 177.175781 219.363281 177.621094 C 219.484375 178.066406 219.707031 178.453125 220.035156 178.777344 C 220.363281 179.09375 220.75 179.3125 221.191406 179.429688 C 221.632812 179.546875 222.074219 179.550781 222.519531 179.4375 Z M 227.859375 182.125 C 227.941406 182.449219 228.105469 182.730469 228.34375 182.972656 C 228.578125 183.210938 228.863281 183.371094 229.1875 183.457031 C 229.53125 183.527344 229.878906 183.574219 230.230469 183.585938 C 230.617188 183.535156 230.984375 183.417969 231.328125 183.238281 C 231.675781 183.058594 231.980469 182.828125 232.246094 182.539062 C 232.511719 182.253906 232.722656 181.929688 232.875 181.570312 C 233.027344 181.210938 233.113281 180.835938 233.136719 180.449219 C 233.132812 180.203125 233.070312 179.972656 232.960938 179.753906 C 232.847656 179.535156 232.695312 179.351562 232.5 179.203125 C 232.304688 179.054688 232.085938 178.957031 231.847656 178.90625 C 231.609375 178.855469 231.367188 178.859375 231.132812 178.921875 C 230.804688 178.96875 230.492188 179.074219 230.203125 179.234375 C 230.136719 179.277344 230.058594 179.316406 229.984375 179.355469 C 230.105469 179.277344 229.71875 179.417969 229.667969 179.429688 C 229.308594 179.527344 228.996094 179.710938 228.730469 179.976562 C 228.6875 180.011719 228.644531 180.042969 228.601562 180.082031 C 228.863281 179.871094 228.777344 179.933594 228.347656 180.269531 C 228.121094 180.503906 227.964844 180.773438 227.875 181.085938 C 227.785156 181.394531 227.777344 181.710938 227.84375 182.027344 C 227.851562 182.058594 227.855469 182.089844 227.859375 182.125 Z M 232.414062 161.304688 C 232.746094 161.488281 233.097656 161.585938 233.476562 161.59375 C 233.855469 161.597656 234.214844 161.515625 234.550781 161.34375 C 235.085938 161.113281 235.554688 160.789062 235.960938 160.371094 C 235.390625 160.875 235.980469 160.371094 236.140625 160.273438 C 236.664062 159.941406 237.109375 159.527344 237.476562 159.027344 C 238.648438 157.492188 237.070312 155.0625 235.265625 155.167969 C 233.972656 155.332031 232.871094 155.882812 231.960938 156.820312 C 231.804688 156.96875 231.664062 157.136719 231.546875 157.316406 C 231.425781 157.5 231.328125 157.691406 231.253906 157.894531 C 231.179688 158.097656 231.128906 158.308594 231.101562 158.523438 C 231.074219 158.742188 231.070312 158.957031 231.09375 159.171875 C 231.113281 159.386719 231.160156 159.597656 231.230469 159.804688 C 231.300781 160.011719 231.390625 160.207031 231.507812 160.390625 C 231.621094 160.574219 231.753906 160.746094 231.910156 160.898438 C 232.0625 161.054688 232.230469 161.1875 232.414062 161.304688 Z M 199.414062 167.320312 C 199.417969 167.34375 199.421875 167.363281 199.425781 167.382812 C 199.433594 167.480469 199.449219 167.578125 199.472656 167.671875 C 199.527344 167.855469 199.601562 168.03125 199.699219 168.195312 C 199.710938 168.222656 199.726562 168.238281 199.738281 168.265625 C 199.796875 168.355469 199.855469 168.445312 199.917969 168.523438 C 200.21875 168.925781 200.613281 169.183594 201.101562 169.300781 C 201.757812 169.453125 202.417969 169.496094 203.085938 169.429688 C 203.398438 169.429688 203.703125 169.371094 203.996094 169.25 C 204.289062 169.128906 204.546875 168.957031 204.769531 168.734375 C 204.992188 168.511719 205.164062 168.253906 205.285156 167.964844 C 205.40625 167.671875 205.46875 167.367188 205.46875 167.050781 C 205.46875 166.738281 205.40625 166.433594 205.285156 166.140625 C 205.164062 165.847656 204.992188 165.59375 204.769531 165.371094 C 204.546875 165.144531 204.289062 164.976562 203.996094 164.855469 C 203.703125 164.734375 203.398438 164.675781 203.085938 164.675781 C 202.417969 164.609375 201.757812 164.65625 201.101562 164.804688 C 200.613281 164.921875 200.21875 165.179688 199.917969 165.582031 C 199.855469 165.664062 199.796875 165.753906 199.738281 165.839844 C 199.726562 165.863281 199.710938 165.882812 199.699219 165.90625 C 199.601562 166.074219 199.527344 166.246094 199.472656 166.433594 C 199.449219 166.527344 199.433594 166.625 199.425781 166.722656 C 199.421875 166.746094 199.417969 166.765625 199.414062 166.789062 C 199.40625 166.878906 199.402344 166.964844 199.40625 167.050781 C 199.40625 167.144531 199.40625 167.230469 199.414062 167.320312 Z M 200.09375 182.414062 C 200.203125 182.441406 200.316406 182.457031 200.433594 182.457031 C 200.550781 182.453125 200.664062 182.4375 200.773438 182.410156 C 200.886719 182.378906 200.992188 182.332031 201.089844 182.277344 C 201.191406 182.21875 201.28125 182.148438 201.363281 182.066406 C 201.445312 181.984375 201.515625 181.894531 201.574219 181.792969 C 201.632812 181.695312 201.675781 181.585938 201.707031 181.476562 C 201.738281 181.363281 201.753906 181.25 201.753906 181.136719 C 201.753906 181.019531 201.742188 180.90625 201.710938 180.792969 C 201.714844 180.8125 201.738281 180.507812 201.738281 180.492188 C 201.738281 180.410156 201.730469 180.324219 201.714844 180.242188 C 201.738281 180.113281 201.730469 179.984375 201.6875 179.859375 C 201.648438 179.734375 201.578125 179.628906 201.480469 179.539062 C 201.382812 179.449219 201.273438 179.390625 201.144531 179.355469 C 201.015625 179.324219 200.890625 179.328125 200.761719 179.359375 C 200.671875 179.398438 200.578125 179.433594 200.492188 179.476562 C 200.992188 179.25 200.152344 179.542969 200.113281 179.5625 C 199.75 179.785156 199.480469 180.09375 199.304688 180.484375 C 199.207031 180.660156 199.152344 180.851562 199.140625 181.054688 C 199.128906 181.253906 199.160156 181.449219 199.234375 181.636719 C 199.3125 181.824219 199.425781 181.988281 199.574219 182.125 C 199.726562 182.257812 199.898438 182.355469 200.09375 182.414062 Z M 213.246094 161.316406 C 213.261719 161.320312 213.277344 161.324219 213.296875 161.332031 C 213.675781 161.4375 214.054688 161.441406 214.433594 161.339844 C 214.816406 161.238281 215.144531 161.046875 215.421875 160.769531 C 216.023438 160.144531 216.304688 159.398438 216.257812 158.53125 C 216.253906 158.355469 216.230469 158.183594 216.179688 158.015625 C 216.132812 157.847656 216.0625 157.6875 215.972656 157.539062 C 215.882812 157.390625 215.777344 157.253906 215.652344 157.128906 C 215.527344 157.007812 215.386719 156.902344 215.238281 156.816406 C 215.085938 156.726562 214.925781 156.664062 214.753906 156.617188 C 214.585938 156.570312 214.414062 156.546875 214.242188 156.546875 C 214.066406 156.542969 213.894531 156.566406 213.722656 156.609375 C 213.554688 156.652344 213.394531 156.714844 213.238281 156.800781 C 211.417969 157.648438 211.0625 160.679688 213.246094 161.316406 Z M 156.800781 143.351562 C 157.152344 143.496094 157.523438 143.558594 157.902344 143.542969 C 158.285156 143.53125 158.648438 143.4375 158.988281 143.269531 C 159.332031 143.097656 159.625 142.867188 159.867188 142.570312 C 160.109375 142.277344 160.28125 141.945312 160.378906 141.578125 C 160.644531 140.886719 160.738281 140.175781 160.664062 139.441406 C 160.585938 138.710938 160.347656 138.03125 159.945312 137.414062 C 159.644531 136.917969 159.242188 136.523438 158.738281 136.234375 C 158.230469 135.945312 157.6875 135.796875 157.109375 135.785156 C 156.75 135.789062 156.398438 135.84375 156.058594 135.960938 C 155.714844 136.078125 155.402344 136.242188 155.117188 136.460938 C 154.828125 136.679688 154.585938 136.9375 154.382812 137.234375 C 154.179688 137.53125 154.03125 137.851562 153.933594 138.199219 C 153.792969 138.730469 153.757812 139.269531 153.828125 139.8125 C 153.898438 140.359375 154.066406 140.871094 154.332031 141.351562 C 154.597656 141.832031 154.945312 142.242188 155.371094 142.589844 C 155.800781 142.933594 156.273438 143.1875 156.800781 143.351562 Z M 167.78125 156.828125 C 167.769531 156.796875 167.757812 156.769531 167.746094 156.742188 C 167.636719 156.496094 167.65625 156.535156 167.78125 156.828125 Z M 163.421875 160.078125 C 163.765625 160.476562 164.195312 160.714844 164.710938 160.800781 C 164.957031 160.929688 165.214844 161.027344 165.484375 161.09375 C 165.910156 161.210938 166.324219 161.183594 166.730469 161.019531 C 167.136719 160.855469 167.449219 160.582031 167.671875 160.203125 C 167.816406 159.851562 167.914062 159.492188 167.96875 159.117188 C 168.210938 158.359375 168.15625 157.625 167.8125 156.910156 C 167.699219 156.523438 167.507812 156.179688 167.246094 155.875 C 166.980469 155.574219 166.667969 155.335938 166.304688 155.167969 C 165.9375 155 165.554688 154.914062 165.15625 154.910156 C 164.753906 154.90625 164.367188 154.984375 164 155.144531 C 163.632812 155.304688 163.3125 155.53125 163.042969 155.832031 C 162.773438 156.128906 162.578125 156.46875 162.453125 156.847656 C 162.328125 157.230469 162.289062 157.621094 162.332031 158.019531 C 162.375 158.417969 162.496094 158.792969 162.699219 159.140625 C 162.933594 159.460938 163.179688 159.769531 163.421875 160.078125 Z M 167.78125 156.828125 C 167.789062 156.855469 167.804688 156.882812 167.8125 156.910156 C 167.824219 156.929688 167.835938 156.949219 167.84375 156.972656 C 167.816406 156.910156 167.804688 156.875 167.78125 156.828125 Z M 178.558594 137.773438 C 178.980469 137.773438 179.382812 137.691406 179.773438 137.53125 C 180.164062 137.367188 180.507812 137.136719 180.804688 136.839844 C 181.105469 136.542969 181.332031 136.199219 181.496094 135.808594 C 181.65625 135.417969 181.738281 135.011719 181.738281 134.589844 C 181.738281 134.167969 181.65625 133.765625 181.496094 133.375 C 181.335938 132.984375 181.105469 132.640625 180.804688 132.34375 C 180.507812 132.042969 180.164062 131.8125 179.773438 131.652344 C 179.382812 131.492188 178.980469 131.410156 178.558594 131.410156 C 178.136719 131.410156 177.730469 131.492188 177.339844 131.652344 C 176.949219 131.8125 176.605469 132.042969 176.308594 132.34375 C 176.007812 132.640625 175.78125 132.984375 175.617188 133.375 C 175.457031 133.765625 175.375 134.167969 175.375 134.589844 C 175.378906 135.011719 175.464844 135.414062 175.625 135.804688 C 175.789062 136.191406 176.019531 136.535156 176.316406 136.832031 C 176.613281 137.128906 176.957031 137.359375 177.34375 137.523438 C 177.730469 137.683594 178.136719 137.769531 178.558594 137.773438 Z M 171.21875 123.742188 C 171.703125 123.742188 172.167969 123.648438 172.617188 123.464844 C 173.066406 123.277344 173.460938 123.011719 173.804688 122.671875 C 174.144531 122.328125 174.410156 121.933594 174.597656 121.484375 C 174.78125 121.039062 174.875 120.570312 174.875 120.085938 C 174.875 119.601562 174.78125 119.136719 174.597656 118.6875 C 174.410156 118.238281 174.148438 117.84375 173.804688 117.5 C 173.460938 117.160156 173.066406 116.894531 172.621094 116.707031 C 172.171875 116.523438 171.707031 116.429688 171.21875 116.429688 C 170.734375 116.429688 170.269531 116.523438 169.820312 116.707031 C 169.375 116.894531 168.976562 117.15625 168.636719 117.5 C 168.292969 117.84375 168.027344 118.238281 167.84375 118.683594 C 167.65625 119.132812 167.5625 119.597656 167.5625 120.085938 C 167.566406 120.566406 167.664062 121.03125 167.847656 121.476562 C 168.035156 121.925781 168.300781 122.320312 168.640625 122.660156 C 168.984375 123.003906 169.378906 123.265625 169.824219 123.453125 C 170.269531 123.640625 170.734375 123.738281 171.21875 123.742188 Z M 178.511719 155.71875 C 178.503906 155.808594 178.484375 155.890625 178.46875 155.980469 C 178.464844 156.027344 178.464844 156.066406 178.460938 156.113281 C 178.46875 156.019531 178.484375 155.902344 178.511719 155.71875 Z M 178.15625 153.832031 C 178.542969 154.722656 178.207031 153.816406 178.15625 153.566406 C 177.898438 152.65625 177.347656 151.976562 176.507812 151.539062 L 176.488281 151.523438 C 176.457031 151.496094 176.425781 151.472656 176.394531 151.441406 C 176.191406 151.238281 175.960938 151.085938 175.695312 150.976562 C 175.429688 150.867188 175.15625 150.8125 174.871094 150.8125 C 174.585938 150.8125 174.3125 150.867188 174.046875 150.976562 C 173.78125 151.085938 173.550781 151.238281 173.347656 151.441406 C 173.046875 151.703125 172.796875 152.003906 172.589844 152.34375 C 172.382812 152.683594 172.230469 153.046875 172.132812 153.433594 C 172.039062 153.820312 172 154.210938 172.023438 154.605469 C 172.046875 155.003906 172.125 155.390625 172.265625 155.761719 C 172.40625 156.132812 172.597656 156.476562 172.839844 156.792969 C 173.082031 157.105469 173.367188 157.375 173.695312 157.605469 C 174.019531 157.832031 174.371094 158.007812 174.75 158.125 C 175.128906 158.246094 175.519531 158.308594 175.917969 158.3125 C 176.234375 158.304688 176.539062 158.242188 176.835938 158.125 C 177.132812 158.007812 177.398438 157.84375 177.632812 157.628906 C 177.867188 157.414062 178.058594 157.164062 178.203125 156.882812 C 178.34375 156.597656 178.433594 156.296875 178.46875 155.980469 C 178.59375 155.230469 178.488281 154.515625 178.15625 153.832031 Z M 178.460938 156.117188 L 178.460938 156.113281 C 178.433594 156.285156 178.433594 156.292969 178.460938 156.117188 Z M 197.832031 132.296875 C 198.207031 132.296875 198.566406 132.226562 198.910156 132.082031 C 199.253906 131.9375 199.558594 131.734375 199.824219 131.472656 C 200.085938 131.207031 200.289062 130.902344 200.433594 130.558594 C 200.578125 130.210938 200.648438 129.851562 200.648438 129.480469 C 200.648438 129.105469 200.574219 128.746094 200.433594 128.402344 C 200.289062 128.058594 200.085938 127.753906 199.824219 127.488281 C 199.558594 127.226562 199.253906 127.023438 198.910156 126.878906 C 198.566406 126.734375 198.207031 126.664062 197.832031 126.664062 C 197.457031 126.664062 197.101562 126.734375 196.753906 126.878906 C 196.410156 127.019531 196.105469 127.222656 195.839844 127.488281 C 195.578125 127.75 195.375 128.054688 195.230469 128.402344 C 195.085938 128.746094 195.015625 129.105469 195.015625 129.476562 C 195.019531 129.851562 195.089844 130.210938 195.234375 130.554688 C 195.378906 130.898438 195.582031 131.203125 195.847656 131.464844 C 196.109375 131.730469 196.414062 131.933594 196.757812 132.078125 C 197.101562 132.21875 197.460938 132.292969 197.832031 132.296875 Z M 185.308594 149.203125 C 185.78125 149.203125 186.234375 149.113281 186.667969 148.933594 C 187.101562 148.753906 187.484375 148.496094 187.816406 148.164062 C 188.152344 147.832031 188.40625 147.449219 188.585938 147.015625 C 188.765625 146.582031 188.859375 146.128906 188.859375 145.65625 C 188.859375 145.1875 188.769531 144.734375 188.585938 144.300781 C 188.40625 143.867188 188.152344 143.480469 187.820312 143.148438 C 187.488281 142.816406 187.101562 142.5625 186.667969 142.378906 C 186.234375 142.199219 185.78125 142.109375 185.3125 142.109375 C 184.839844 142.109375 184.386719 142.199219 183.953125 142.382812 C 183.519531 142.5625 183.136719 142.816406 182.804688 143.148438 C 182.472656 143.484375 182.214844 143.867188 182.035156 144.300781 C 181.855469 144.734375 181.765625 145.1875 181.765625 145.660156 C 181.769531 146.125 181.863281 146.578125 182.042969 147.007812 C 182.226562 147.441406 182.484375 147.824219 182.8125 148.15625 C 183.144531 148.484375 183.527344 148.742188 183.960938 148.921875 C 184.390625 149.105469 184.839844 149.199219 185.308594 149.203125 Z M 170.175781 172.25 C 169.824219 172.25 169.488281 172.316406 169.164062 172.449219 C 168.84375 172.582031 168.558594 172.773438 168.3125 173.019531 C 168.0625 173.265625 167.875 173.550781 167.738281 173.871094 C 167.605469 174.195312 167.539062 174.53125 167.539062 174.878906 C 167.539062 175.230469 167.605469 175.566406 167.738281 175.886719 C 167.871094 176.210938 168.0625 176.496094 168.308594 176.742188 C 168.554688 176.988281 168.839844 177.179688 169.164062 177.3125 C 169.484375 177.449219 169.820312 177.515625 170.171875 177.515625 C 170.519531 177.515625 170.855469 177.449219 171.179688 177.3125 C 171.5 177.179688 171.785156 176.992188 172.03125 176.742188 C 172.28125 176.496094 172.46875 176.210938 172.605469 175.890625 C 172.738281 175.566406 172.804688 175.230469 172.804688 174.882812 C 172.800781 174.535156 172.730469 174.199219 172.597656 173.878906 C 172.460938 173.558594 172.273438 173.273438 172.027344 173.027344 C 171.78125 172.78125 171.496094 172.59375 171.175781 172.457031 C 170.855469 172.320312 170.523438 172.253906 170.175781 172.25 Z M 193.65625 302.507812 C 192.832031 302.429688 192.011719 302.476562 191.203125 302.652344 C 190.480469 302.863281 189.699219 302.816406 189 303.066406 C 188.613281 303.183594 188.296875 303.40625 188.054688 303.730469 C 187.816406 304.058594 187.695312 304.421875 187.695312 304.828125 C 187.695312 305.234375 187.816406 305.601562 188.054688 305.925781 C 188.296875 306.25 188.613281 306.472656 189 306.59375 C 190.003906 306.8125 190.984375 306.734375 191.945312 306.359375 C 192.929688 305.980469 193.804688 305.421875 194.566406 304.691406 C 195.484375 303.949219 194.679688 302.527344 193.65625 302.507812 Z M 228.066406 290.558594 C 227.441406 290.484375 226.824219 290.53125 226.214844 290.691406 C 225.570312 290.921875 224.933594 291.140625 224.273438 291.328125 C 223.9375 291.425781 223.636719 291.582031 223.363281 291.796875 C 223.089844 292.011719 222.867188 292.269531 222.695312 292.570312 C 222.523438 292.875 222.414062 293.199219 222.367188 293.542969 C 222.324219 293.886719 222.347656 294.230469 222.433594 294.566406 C 222.527344 294.902344 222.679688 295.207031 222.894531 295.484375 C 223.109375 295.757812 223.367188 295.980469 223.671875 296.152344 C 223.976562 296.328125 224.300781 296.433594 224.644531 296.476562 C 224.992188 296.519531 225.332031 296.496094 225.667969 296.402344 C 226.441406 296.101562 227.210938 295.777344 227.960938 295.417969 C 228.738281 294.976562 229.355469 294.371094 229.8125 293.597656 C 230.777344 292.3125 229.460938 290.589844 228.066406 290.558594 Z M 253.296875 289.839844 C 253.160156 289.980469 253.0625 290.140625 253 290.328125 C 252.9375 290.511719 252.917969 290.699219 252.941406 290.890625 C 252.964844 291.082031 253.027344 291.261719 253.128906 291.425781 C 253.234375 291.589844 253.367188 291.722656 253.53125 291.828125 C 253.800781 292.117188 254.128906 292.292969 254.515625 292.355469 C 254.90625 292.417969 255.269531 292.355469 255.617188 292.164062 C 256.035156 291.9375 256.371094 291.625 256.625 291.222656 C 256.878906 290.820312 257.015625 290.378906 257.039062 289.90625 C 257.035156 289.785156 257.019531 289.664062 256.988281 289.546875 C 256.953125 289.429688 256.90625 289.320312 256.84375 289.214844 C 256.78125 289.109375 256.707031 289.015625 256.621094 288.929688 C 256.535156 288.84375 256.441406 288.769531 256.335938 288.710938 C 256.230469 288.648438 256.117188 288.605469 256 288.570312 C 255.882812 288.539062 255.765625 288.523438 255.640625 288.523438 C 255.519531 288.523438 255.402344 288.539062 255.285156 288.566406 C 255.164062 288.597656 255.054688 288.644531 254.949219 288.703125 C 254.914062 288.722656 254.605469 288.945312 254.511719 289.015625 C 254.488281 289.03125 254.488281 289.035156 254.472656 289.042969 C 253.960938 289.132812 253.570312 289.398438 253.296875 289.839844 Z M 254.515625 289.011719 L 254.527344 289 C 254.46875 289.042969 254.476562 289.039062 254.515625 289.011719 Z M 223.929688 288.195312 C 223.972656 288.191406 223.992188 288.171875 223.992188 288.128906 C 223.992188 288.085938 223.972656 288.066406 223.929688 288.0625 C 223.882812 288.0625 223.863281 288.085938 223.863281 288.128906 C 223.863281 288.175781 223.882812 288.195312 223.929688 288.195312 Z M 210.492188 306.855469 C 210.28125 306.859375 210.078125 306.90625 209.882812 306.992188 C 209.691406 307.078125 209.519531 307.199219 209.375 307.347656 C 209.226562 307.5 209.113281 307.675781 209.035156 307.871094 C 208.953125 308.066406 208.914062 308.269531 208.914062 308.484375 C 208.914062 308.695312 208.953125 308.898438 209.035156 309.09375 C 209.113281 309.289062 209.226562 309.464844 209.375 309.617188 C 209.519531 309.769531 209.691406 309.886719 209.882812 309.972656 C 210.078125 310.058594 210.28125 310.105469 210.492188 310.113281 C 210.703125 310.105469 210.90625 310.058594 211.097656 309.972656 C 211.292969 309.886719 211.464844 309.769531 211.609375 309.617188 C 211.757812 309.464844 211.871094 309.289062 211.949219 309.09375 C 212.03125 308.898438 212.070312 308.695312 212.070312 308.484375 C 212.070312 308.269531 212.03125 308.066406 211.949219 307.871094 C 211.871094 307.675781 211.757812 307.5 211.609375 307.347656 C 211.464844 307.199219 211.292969 307.078125 211.097656 306.992188 C 210.90625 306.90625 210.703125 306.859375 210.492188 306.855469 Z M 150.484375 320.675781 C 150.34375 320.710938 150.207031 320.75 150.0625 320.785156 C 150.046875 320.789062 150.03125 320.792969 150.015625 320.796875 C 149.992188 320.804688 149.964844 320.8125 149.941406 320.820312 C 149.671875 320.90625 149.457031 321.0625 149.289062 321.289062 C 149.125 321.515625 149.039062 321.769531 149.039062 322.050781 C 149.039062 322.332031 149.125 322.585938 149.289062 322.8125 C 149.457031 323.039062 149.671875 323.195312 149.941406 323.28125 C 149.964844 323.285156 149.992188 323.292969 150.015625 323.300781 C 150.03125 323.304688 150.050781 323.308594 150.0625 323.3125 C 150.207031 323.351562 150.34375 323.386719 150.484375 323.425781 C 152.78125 324.03125 152.78125 320.074219 150.484375 320.675781 Z M 225.15625 284.386719 C 226.019531 284.34375 226.753906 284.007812 227.351562 283.378906 C 227.613281 283.105469 227.8125 282.792969 227.953125 282.441406 C 228.09375 282.089844 228.164062 281.722656 228.164062 281.34375 C 228.164062 280.964844 228.09375 280.601562 227.953125 280.25 C 227.8125 279.894531 227.613281 279.582031 227.351562 279.308594 C 226.753906 278.683594 226.019531 278.347656 225.15625 278.308594 C 224.527344 278.15625 223.894531 278.144531 223.261719 278.277344 C 222.8125 278.4375 222.375 278.628906 221.949219 278.851562 C 221.734375 278.980469 221.539062 279.132812 221.363281 279.3125 C 221.183594 279.492188 221.035156 279.691406 220.910156 279.910156 C 220.785156 280.128906 220.691406 280.359375 220.625 280.601562 C 220.5625 280.847656 220.53125 281.09375 220.53125 281.34375 C 220.53125 281.597656 220.5625 281.84375 220.625 282.085938 C 220.691406 282.332031 220.785156 282.5625 220.910156 282.78125 C 221.035156 283 221.183594 283.199219 221.363281 283.378906 C 221.539062 283.558594 221.734375 283.710938 221.949219 283.839844 C 222.132812 283.921875 222.320312 284.011719 222.507812 284.09375 C 223.355469 284.484375 224.238281 284.582031 225.15625 284.386719 Z M 162.132812 306.535156 C 161.5 306.210938 160.832031 306.046875 160.121094 306.042969 C 159.410156 306.039062 158.738281 306.195312 158.105469 306.515625 C 157.222656 306.832031 156.507812 307.375 155.964844 308.140625 C 155.695312 308.585938 155.582031 309.066406 155.632812 309.585938 C 155.679688 310.105469 155.878906 310.558594 156.230469 310.945312 C 156.546875 311.261719 156.917969 311.484375 157.347656 311.605469 C 157.78125 311.726562 158.214844 311.738281 158.648438 311.632812 C 159.207031 311.511719 159.742188 311.324219 160.253906 311.070312 C 160.855469 310.816406 161.382812 310.457031 161.839844 309.996094 C 162.292969 309.53125 162.644531 309 162.886719 308.398438 C 162.980469 308.039062 162.957031 307.6875 162.816406 307.34375 C 162.675781 307 162.449219 306.730469 162.132812 306.535156 Z M 276.078125 288.085938 C 277.535156 288.289062 278.898438 288.023438 280.171875 287.289062 C 281.125 286.855469 281.832031 286.171875 282.292969 285.234375 C 282.417969 285.074219 282.5 284.894531 282.539062 284.695312 C 282.578125 284.496094 282.566406 284.300781 282.507812 284.105469 C 282.445312 283.910156 282.34375 283.738281 282.203125 283.59375 C 282.058594 283.449219 281.890625 283.347656 281.695312 283.285156 C 281.648438 283.253906 281.613281 283.226562 281.550781 283.179688 C 281.277344 283.019531 280.980469 282.9375 280.664062 282.941406 C 280.015625 282.859375 279.363281 282.859375 278.714844 282.9375 C 277.347656 283.082031 276.160156 283.617188 275.144531 284.542969 C 275.015625 284.675781 274.90625 284.820312 274.816406 284.980469 C 274.722656 285.140625 274.65625 285.3125 274.609375 285.488281 C 274.558594 285.667969 274.535156 285.847656 274.535156 286.035156 C 274.535156 286.21875 274.558594 286.398438 274.605469 286.578125 C 274.652344 286.753906 274.722656 286.925781 274.8125 287.085938 C 274.90625 287.246094 275.015625 287.390625 275.144531 287.523438 C 275.273438 287.65625 275.414062 287.769531 275.574219 287.863281 C 275.730469 287.960938 275.898438 288.03125 276.078125 288.085938 Z M 308.125 271.855469 C 308.246094 271.726562 308.339844 271.582031 308.402344 271.417969 C 308.46875 271.253906 308.5 271.085938 308.5 270.910156 C 308.5 270.730469 308.46875 270.5625 308.402344 270.398438 C 308.339844 270.234375 308.246094 270.089844 308.125 269.960938 C 307.472656 269.28125 306.671875 268.933594 305.730469 268.917969 C 305.554688 268.894531 305.382812 268.898438 305.210938 268.921875 C 305.035156 268.945312 304.867188 268.988281 304.707031 269.054688 C 304.542969 269.121094 304.394531 269.207031 304.253906 269.3125 C 304.113281 269.414062 303.988281 269.535156 303.878906 269.671875 C 303.769531 269.808594 303.679688 269.957031 303.609375 270.117188 C 303.539062 270.277344 303.488281 270.445312 303.460938 270.617188 C 303.433594 270.789062 303.425781 270.960938 303.441406 271.136719 C 303.457031 271.3125 303.496094 271.480469 303.554688 271.644531 C 304.378906 273.410156 306.988281 273.171875 308.125 271.855469 Z M 320.566406 276.367188 C 320.898438 276.046875 321.097656 275.652344 321.160156 275.195312 C 321.277344 274.816406 321.324219 274.433594 321.304688 274.039062 C 321.296875 273.703125 321.183594 273.410156 320.957031 273.15625 C 320.734375 272.90625 320.453125 272.761719 320.121094 272.722656 C 319.917969 272.542969 319.691406 272.414062 319.429688 272.339844 C 319.171875 272.261719 318.910156 272.242188 318.644531 272.28125 C 318.378906 272.324219 318.132812 272.417969 317.910156 272.566406 C 317.6875 272.714844 317.503906 272.902344 317.363281 273.132812 C 317.0625 273.539062 316.890625 273.992188 316.847656 274.496094 C 316.804688 274.996094 316.898438 275.472656 317.128906 275.921875 C 317.214844 276.066406 317.3125 276.195312 317.429688 276.316406 C 317.546875 276.4375 317.671875 276.542969 317.8125 276.632812 C 317.953125 276.726562 318.101562 276.800781 318.257812 276.855469 C 318.414062 276.914062 318.574219 276.953125 318.738281 276.976562 C 318.902344 276.996094 319.070312 277 319.234375 276.984375 C 319.402344 276.96875 319.5625 276.933594 319.722656 276.882812 C 319.878906 276.828125 320.03125 276.757812 320.171875 276.671875 C 320.316406 276.585938 320.445312 276.484375 320.566406 276.367188 Z M 121.179688 330.039062 C 120.636719 329.339844 119.921875 328.957031 119.035156 328.902344 C 118.855469 328.886719 118.6875 328.867188 118.507812 328.847656 C 118.164062 328.847656 117.832031 328.914062 117.515625 329.046875 C 117.195312 329.175781 116.917969 329.363281 116.671875 329.609375 C 116.429688 329.851562 116.242188 330.132812 116.109375 330.449219 C 115.976562 330.769531 115.914062 331.101562 115.914062 331.445312 C 115.914062 331.789062 115.976562 332.121094 116.109375 332.4375 C 116.242188 332.757812 116.429688 333.035156 116.671875 333.28125 C 116.917969 333.523438 117.195312 333.710938 117.515625 333.84375 C 117.832031 333.972656 118.164062 334.039062 118.507812 334.039062 C 118.683594 334.015625 118.855469 334.003906 119.035156 333.980469 C 119.917969 333.925781 120.636719 333.550781 121.179688 332.847656 C 121.390625 332.675781 121.554688 332.46875 121.671875 332.222656 C 121.785156 331.976562 121.84375 331.714844 121.84375 331.445312 C 121.84375 331.171875 121.785156 330.914062 121.671875 330.667969 C 121.554688 330.421875 121.390625 330.210938 121.179688 330.039062 Z M 165.757812 379.457031 C 165.761719 379.675781 165.792969 379.890625 165.847656 380.101562 C 165.898438 380.3125 165.976562 380.515625 166.074219 380.707031 C 166.175781 380.902344 166.292969 381.082031 166.433594 381.25 C 166.574219 381.417969 166.730469 381.566406 166.902344 381.699219 C 167.074219 381.832031 167.261719 381.941406 167.460938 382.03125 C 167.65625 382.125 167.863281 382.191406 168.078125 382.234375 C 168.289062 382.277344 168.503906 382.300781 168.722656 382.292969 C 168.941406 382.289062 169.15625 382.261719 169.367188 382.210938 C 171.230469 381.953125 173.257812 381.667969 174.066406 379.832031 C 174.234375 379.683594 174.355469 379.5 174.417969 379.285156 C 174.484375 379.066406 174.492188 378.847656 174.433594 378.628906 C 174.375 378.410156 174.261719 378.226562 174.097656 378.070312 C 173.933594 377.914062 173.742188 377.8125 173.519531 377.769531 C 172.875 377.226562 172.132812 376.925781 171.292969 376.871094 C 170.957031 376.855469 170.621094 376.835938 170.289062 376.804688 C 170.0625 376.789062 169.839844 376.761719 169.617188 376.738281 C 169.253906 376.691406 169.167969 376.679688 169.367188 376.707031 C 169.15625 376.652344 168.941406 376.625 168.722656 376.621094 C 168.503906 376.617188 168.289062 376.636719 168.078125 376.679688 C 167.863281 376.726562 167.65625 376.792969 167.460938 376.882812 C 167.261719 376.972656 167.074219 377.082031 166.902344 377.214844 C 166.730469 377.347656 166.574219 377.496094 166.433594 377.664062 C 166.292969 377.832031 166.175781 378.011719 166.074219 378.207031 C 165.976562 378.398438 165.898438 378.601562 165.847656 378.8125 C 165.792969 379.023438 165.765625 379.238281 165.757812 379.457031 Z M 208.375 373.667969 C 208.839844 373.800781 209.3125 373.828125 209.789062 373.742188 C 210.265625 373.65625 210.699219 373.46875 211.089844 373.179688 C 211.542969 372.953125 211.914062 372.628906 212.195312 372.207031 C 212.472656 371.78125 212.628906 371.316406 212.660156 370.808594 C 212.648438 370.472656 212.539062 370.171875 212.335938 369.90625 C 212.132812 369.636719 211.871094 369.453125 211.550781 369.351562 C 210.675781 369.160156 209.859375 369.304688 209.105469 369.78125 C 208.648438 369.917969 208.253906 370.164062 207.929688 370.511719 C 207.601562 370.863281 207.386719 371.269531 207.277344 371.734375 C 207.222656 371.9375 207.210938 372.140625 207.238281 372.347656 C 207.261719 372.554688 207.328125 372.746094 207.429688 372.925781 C 207.535156 373.109375 207.667969 373.261719 207.832031 373.390625 C 207.992188 373.519531 208.175781 373.613281 208.375 373.667969 Z M 246.472656 354.433594 C 246.589844 354.351562 246.714844 354.273438 246.839844 354.203125 C 246.808594 354.207031 246.773438 354.210938 246.726562 354.214844 C 246.773438 354.210938 246.808594 354.199219 246.855469 354.195312 C 246.867188 354.1875 246.882812 354.179688 246.902344 354.164062 L 246.859375 354.195312 C 247.265625 354.15625 247.660156 354.054688 248.035156 353.890625 C 248.046875 353.886719 248.046875 353.886719 248.054688 353.878906 C 248.089844 353.871094 248.132812 353.851562 248.203125 353.820312 C 248.402344 353.738281 248.601562 353.652344 248.796875 353.570312 C 249.109375 353.328125 249.265625 353.210938 249.300781 353.179688 C 249.425781 353.089844 249.558594 352.992188 249.6875 352.898438 C 250.113281 352.660156 250.453125 352.335938 250.707031 351.917969 C 250.820312 351.671875 250.898438 351.261719 250.984375 351.097656 C 251.058594 350.964844 251.113281 350.828125 251.152344 350.683594 C 251.1875 350.539062 251.207031 350.390625 251.207031 350.238281 C 251.207031 350.089844 251.1875 349.941406 251.148438 349.796875 C 251.109375 349.652344 251.050781 349.515625 250.976562 349.382812 C 250.902344 349.253906 250.8125 349.136719 250.707031 349.027344 C 250.601562 348.921875 250.484375 348.832031 250.355469 348.753906 C 250.226562 348.679688 250.089844 348.621094 249.945312 348.578125 C 249.800781 348.539062 249.652344 348.515625 249.5 348.515625 C 249.339844 348.523438 248.929688 348.414062 248.6875 348.398438 C 248.109375 348.429688 247.578125 348.597656 247.085938 348.90625 C 246.480469 349.144531 245.953125 349.5 245.503906 349.972656 C 245.054688 350.480469 244.753906 351.066406 244.601562 351.726562 C 244.453125 352.386719 244.464844 353.042969 244.648438 353.695312 C 244.699219 353.882812 244.792969 354.046875 244.917969 354.1875 C 245.046875 354.332031 245.203125 354.441406 245.378906 354.511719 C 245.558594 354.585938 245.742188 354.613281 245.9375 354.601562 C 246.128906 354.585938 246.308594 354.53125 246.472656 354.433594 Z M 246.839844 354.203125 L 246.84375 354.199219 L 246.859375 354.195312 L 246.855469 354.195312 Z M 246.84375 354.199219 C 246.75 354.289062 247.21875 354.171875 246.84375 354.199219 Z M 192.105469 356.210938 C 192.117188 356.21875 192.128906 356.226562 192.140625 356.234375 C 192.242188 356.335938 192.351562 356.421875 192.472656 356.492188 C 192.761719 356.652344 193.070312 356.726562 193.398438 356.714844 C 193.664062 356.734375 193.929688 356.734375 194.195312 356.722656 C 194.59375 356.710938 194.953125 356.582031 195.269531 356.339844 C 195.585938 356.097656 195.804688 355.785156 195.917969 355.402344 C 196.039062 355.085938 196.039062 354.769531 195.917969 354.449219 C 195.800781 354.070312 195.585938 353.757812 195.269531 353.515625 C 194.953125 353.273438 194.59375 353.148438 194.195312 353.136719 C 193.929688 353.125 193.664062 353.125 193.398438 353.140625 C 192.90625 353.109375 192.488281 353.273438 192.140625 353.621094 C 192.128906 353.632812 192.113281 353.636719 192.105469 353.648438 C 191.707031 353.984375 191.53125 354.410156 191.578125 354.929688 C 191.535156 355.445312 191.710938 355.875 192.105469 356.210938 Z M 275.410156 337.402344 C 275.507812 337.417969 275.605469 337.441406 275.703125 337.460938 C 275.925781 337.523438 276.152344 337.558594 276.382812 337.566406 C 276.613281 337.578125 276.839844 337.558594 277.066406 337.515625 C 277.292969 337.472656 277.511719 337.402344 277.722656 337.308594 C 277.933594 337.214844 278.128906 337.097656 278.3125 336.957031 C 278.496094 336.816406 278.660156 336.660156 278.808594 336.480469 C 278.957031 336.304688 279.078125 336.109375 279.183594 335.902344 C 279.285156 335.695312 279.363281 335.480469 279.414062 335.257812 C 279.46875 335.03125 279.492188 334.804688 279.492188 334.574219 C 279.492188 334.34375 279.46875 334.117188 279.414062 333.890625 C 279.363281 333.667969 279.285156 333.449219 279.183594 333.242188 C 279.078125 333.039062 278.957031 332.84375 278.808594 332.667969 C 278.660156 332.488281 278.496094 332.332031 278.3125 332.191406 C 278.128906 332.050781 277.933594 331.933594 277.722656 331.839844 C 277.511719 331.746094 277.292969 331.675781 277.066406 331.632812 C 276.839844 331.589844 276.613281 331.570312 276.382812 331.578125 C 276.152344 331.589844 275.925781 331.625 275.703125 331.683594 C 275.605469 331.707031 275.507812 331.730469 275.410156 331.75 C 275.105469 331.839844 274.824219 331.976562 274.5625 332.160156 C 274.304688 332.339844 274.082031 332.558594 273.890625 332.8125 C 273.703125 333.070312 273.558594 333.347656 273.457031 333.648438 C 273.359375 333.949219 273.308594 334.257812 273.308594 334.574219 C 273.308594 334.890625 273.359375 335.203125 273.457031 335.503906 C 273.558594 335.804688 273.703125 336.082031 273.890625 336.335938 C 274.082031 336.589844 274.304688 336.808594 274.5625 336.992188 C 274.824219 337.171875 275.105469 337.308594 275.410156 337.402344 Z M 302.761719 325.898438 C 303.527344 326.0625 304.230469 325.921875 304.875 325.480469 C 305.230469 325.265625 305.488281 324.964844 305.644531 324.582031 C 305.800781 324.199219 305.828125 323.804688 305.722656 323.402344 C 305.65625 323.167969 305.550781 322.957031 305.398438 322.761719 C 305.25 322.570312 305.070312 322.414062 304.855469 322.292969 C 304.644531 322.175781 304.417969 322.097656 304.175781 322.070312 C 303.933594 322.039062 303.695312 322.054688 303.460938 322.121094 C 303.078125 322.277344 302.695312 322.34375 302.324219 322.527344 C 302.007812 322.71875 301.769531 322.980469 301.609375 323.3125 C 301.449219 323.644531 301.394531 323.992188 301.441406 324.355469 C 301.488281 324.722656 301.632812 325.042969 301.871094 325.324219 C 302.109375 325.605469 302.40625 325.796875 302.761719 325.898438 Z M 317.339844 311.464844 C 317.59375 311.457031 317.835938 311.402344 318.0625 311.300781 C 318.292969 311.199219 318.496094 311.058594 318.671875 310.875 C 318.847656 310.695312 318.980469 310.488281 319.074219 310.253906 C 319.171875 310.023438 319.21875 309.78125 319.21875 309.527344 C 319.21875 309.277344 319.171875 309.035156 319.074219 308.800781 C 318.980469 308.566406 318.847656 308.359375 318.671875 308.179688 C 318.496094 308 318.292969 307.859375 318.0625 307.753906 C 317.835938 307.652344 317.59375 307.597656 317.339844 307.589844 C 317.089844 307.597656 316.851562 307.652344 316.621094 307.757812 C 316.390625 307.859375 316.1875 308 316.011719 308.179688 C 315.835938 308.359375 315.703125 308.566406 315.609375 308.800781 C 315.515625 309.035156 315.46875 309.277344 315.46875 309.527344 C 315.46875 309.78125 315.515625 310.023438 315.609375 310.253906 C 315.703125 310.488281 315.835938 310.695312 316.011719 310.875 C 316.1875 311.058594 316.390625 311.199219 316.621094 311.300781 C 316.851562 311.402344 317.089844 311.457031 317.339844 311.464844 Z M 291.042969 341.019531 C 292.058594 341.257812 293.0625 341.21875 294.058594 340.902344 C 294.761719 340.691406 295.371094 340.324219 295.878906 339.792969 C 296.390625 339.261719 296.738281 338.640625 296.921875 337.929688 C 297.003906 337.566406 297.03125 337.199219 297.003906 336.832031 C 296.972656 336.460938 296.886719 336.101562 296.75 335.757812 C 296.609375 335.414062 296.417969 335.101562 296.179688 334.816406 C 295.945312 334.53125 295.667969 334.285156 295.355469 334.085938 C 294.949219 333.867188 294.523438 333.710938 294.074219 333.617188 C 293.621094 333.523438 293.167969 333.496094 292.710938 333.535156 C 292.253906 333.570312 291.808594 333.671875 291.378906 333.839844 C 290.953125 334.007812 290.554688 334.230469 290.191406 334.511719 C 289.652344 334.835938 289.226562 335.273438 288.910156 335.820312 C 288.597656 336.367188 288.4375 336.953125 288.429688 337.585938 C 288.425781 337.976562 288.488281 338.355469 288.613281 338.726562 C 288.734375 339.097656 288.914062 339.4375 289.152344 339.746094 C 289.386719 340.058594 289.667969 340.320312 289.992188 340.539062 C 290.316406 340.757812 290.667969 340.917969 291.042969 341.019531 Z M 294.757812 343.292969 C 294.621094 343.542969 294.542969 343.808594 294.527344 344.089844 C 294.511719 344.375 294.558594 344.648438 294.664062 344.910156 C 294.769531 345.171875 294.929688 345.398438 295.136719 345.589844 C 295.347656 345.78125 295.585938 345.917969 295.855469 346 C 295.597656 345.882812 295.558594 345.867188 295.753906 345.96875 C 296.019531 346.140625 296.308594 346.257812 296.621094 346.316406 C 297.257812 346.410156 297.894531 346.402344 298.527344 346.285156 C 298.9375 346.175781 299.289062 345.96875 299.585938 345.671875 C 299.886719 345.371094 300.089844 345.019531 300.203125 344.609375 C 300.332031 344.1875 300.332031 343.761719 300.203125 343.335938 C 300.042969 342.828125 299.75 342.414062 299.328125 342.09375 C 298.902344 341.769531 298.425781 341.601562 297.890625 341.582031 C 297.574219 341.546875 297.257812 341.5625 296.945312 341.621094 C 296.632812 341.683594 296.335938 341.792969 296.054688 341.945312 C 295.773438 342.097656 295.523438 342.289062 295.300781 342.519531 C 295.082031 342.75 294.898438 343.007812 294.757812 343.292969 Z M 228.414062 353.289062 C 228.746094 353.289062 229.070312 353.226562 229.375 353.097656 C 229.683594 352.96875 229.957031 352.785156 230.191406 352.550781 C 230.429688 352.3125 230.609375 352.042969 230.738281 351.734375 C 230.863281 351.425781 230.925781 351.105469 230.925781 350.769531 C 230.925781 350.4375 230.863281 350.117188 230.734375 349.808594 C 230.605469 349.5 230.425781 349.226562 230.1875 348.992188 C 229.953125 348.757812 229.679688 348.574219 229.371094 348.449219 C 229.0625 348.320312 228.742188 348.257812 228.410156 348.257812 C 228.074219 348.257812 227.753906 348.320312 227.445312 348.449219 C 227.136719 348.578125 226.867188 348.761719 226.628906 348.996094 C 226.394531 349.230469 226.214844 349.503906 226.085938 349.8125 C 225.957031 350.121094 225.894531 350.441406 225.894531 350.777344 C 225.898438 351.109375 225.964844 351.429688 226.09375 351.734375 C 226.222656 352.042969 226.40625 352.3125 226.640625 352.546875 C 226.878906 352.78125 227.148438 352.964844 227.453125 353.09375 C 227.761719 353.21875 228.082031 353.285156 228.414062 353.289062 Z M 224.871094 367.5 C 225.351562 367.265625 225.761719 366.9375 226.101562 366.527344 C 226.441406 366.113281 226.679688 365.648438 226.820312 365.128906 C 226.859375 364.984375 226.878906 364.832031 226.878906 364.679688 C 226.878906 364.527344 226.859375 364.375 226.816406 364.230469 C 226.777344 364.082031 226.71875 363.941406 226.644531 363.808594 C 226.566406 363.675781 226.476562 363.558594 226.367188 363.449219 C 226.257812 363.339844 226.140625 363.25 226.007812 363.171875 C 225.875 363.097656 225.734375 363.039062 225.585938 363 C 225.441406 362.957031 225.289062 362.9375 225.136719 362.9375 C 224.984375 362.9375 224.832031 362.957031 224.6875 362.996094 C 224.171875 363.136719 223.707031 363.378906 223.292969 363.71875 C 222.882812 364.058594 222.558594 364.46875 222.324219 364.945312 C 222.121094 365.3125 222.050781 365.703125 222.109375 366.117188 C 222.167969 366.53125 222.34375 366.882812 222.640625 367.179688 C 222.933594 367.476562 223.289062 367.652344 223.703125 367.710938 C 224.117188 367.773438 224.503906 367.703125 224.871094 367.5 Z M 238.34375 345.035156 C 239.140625 345.089844 239.886719 344.925781 240.582031 344.542969 C 240.816406 344.421875 241.050781 344.320312 241.285156 344.214844 C 241.203125 344.25 241.121094 344.285156 241.035156 344.320312 C 241.554688 344.175781 242.007812 343.914062 242.390625 343.527344 C 243.082031 343.058594 243.566406 342.425781 243.839844 341.632812 C 244.066406 340.882812 244.015625 340.148438 243.691406 339.429688 C 242.8125 337.929688 240.855469 337.894531 239.40625 338.398438 C 238.578125 338.683594 237.867188 339.140625 237.269531 339.777344 C 236.671875 340.410156 236.257812 341.148438 236.023438 341.988281 C 235.980469 342.167969 235.957031 342.347656 235.953125 342.53125 C 235.949219 342.714844 235.964844 342.894531 236.003906 343.074219 C 236.042969 343.253906 236.097656 343.429688 236.175781 343.597656 C 236.25 343.761719 236.34375 343.917969 236.457031 344.066406 C 236.566406 344.210938 236.695312 344.34375 236.835938 344.460938 C 236.976562 344.578125 237.128906 344.679688 237.289062 344.765625 C 237.453125 344.847656 237.625 344.914062 237.804688 344.957031 C 237.980469 345.003906 238.160156 345.027344 238.34375 345.035156 Z M 205.140625 354.109375 C 205.269531 354.097656 205.398438 354.089844 205.53125 354.078125 C 205.757812 354.070312 205.976562 354.019531 206.1875 353.925781 C 206.394531 353.835938 206.578125 353.707031 206.734375 353.542969 C 206.894531 353.378906 207.015625 353.191406 207.101562 352.980469 C 207.1875 352.769531 207.230469 352.546875 207.230469 352.320312 C 207.230469 352.09375 207.1875 351.871094 207.101562 351.660156 C 207.015625 351.449219 206.894531 351.261719 206.734375 351.097656 C 206.578125 350.933594 206.394531 350.804688 206.1875 350.714844 C 205.976562 350.621094 205.757812 350.570312 205.53125 350.5625 C 205.398438 350.546875 205.269531 350.539062 205.140625 350.527344 C 202.828125 350.335938 202.828125 354.300781 205.140625 354.109375 Z M 136.0625 374.265625 C 137.09375 374.742188 138.164062 374.84375 139.269531 374.574219 C 139.53125 374.496094 139.773438 374.378906 139.996094 374.222656 C 140.21875 374.066406 140.414062 373.882812 140.574219 373.664062 C 140.738281 373.445312 140.863281 373.207031 140.949219 372.945312 C 141.035156 372.6875 141.078125 372.421875 141.078125 372.152344 C 141.078125 371.878906 141.035156 371.613281 140.949219 371.355469 C 140.863281 371.097656 140.738281 370.859375 140.574219 370.640625 C 140.414062 370.421875 140.21875 370.234375 139.996094 370.078125 C 139.773438 369.921875 139.53125 369.804688 139.269531 369.726562 C 138.164062 369.453125 137.09375 369.558594 136.0625 370.035156 C 135.878906 370.144531 135.710938 370.273438 135.5625 370.425781 C 135.414062 370.578125 135.285156 370.75 135.179688 370.933594 C 135.074219 371.117188 134.996094 371.316406 134.941406 371.519531 C 134.886719 371.726562 134.859375 371.9375 134.859375 372.152344 C 134.859375 372.363281 134.886719 372.574219 134.941406 372.78125 C 134.996094 372.988281 135.074219 373.183594 135.179688 373.367188 C 135.285156 373.554688 135.414062 373.722656 135.5625 373.875 C 135.710938 374.027344 135.878906 374.15625 136.0625 374.265625 Z M 123.402344 391.769531 C 123.207031 391.402344 123.144531 391.015625 123.207031 390.605469 C 123.273438 390.199219 123.457031 389.851562 123.757812 389.5625 C 123.789062 389.496094 123.816406 389.425781 123.855469 389.363281 C 123.953125 389.183594 124.097656 389.046875 124.28125 388.957031 C 124.464844 388.863281 124.660156 388.835938 124.863281 388.867188 C 124.878906 388.847656 124.894531 388.839844 124.902344 388.832031 C 125.097656 388.660156 125.3125 388.511719 125.539062 388.390625 C 125.761719 388.238281 126.003906 388.148438 126.269531 388.113281 C 126.539062 388.078125 126.796875 388.105469 127.050781 388.195312 C 127.300781 388.285156 127.519531 388.425781 127.707031 388.621094 C 127.890625 388.816406 128.023438 389.039062 128.101562 389.296875 C 128.140625 389.847656 128.046875 390.371094 127.816406 390.875 C 127.589844 391.375 127.253906 391.792969 126.8125 392.121094 C 126.542969 392.410156 126.222656 392.613281 125.84375 392.730469 C 125.46875 392.847656 125.089844 392.863281 124.703125 392.777344 C 124.121094 392.632812 123.6875 392.296875 123.402344 391.769531 Z M 125.425781 389.105469 L 125.429688 389.109375 L 125.449219 389.109375 Z M 103.925781 386.773438 C 103.839844 386.449219 103.816406 386.121094 103.855469 385.785156 C 103.898438 385.453125 104 385.136719 104.167969 384.84375 C 104.332031 384.550781 104.546875 384.300781 104.808594 384.09375 C 105.074219 383.882812 105.367188 383.734375 105.691406 383.640625 C 105.984375 383.542969 106.285156 383.492188 106.59375 383.484375 C 106.886719 383.492188 107.167969 383.550781 107.4375 383.660156 C 107.828125 383.671875 108.179688 383.789062 108.5 384.011719 C 108.820312 384.230469 109.054688 384.523438 109.203125 384.886719 C 109.351562 385.5625 109.203125 386.167969 108.753906 386.695312 C 108.503906 387.328125 108.109375 387.847656 107.5625 388.253906 C 107.398438 388.34375 107.226562 388.417969 107.046875 388.46875 C 106.863281 388.523438 106.679688 388.554688 106.492188 388.566406 C 106.304688 388.578125 106.117188 388.570312 105.929688 388.539062 C 105.746094 388.507812 105.5625 388.457031 105.390625 388.386719 C 105.214844 388.316406 105.050781 388.226562 104.894531 388.117188 C 104.742188 388.011719 104.601562 387.886719 104.472656 387.746094 C 104.347656 387.605469 104.238281 387.457031 104.144531 387.289062 C 104.054688 387.125 103.980469 386.953125 103.925781 386.773438 Z M 108.875 386.320312 C 108.875 386.304688 108.878906 386.289062 108.878906 386.277344 C 108.878906 386.289062 108.875 386.304688 108.875 386.320312 Z M 108.675781 385.429688 C 108.640625 385.382812 108.605469 385.339844 108.570312 385.296875 C 108.664062 385.539062 108.726562 385.789062 108.75 386.046875 L 108.753906 386.027344 C 108.726562 385.824219 108.699219 385.625 108.675781 385.429688 Z M 107.878906 383.875 L 107.859375 383.871094 C 108.363281 384.261719 108.378906 384.273438 107.878906 383.875 Z M 160.789062 365.765625 C 160.59375 365.5625 160.4375 365.335938 160.316406 365.082031 C 160.195312 364.828125 160.113281 364.558594 160.078125 364.28125 C 160.042969 364 160.050781 363.722656 160.105469 363.445312 C 160.15625 363.171875 160.25 362.910156 160.386719 362.664062 C 160.765625 362.058594 161.273438 361.589844 161.90625 361.261719 C 162.542969 360.933594 163.214844 360.789062 163.925781 360.832031 C 164.207031 360.832031 164.480469 360.878906 164.746094 360.96875 C 165.007812 361.058594 165.253906 361.1875 165.476562 361.359375 C 165.699219 361.527344 165.890625 361.726562 166.046875 361.957031 C 166.207031 362.191406 166.324219 362.441406 166.398438 362.707031 C 166.457031 362.933594 166.488281 363.160156 166.492188 363.390625 C 166.484375 363.929688 166.328125 364.414062 166.015625 364.851562 C 165.703125 365.289062 165.292969 365.597656 164.789062 365.78125 C 164.769531 365.789062 164.730469 365.808594 164.675781 365.832031 C 164.488281 365.933594 164.296875 366.011719 164.09375 366.066406 C 163.839844 366.234375 163.570312 366.351562 163.277344 366.425781 C 162.984375 366.5 162.6875 366.523438 162.390625 366.496094 C 162.089844 366.46875 161.800781 366.390625 161.527344 366.265625 C 161.253906 366.140625 161.007812 365.976562 160.789062 365.765625 Z M 163.78125 366.183594 C 163.640625 366.234375 163.59375 366.277344 163.78125 366.183594 Z M 183.683594 372.703125 C 184.332031 372.875 184.984375 372.886719 185.640625 372.738281 C 186.023438 372.636719 186.351562 372.441406 186.628906 372.164062 C 186.707031 372.0625 186.78125 371.964844 186.859375 371.867188 C 186.867188 371.867188 186.90625 371.835938 186.992188 371.75 C 187.148438 371.59375 187.269531 371.417969 187.351562 371.214844 C 187.4375 371.011719 187.476562 370.804688 187.476562 370.585938 C 187.476562 370.367188 187.4375 370.15625 187.351562 369.953125 C 187.269531 369.753906 187.148438 369.574219 186.992188 369.421875 C 186.90625 369.34375 186.875 369.3125 186.863281 369.3125 C 186.5625 368.867188 186.15625 368.574219 185.640625 368.429688 C 184.984375 368.277344 184.332031 368.292969 183.683594 368.46875 C 183.214844 368.609375 182.835938 368.875 182.546875 369.265625 C 182.253906 369.660156 182.109375 370.097656 182.109375 370.585938 C 182.109375 371.074219 182.253906 371.515625 182.546875 371.90625 C 182.835938 372.296875 183.214844 372.5625 183.683594 372.703125 Z M 193.207031 376.121094 C 192.996094 376.109375 192.8125 376.175781 192.65625 376.320312 C 192.5 376.460938 192.417969 376.636719 192.40625 376.847656 C 192.410156 376.980469 192.441406 377.101562 192.507812 377.210938 C 192.574219 377.324219 192.664062 377.414062 192.777344 377.476562 C 192.890625 377.542969 193.011719 377.574219 193.140625 377.574219 C 193.273438 377.574219 193.394531 377.542969 193.507812 377.476562 C 193.730469 377.316406 193.925781 377.292969 194.109375 377.046875 C 194.285156 376.816406 194.191406 376.445312 194.15625 376.1875 C 194.085938 375.730469 193.359375 375.71875 193.207031 376.121094 Z M 313.382812 339.492188 C 313.828125 339 314.265625 338.515625 314.707031 338.027344 C 314.933594 337.796875 315.109375 337.535156 315.234375 337.242188 C 315.355469 336.945312 315.417969 336.636719 315.417969 336.316406 C 315.417969 335.992188 315.355469 335.683594 315.230469 335.390625 C 315.109375 335.09375 314.933594 334.832031 314.707031 334.605469 C 314.480469 334.378906 314.21875 334.203125 313.921875 334.082031 C 313.625 333.957031 313.316406 333.894531 312.996094 333.898438 C 312.675781 333.898438 312.367188 333.957031 312.070312 334.082031 C 311.773438 334.203125 311.511719 334.378906 311.285156 334.605469 C 310.792969 335.042969 310.304688 335.484375 309.820312 335.921875 C 309.582031 336.160156 309.402344 336.429688 309.273438 336.742188 C 309.144531 337.050781 309.082031 337.371094 309.082031 337.703125 C 309.082031 338.039062 309.144531 338.359375 309.273438 338.667969 C 309.402344 338.976562 309.582031 339.25 309.820312 339.488281 C 310.054688 339.722656 310.328125 339.90625 310.636719 340.035156 C 310.945312 340.164062 311.265625 340.226562 311.601562 340.226562 C 311.933594 340.226562 312.257812 340.164062 312.566406 340.035156 C 312.875 339.910156 313.148438 339.726562 313.382812 339.492188 Z M 264.503906 331.679688 C 264.515625 331.789062 264.535156 331.898438 264.558594 332.007812 C 264.570312 332.050781 264.570312 332.089844 264.578125 332.136719 C 264.585938 332.167969 264.605469 332.195312 264.613281 332.226562 C 264.632812 332.269531 264.648438 332.320312 264.671875 332.367188 C 264.859375 332.816406 265.140625 333.195312 265.523438 333.5 C 265.902344 333.804688 266.335938 334 266.816406 334.082031 C 267.289062 334.179688 267.75 334.136719 268.199219 333.960938 C 268.648438 333.785156 269.015625 333.496094 269.296875 333.101562 C 269.53125 332.890625 269.710938 332.640625 269.839844 332.351562 C 269.96875 332.0625 270.03125 331.761719 270.03125 331.445312 C 270.03125 331.128906 269.96875 330.824219 269.839844 330.535156 C 269.710938 330.25 269.53125 329.996094 269.296875 329.785156 C 269.015625 329.390625 268.648438 329.105469 268.199219 328.929688 C 267.75 328.75 267.289062 328.707031 266.816406 328.800781 C 266.335938 328.886719 265.902344 329.082031 265.523438 329.386719 C 265.140625 329.691406 264.859375 330.066406 264.671875 330.519531 C 264.648438 330.570312 264.632812 330.617188 264.613281 330.667969 C 264.605469 330.695312 264.585938 330.71875 264.578125 330.75 C 264.570312 330.796875 264.570312 330.835938 264.558594 330.882812 C 264.53125 330.988281 264.511719 331.097656 264.503906 331.207031 C 264.488281 331.367188 264.488281 331.523438 264.503906 331.679688 Z M 258.363281 349.667969 C 258.832031 349.875 259.320312 349.992188 259.828125 350.03125 C 260.339844 350.066406 260.839844 350.011719 261.332031 349.875 C 261.820312 349.734375 262.277344 349.515625 262.691406 349.21875 C 263.105469 348.921875 263.460938 348.566406 263.75 348.144531 C 264.152344 347.507812 264.335938 346.8125 264.300781 346.058594 C 264.296875 345.664062 264.175781 345.3125 263.9375 345 C 263.703125 344.683594 263.394531 344.476562 263.015625 344.367188 C 262.589844 344.296875 262.160156 344.257812 261.730469 344.25 C 261.328125 344.175781 260.933594 344.191406 260.542969 344.300781 C 260.457031 344.324219 259.652344 344.492188 260.269531 344.417969 C 259.675781 344.445312 259.109375 344.582031 258.570312 344.832031 C 258.535156 344.851562 258.496094 344.871094 258.460938 344.890625 C 258.363281 344.933594 258.203125 344.996094 257.933594 345.117188 C 257.464844 345.398438 257.121094 345.785156 256.90625 346.289062 C 256.6875 346.789062 256.640625 347.308594 256.757812 347.839844 C 256.859375 348.257812 257.050781 348.628906 257.332031 348.953125 C 257.617188 349.277344 257.960938 349.515625 258.363281 349.667969 Z M 284.019531 325.757812 C 284.214844 325.835938 284.417969 325.894531 284.628906 325.925781 C 284.835938 325.957031 285.046875 325.96875 285.257812 325.957031 C 285.472656 325.941406 285.679688 325.90625 285.882812 325.847656 C 286.085938 325.785156 286.28125 325.707031 286.464844 325.605469 C 286.652344 325.5 286.824219 325.378906 286.984375 325.238281 C 287.140625 325.097656 287.28125 324.941406 287.40625 324.773438 C 287.53125 324.601562 287.636719 324.417969 287.71875 324.222656 C 287.804688 324.027344 287.863281 323.828125 287.90625 323.617188 C 287.902344 323.4375 287.871094 323.265625 287.800781 323.101562 C 287.730469 322.9375 287.632812 322.789062 287.507812 322.664062 C 287.382812 322.539062 287.234375 322.441406 287.070312 322.371094 C 286.90625 322.300781 286.734375 322.265625 286.554688 322.265625 C 287.046875 322.285156 286.308594 322.238281 286.15625 322.253906 C 286.011719 322.277344 285.914062 322.285156 285.84375 322.296875 C 285.734375 322.304688 285.621094 322.304688 285.507812 322.296875 C 285 322.289062 284.503906 322.363281 284.019531 322.515625 C 283.660156 322.625 283.371094 322.828125 283.148438 323.128906 C 282.925781 323.425781 282.816406 323.765625 282.816406 324.136719 C 282.816406 324.511719 282.925781 324.847656 283.148438 325.148438 C 283.371094 325.445312 283.660156 325.652344 284.019531 325.757812 Z M 186.582031 313.6875 C 186.308594 313.761719 186.023438 313.800781 185.738281 313.851562 C 185.441406 313.808594 185.144531 313.796875 184.847656 313.816406 C 184.304688 313.777344 183.765625 313.824219 183.238281 313.953125 C 182.835938 314.078125 182.507812 314.308594 182.257812 314.648438 C 182.007812 314.984375 181.882812 315.367188 181.882812 315.785156 C 181.882812 316.207031 182.007812 316.585938 182.257812 316.925781 C 182.507812 317.265625 182.835938 317.496094 183.238281 317.617188 C 183.855469 317.8125 184.476562 317.832031 185.105469 317.679688 C 185.734375 317.53125 186.28125 317.230469 186.742188 316.777344 C 187.324219 316.324219 187.722656 315.746094 187.929688 315.039062 C 187.953125 314.945312 187.96875 314.851562 187.964844 314.753906 C 187.964844 314.65625 187.953125 314.5625 187.929688 314.46875 C 187.902344 314.375 187.867188 314.289062 187.820312 314.207031 C 187.769531 314.121094 187.710938 314.046875 187.644531 313.976562 C 187.574219 313.910156 187.5 313.851562 187.417969 313.800781 C 187.332031 313.753906 187.246094 313.71875 187.152344 313.691406 C 187.058594 313.667969 186.964844 313.652344 186.867188 313.652344 C 186.773438 313.652344 186.675781 313.664062 186.582031 313.6875 Z M 209.332031 297.183594 C 209.351562 296.957031 209.324219 296.738281 209.25 296.527344 C 209.179688 296.3125 209.070312 296.125 208.921875 295.953125 C 208.769531 295.785156 208.59375 295.652344 208.394531 295.554688 C 208.191406 295.457031 207.976562 295.402344 207.753906 295.394531 C 208.011719 295.253906 207.875 295.207031 207.332031 295.25 C 206.90625 295.277344 206.507812 295.398438 206.140625 295.617188 C 205.734375 295.789062 205.386719 296.039062 205.097656 296.367188 C 204.757812 296.710938 204.511719 297.109375 204.359375 297.566406 C 204.203125 298.023438 204.15625 298.488281 204.21875 298.964844 C 204.285156 299.222656 204.410156 299.445312 204.597656 299.632812 C 204.785156 299.820312 205.007812 299.949219 205.265625 300.015625 C 205.898438 300.132812 206.496094 300.03125 207.058594 299.714844 C 207.257812 299.628906 207.253906 299.621094 207.042969 299.710938 C 207.257812 299.625 207.476562 299.535156 207.6875 299.4375 C 207.882812 299.300781 208.066406 299.152344 208.242188 298.992188 C 208.09375 299.097656 208.121094 299.082031 208.332031 298.925781 C 208.957031 298.511719 209.292969 297.929688 209.332031 297.183594 Z M 165.339844 306.777344 C 165.257812 306.871094 165.179688 306.964844 165.101562 307.0625 C 164.917969 307.253906 164.78125 307.472656 164.683594 307.71875 C 164.585938 307.960938 164.535156 308.21875 164.535156 308.480469 C 164.535156 308.746094 164.585938 309 164.683594 309.246094 C 164.78125 309.492188 164.917969 309.710938 165.101562 309.902344 C 165.179688 309.996094 165.257812 310.089844 165.339844 310.1875 C 166.734375 311.859375 169.457031 310.449219 169.457031 308.480469 C 169.457031 306.511719 166.734375 305.105469 165.339844 306.777344 Z M 165.339844 306.777344 " fill-opacity="1" fill-rule="nonzero"/></g></svg>