<svg xmlns="http://www.w3.org/2000/svg" xmlns:xlink="http://www.w3.org/1999/xlink" width="600" zoomAndPan="magnify" viewBox="0 0 450 457.91998" height="601" preserveAspectRatio="xMidYMid meet" version="1.0"><defs><clipPath id="69b2584b97"><path d="M 76 241 L 374 241 L 374 443.574219 L 76 443.574219 Z M 76 241 " clip-rule="nonzero"/></clipPath><clipPath id="c91aded2b6"><path d="M 60.542969 7.152344 L 389.738281 7.152344 L 389.738281 264 L 60.542969 264 Z M 60.542969 7.152344 " clip-rule="nonzero"/></clipPath></defs><g clip-path="url(#69b2584b97)"><path fill="#f08632" d="M 350.316406 396.144531 C 348.730469 406.835938 344.882812 413.941406 336.386719 419.226562 C 324.9375 426.355469 312.945312 431.097656 299.355469 434.425781 C 248.964844 446.773438 196.804688 446.628906 146.585938 433.464844 C 132.113281 429.671875 102.761719 418.234375 100.3125 401.722656 L 88.039062 319.003906 L 76.90625 242.027344 C 113.710938 260.445312 148.140625 268.027344 187.902344 270.921875 C 248.121094 275.304688 318.484375 271.828125 373.164062 241.941406 L 350.316406 396.140625 Z M 350.316406 396.144531 " fill-opacity="1" fill-rule="nonzero"/></g><g clip-path="url(#c91aded2b6)"><path fill="#f08632" d="M 382.929688 221.855469 C 356.605469 251.96875 288.960938 260.585938 250.417969 263.214844 C 203.363281 266.429688 99.964844 258.996094 67.535156 222.25 C 58.320312 211.808594 58.3125 197.636719 67.445312 187.21875 C 71.210938 182.925781 76.035156 179.960938 80.0625 176.273438 C 80.96875 156.132812 68.394531 141.839844 89.550781 125.46875 C 98.582031 118.46875 109.054688 115.609375 119.730469 111.800781 L 91.015625 53.535156 C 86.007812 43.378906 107.472656 34.925781 114.242188 37.734375 L 149.476562 106.703125 C 150.871094 109.4375 154 110.8125 157.398438 109.328125 L 141.3125 21.734375 C 140.703125 18.421875 139.332031 13.363281 142.457031 11.316406 C 146.804688 8.46875 165.738281 2.980469 167.609375 12.542969 L 181.105469 81.570312 C 187.210938 80.117188 190.753906 75.414062 194.195312 70.101562 C 202.863281 56.726562 222.234375 54.082031 233.535156 65.316406 C 236.664062 68.425781 239.789062 72.570312 244.535156 71.511719 C 252.089844 61.800781 263.078125 41.441406 278.546875 39.949219 C 288.152344 39.027344 295.832031 48.855469 302.097656 54.257812 C 307.46875 58.890625 312.546875 62.277344 315.777344 68.617188 C 322.175781 81.191406 322.988281 95.296875 320.824219 110.316406 C 336.410156 112.429688 351.148438 116.019531 363.21875 125.324219 C 380.597656 138.71875 369.117188 155.65625 369.351562 175.089844 C 373.65625 180.1875 380.554688 183.820312 384.363281 189.574219 C 391.28125 200.027344 391.292969 212.289062 382.929688 221.851562 Z M 310.949219 108.914062 C 313.820312 101.6875 312.597656 94.625 310.664062 87.277344 C 308.4375 78.789062 309.730469 68.992188 297.035156 63.253906 C 291.839844 57.179688 285.808594 51.972656 278.484375 48.742188 C 264.355469 53.996094 235.464844 94.097656 254.960938 105.128906 C 267.089844 111.992188 265.332031 127.070312 277.023438 120.175781 C 292.351562 111.125 295.203125 113.867188 310.945312 108.914062 Z M 208.839844 72.515625 C 206.839844 72.289062 203.6875 73.746094 204.441406 76.277344 C 205.546875 79.964844 207.828125 83.738281 211.421875 85.214844 C 213.621094 86.113281 215.171875 83.976562 215.441406 82.863281 C 216.054688 80.335938 211.480469 72.816406 208.839844 72.515625 Z M 232.386719 102.265625 C 235.132812 96.878906 238.292969 87.785156 232.851562 86.105469 C 228.007812 84.609375 223.550781 101.144531 227.179688 103.339844 C 228.792969 104.316406 231.105469 104.773438 232.386719 102.265625 Z M 203.546875 106.503906 C 204.398438 103.246094 204.160156 100.921875 202.210938 100.660156 C 196.988281 99.960938 184.378906 101.101562 186.5 106.414062 C 186.925781 107.484375 187.929688 108.375 189.617188 109.238281 C 194.28125 109.359375 198.621094 109.042969 203.546875 106.503906 Z M 364.082031 206.824219 C 363.242188 211.136719 358.011719 213.976562 354.109375 213.058594 L 361.214844 159.71875 C 344.15625 168.605469 326.367188 169.148438 308.15625 164.71875 C 312.578125 174.851562 313.496094 183.847656 312.03125 193.707031 L 305.667969 230.273438 C 303.566406 232.082031 299.648438 232.402344 297.15625 232.003906 C 296.066406 208.734375 313.40625 180.796875 293.304688 161.945312 C 286.496094 155.558594 283.089844 146.066406 287.519531 137.261719 C 296.671875 119.066406 345.5625 121.910156 348.101562 140.183594 C 349.71875 151.796875 326.285156 156.304688 311.601562 147.761719 C 309.480469 146.527344 310.351562 142.867188 311.304688 141.742188 C 314.976562 137.421875 323.410156 145.300781 334.132812 142.691406 C 335.671875 142.316406 337.410156 141.53125 337.464844 140.601562 C 337.921875 133.46875 295.734375 129.835938 295.128906 144.285156 C 294.65625 155.453125 329.917969 164.296875 355.972656 151.96875 C 358.859375 150.601562 362.5 147.898438 363.058594 144.726562 C 366.03125 127.765625 321.125 111.46875 287.644531 124.785156 C 271.59375 131.175781 273.863281 144.542969 270.992188 160.128906 C 269.058594 170.625 284.703125 168.015625 284.542969 186.046875 L 284.09375 234.675781 C 284.070312 237.132812 275.203125 237.308594 275.179688 235.019531 L 274.851562 201.699219 C 249.039062 216.425781 210.429688 217.398438 182.890625 200.816406 L 182.21875 236.675781 C 179.75 237.878906 175.234375 237.203125 173.496094 235.167969 C 173.019531 217.929688 172.863281 201.070312 173.367188 183.472656 C 173.644531 173.800781 181.960938 167.269531 189.835938 162.722656 C 189.75 147.015625 190.128906 132.355469 173.972656 125.148438 C 149.636719 114.300781 109.09375 118.398438 91.5625 136.824219 C 85.128906 143.585938 85.484375 152.046875 92.558594 158.226562 C 106.945312 170.804688 122.433594 163.878906 127.550781 172.859375 C 130.738281 178.457031 131.257812 188.285156 134.203125 188.714844 C 139.027344 189.414062 136.738281 180.164062 139.660156 171.863281 C 143.953125 159.664062 167.222656 160.523438 165.484375 146.242188 C 163.960938 133.738281 128.515625 131.132812 115.671875 142.324219 C 109.453125 147.742188 127.355469 152.808594 137.601562 147.625 C 139.832031 146.496094 141.210938 143.210938 144.507812 143.710938 C 147.730469 144.203125 148.882812 147.585938 148.296875 150.035156 C 145.542969 161.578125 107.511719 163.03125 105.042969 147.769531 C 101.710938 127.210938 144.613281 119.621094 165.574219 131.617188 C 175.996094 137.582031 179.050781 150.195312 171.261719 159.527344 C 166.898438 164.757812 160.777344 167.855469 154.414062 170.351562 C 143.875 174.476562 150.824219 184.664062 144.527344 193.890625 C 141.464844 198.390625 136.128906 199.757812 131.382812 198.117188 C 120.367188 194.3125 123.808594 182.074219 117.988281 177.386719 C 107.4375 176.179688 98.398438 173.035156 89.5 168.019531 L 95.855469 213.753906 C 82.953125 210.96875 86.589844 202.953125 83.421875 194.023438 C 78.027344 196.023438 73.605469 204.0625 77.441406 210.242188 C 82.011719 217.605469 89.703125 222.277344 97.375 226.035156 C 129.53125 241.769531 168.308594 246.453125 203.875 248.378906 C 245.585938 250.640625 294.492188 247.082031 333.984375 234.011719 C 347.207031 229.636719 376.871094 217.851562 373.558594 202.289062 C 372.957031 199.476562 370.289062 196.179688 366.550781 194.148438 L 364.097656 206.824219 Z M 215.050781 121.785156 C 214.277344 121.191406 212.363281 120.203125 211.132812 121.292969 C 208.375 123.730469 202.910156 134.015625 208.644531 134.851562 C 213.496094 135.5625 218.089844 124.089844 215.050781 121.785156 Z M 250.839844 133.878906 C 253.054688 130.136719 242.601562 119.5625 236.8125 123.253906 C 235.636719 124 234.949219 126.714844 236.191406 128 C 239.605469 131.535156 248.21875 138.308594 250.839844 133.882812 Z M 202.488281 158.191406 C 210.539062 156.179688 242.066406 156.058594 244.832031 156.644531 L 260.957031 160.054688 C 263.523438 155.675781 264.078125 150.265625 262.773438 145.699219 C 237.324219 154.40625 237.640625 143.121094 213.136719 148.691406 C 208.527344 149.738281 203.804688 148.5625 199.929688 150.710938 C 198.015625 151.773438 199.351562 158.980469 202.492188 158.195312 Z M 206.609375 192.425781 C 195.148438 186.648438 198.800781 175.699219 201.386719 168.480469 C 194.765625 169.957031 189.351562 173.273438 185.191406 178.289062 C 181.90625 182.25 182.710938 187.449219 186.4375 190.71875 C 210.300781 211.625 268.050781 204.921875 274.230469 185.953125 C 280.113281 167.898438 212.523438 153.96875 208.074219 178.539062 C 206.046875 189.738281 246.699219 191.296875 244.890625 183.398438 C 244.726562 182.699219 243.863281 181.984375 242.449219 181.351562 C 230.179688 175.863281 221.714844 184.863281 219.988281 177.230469 C 219.574219 175.402344 220.359375 173.050781 223.101562 171.613281 C 231.945312 166.972656 252.859375 171.144531 255.132812 182.691406 C 257.855469 196.503906 227.296875 202.863281 206.609375 192.425781 Z M 206.609375 192.425781 " fill-opacity="1" fill-rule="nonzero"/></g></svg>